<?xml version="1.0" encoding="UTF-8"?>
<!-- Generator: Adobe Illustrator 25.2.3, SVG Export Plug-In . SVG Version: 6.00 Build 0)  -->
<svg version="1.1" xmlns="http://www.w3.org/2000/svg" xmlns:xlink="http://www.w3.org/1999/xlink" x="0px" y="0px" viewBox="0 0 350 280.65" style="enable-background:new 0 0 350 280.65;" xml:space="preserve">
<style type="text/css">
	.st0{fill:none;}
	.st1{fill:none;stroke:#00A9CE;stroke-width:2.1786;stroke-linecap:round;stroke-miterlimit:10;}
	.st2{fill:#00A9CE;}
	.st3{fill:none;stroke:#00A9CE;stroke-miterlimit:10;}
	.st4{fill:none;stroke:#00A9CE;stroke-width:2.034;stroke-miterlimit:10;}
	.st5{fill:none;stroke:#00A9CE;stroke-width:1.0165;stroke-miterlimit:10;}
	.st6{fill:none;stroke:#00A9CE;stroke-width:2.7341;stroke-linecap:round;stroke-linejoin:round;stroke-miterlimit:10;}
	.st7{fill:#131926;}
	.st8{fill:none;stroke:#00A9CE;stroke-width:2;stroke-miterlimit:10;}
	.st9{fill:#333F48;}
	.st10{fill:#CEDD50;}
	.st11{fill:none;stroke:#00A9CE;stroke-width:3.554;stroke-linecap:round;stroke-linejoin:round;stroke-miterlimit:10;}
	.st12{fill:none;stroke:#00A9CE;stroke-width:3.1125;stroke-linecap:round;stroke-linejoin:round;stroke-miterlimit:10;}
	.st13{fill:none;stroke:#00B2DB;stroke-width:45;stroke-linecap:round;stroke-linejoin:round;stroke-miterlimit:10;}
	.st14{fill:none;stroke:#00B2DB;stroke-width:30;stroke-linecap:round;stroke-linejoin:round;stroke-miterlimit:10;}
	.st15{fill:none;stroke:#00A9CE;stroke-width:1.5742;stroke-linecap:round;stroke-linejoin:round;stroke-miterlimit:10;}
	.st16{fill:none;stroke:#00A9CE;stroke-width:2.3613;stroke-linecap:round;stroke-linejoin:round;stroke-miterlimit:10;}
	.st17{fill:none;stroke:#00A9CE;stroke-width:3;stroke-linecap:round;stroke-linejoin:round;stroke-miterlimit:10;}
	.st18{fill:none;stroke:#00A9CE;stroke-width:2.8475;stroke-linecap:round;stroke-linejoin:round;stroke-miterlimit:10;}
	.st19{fill:none;stroke:#00A9CE;stroke-width:2.2271;stroke-miterlimit:10;}
	.st20{fill:none;stroke:#00A9CE;stroke-width:3.4468;stroke-linecap:round;stroke-linejoin:round;stroke-miterlimit:10;}
	.st21{fill:none;stroke:#00A9CE;stroke-width:2.8723;stroke-linecap:round;stroke-linejoin:round;stroke-miterlimit:10;}
	.st22{fill:none;stroke:#00A9CE;stroke-width:1.8566;stroke-linecap:round;stroke-linejoin:round;stroke-miterlimit:10;}
	.st23{fill:none;stroke:#00A9CE;stroke-width:2.5;stroke-linecap:round;stroke-linejoin:round;stroke-miterlimit:10;}
	.st24{fill:none;stroke:#00A9CE;stroke-width:2;stroke-linecap:round;stroke-miterlimit:10;}
	.st25{display:none;}
	.st26{display:inline;fill:#2300E2;}
	.st27{display:inline;fill:none;stroke:#00A9CE;stroke-width:2;stroke-miterlimit:10;}
	.st28{display:inline;fill:none;stroke:#00A9CE;stroke-width:2.1264;stroke-linecap:round;stroke-miterlimit:10;}
</style>
<g id="Layer_2">
</g>
<g id="Layer_1">
	<g>
		<g>
			<line class="st8" x1="264.74" y1="235.49" x2="104.11" y2="235.49"/>
			<g>
				<polygon class="st2" points="260.75,232.1 264.14,235.49 260.75,238.88 263.63,238.88 267.02,235.49 263.63,232.1     "/>
			</g>
			<g>
				<polygon class="st2" points="108.09,232.1 104.7,235.49 108.09,238.88 105.21,238.88 101.82,235.49 105.21,232.1     "/>
			</g>
		</g>
	</g>
	<g>
		<path class="st9" d="M42.36,73.66h-1.88v5.64h-0.69v-5.64h-1.88V73h4.46V73.66z"/>
		<path class="st9" d="M43.7,75.95h0.02c0.13-0.3,0.33-0.53,0.58-0.69c0.26-0.16,0.56-0.24,0.9-0.24c0.49,0,0.87,0.14,1.16,0.43    c0.29,0.29,0.43,0.73,0.43,1.33v2.53h-0.65v-2.44c0-0.41-0.1-0.71-0.29-0.91c-0.2-0.2-0.47-0.3-0.81-0.3    c-0.4,0-0.72,0.14-0.97,0.41s-0.37,0.71-0.37,1.32v1.92h-0.65V73h0.65V75.95z"/>
		<path class="st9" d="M50.06,75.77h-0.13c-0.44,0-0.78,0.14-1.02,0.41s-0.36,0.66-0.36,1.17v1.95h-0.65v-4.16h0.65v0.94h0.02    c0.09-0.32,0.26-0.57,0.5-0.77c0.24-0.19,0.54-0.29,0.88-0.29h0.11V75.77z"/>
		<path class="st9" d="M53.78,75.62c0.34,0.41,0.51,0.93,0.51,1.58v0.12h-3.46c0.01,0.46,0.15,0.82,0.42,1.09s0.63,0.4,1.07,0.4    c0.34,0,0.62-0.07,0.84-0.22s0.41-0.34,0.58-0.57l0.47,0.42c-0.2,0.28-0.45,0.52-0.75,0.71s-0.67,0.29-1.13,0.29    c-0.43,0-0.81-0.09-1.14-0.27c-0.33-0.18-0.58-0.44-0.76-0.77s-0.27-0.72-0.27-1.16s0.09-0.83,0.27-1.16s0.42-0.6,0.74-0.78    c0.32-0.19,0.69-0.28,1.11-0.28C52.94,75.01,53.44,75.21,53.78,75.62z M51.31,75.93c-0.25,0.21-0.41,0.51-0.45,0.89h2.73    c-0.03-0.38-0.16-0.68-0.39-0.89c-0.23-0.21-0.54-0.31-0.94-0.31C51.88,75.61,51.57,75.72,51.31,75.93z"/>
		<path class="st9" d="M55.88,79.17c-0.31-0.18-0.56-0.44-0.74-0.77c-0.18-0.34-0.27-0.73-0.27-1.17c0-0.44,0.09-0.83,0.27-1.17    c0.18-0.34,0.43-0.59,0.74-0.77s0.66-0.27,1.04-0.27c0.37,0,0.68,0.08,0.95,0.23c0.27,0.16,0.48,0.37,0.63,0.64h0.02v-0.74h0.65    v4.16h-0.65v-0.74H58.5c-0.15,0.27-0.36,0.48-0.63,0.64c-0.27,0.16-0.58,0.23-0.95,0.23C56.54,79.44,56.19,79.35,55.88,79.17z     M58.14,78.36c0.28-0.29,0.41-0.67,0.41-1.13c0-0.46-0.14-0.84-0.41-1.13c-0.28-0.29-0.64-0.44-1.09-0.44s-0.81,0.15-1.09,0.44    s-0.41,0.67-0.41,1.13c0,0.46,0.14,0.84,0.41,1.13s0.64,0.44,1.09,0.44S57.86,78.65,58.14,78.36z"/>
		<path class="st9" d="M61.03,79.17c-0.31-0.18-0.56-0.44-0.74-0.77c-0.18-0.34-0.27-0.73-0.27-1.17c0-0.44,0.09-0.83,0.27-1.17    c0.18-0.34,0.43-0.59,0.74-0.77c0.31-0.18,0.66-0.27,1.04-0.27c0.37,0,0.68,0.08,0.95,0.23c0.27,0.16,0.48,0.37,0.62,0.64h0.02V73    h0.65v6.3h-0.65v-0.74h-0.02c-0.15,0.27-0.36,0.48-0.62,0.64c-0.27,0.16-0.58,0.23-0.95,0.23C61.69,79.44,61.34,79.35,61.03,79.17    z M63.29,78.36c0.28-0.29,0.41-0.67,0.41-1.13c0-0.46-0.14-0.84-0.41-1.13c-0.28-0.29-0.64-0.44-1.09-0.44    c-0.45,0-0.81,0.15-1.09,0.44c-0.28,0.29-0.41,0.67-0.41,1.13c0,0.46,0.14,0.84,0.41,1.13c0.28,0.29,0.64,0.44,1.09,0.44    C62.65,78.8,63.01,78.65,63.29,78.36z"/>
		<path class="st9" d="M41.71,86.24c0.28,0.29,0.43,0.73,0.43,1.33v2.53h-0.65v-2.44c0-0.41-0.1-0.71-0.3-0.91    c-0.2-0.2-0.47-0.3-0.82-0.3c-0.4,0-0.72,0.14-0.96,0.41s-0.37,0.71-0.37,1.32v1.92h-0.65v-4.16h0.65v0.8h0.02    c0.14-0.31,0.33-0.54,0.58-0.7c0.25-0.16,0.55-0.24,0.9-0.24C41.04,85.81,41.43,85.96,41.71,86.24z"/>
		<path class="st9" d="M46.56,86.42c0.34,0.41,0.51,0.93,0.51,1.58v0.12h-3.46c0.01,0.46,0.15,0.82,0.42,1.09s0.63,0.4,1.07,0.4    c0.34,0,0.62-0.07,0.84-0.22s0.41-0.34,0.58-0.57L47,89.24c-0.2,0.28-0.45,0.52-0.75,0.71s-0.67,0.29-1.13,0.29    c-0.43,0-0.81-0.09-1.14-0.27c-0.33-0.18-0.58-0.44-0.76-0.77s-0.27-0.72-0.27-1.16s0.09-0.83,0.27-1.16s0.42-0.6,0.74-0.78    c0.32-0.19,0.69-0.28,1.11-0.28C45.73,85.81,46.22,86.01,46.56,86.42z M44.1,86.73c-0.25,0.21-0.41,0.51-0.45,0.89h2.73    c-0.03-0.38-0.16-0.68-0.39-0.89c-0.23-0.21-0.54-0.31-0.94-0.31C44.66,86.41,44.35,86.52,44.1,86.73z"/>
		<path class="st9" d="M48.74,86.5v2.46c0,0.37,0.17,0.55,0.52,0.55h0.23v0.6h-0.34c-0.33,0-0.59-0.09-0.77-0.26    c-0.19-0.17-0.28-0.43-0.28-0.77V86.5h-0.8v-0.56h0.8v-1.67h0.65v1.67h0.92v0.56H48.74z"/>
		<path class="st9" d="M56.28,85.95l-1.4,4.16h-0.62l-1.15-3.31l-1.15,3.31h-0.61l-1.4-4.16h0.71l1.01,3.33l1.12-3.33h0.66    l1.12,3.33l1-3.33H56.28z"/>
		<path class="st9" d="M59.81,86.1c0.34,0.19,0.61,0.45,0.8,0.79c0.19,0.34,0.29,0.72,0.29,1.14c0,0.43-0.1,0.81-0.29,1.14    c-0.19,0.34-0.46,0.6-0.8,0.79s-0.73,0.28-1.16,0.28c-0.43,0-0.81-0.09-1.15-0.28c-0.34-0.19-0.61-0.45-0.81-0.79    c-0.2-0.34-0.29-0.72-0.29-1.14s0.1-0.8,0.29-1.14c0.19-0.34,0.46-0.6,0.81-0.79c0.34-0.19,0.73-0.28,1.15-0.28    C59.09,85.81,59.47,85.91,59.81,86.1z M57.85,86.64c-0.24,0.13-0.42,0.31-0.56,0.55c-0.13,0.24-0.2,0.52-0.2,0.83    s0.07,0.59,0.2,0.83c0.13,0.24,0.32,0.42,0.56,0.55c0.24,0.13,0.51,0.19,0.81,0.19s0.57-0.06,0.81-0.19    c0.24-0.13,0.42-0.31,0.56-0.55c0.14-0.24,0.2-0.52,0.2-0.83s-0.07-0.59-0.2-0.83c-0.13-0.24-0.32-0.42-0.56-0.55    s-0.51-0.19-0.81-0.19S58.08,86.52,57.85,86.64z"/>
		<path class="st9" d="M63.92,86.57h-0.13c-0.44,0-0.79,0.14-1.02,0.41c-0.24,0.27-0.36,0.66-0.36,1.17v1.95h-0.65v-4.16h0.65v0.94    h0.02c0.09-0.32,0.26-0.57,0.5-0.77c0.24-0.19,0.54-0.29,0.88-0.29h0.11V86.57z"/>
		<path class="st9" d="M67.21,90.1L65.3,88v2.11h-0.65v-6.3h0.65v3.96l1.73-1.82h0.89L66,87.85l2.11,2.26H67.21z"/>
	</g>
	<g>
		<path class="st9" d="M48.15,251.14h-0.57l-0.91-3.86h-0.01l-1.2,3.07h-0.42l-1.2-3.07h-0.01l-0.91,3.86h-0.57l1.2-4.9h0.45    l1.25,3.28h0.01l1.25-3.28h0.45L48.15,251.14z"/>
		<path class="st9" d="M49.21,251.03c-0.24-0.14-0.44-0.34-0.58-0.6c-0.14-0.26-0.21-0.56-0.21-0.91c0-0.35,0.07-0.65,0.21-0.91    c0.14-0.26,0.33-0.46,0.58-0.6c0.24-0.14,0.51-0.21,0.81-0.21c0.28,0,0.53,0.06,0.74,0.18c0.21,0.12,0.37,0.29,0.49,0.5h0.01    v-0.57h0.5v3.23h-0.5v-0.57h-0.01c-0.12,0.21-0.28,0.38-0.49,0.5c-0.21,0.12-0.45,0.18-0.74,0.18    C49.73,251.24,49.46,251.17,49.21,251.03z M50.97,250.4c0.21-0.23,0.32-0.52,0.32-0.88c0-0.36-0.11-0.65-0.32-0.88    s-0.5-0.34-0.85-0.34s-0.63,0.11-0.85,0.34c-0.21,0.23-0.32,0.52-0.32,0.88c0,0.36,0.11,0.65,0.32,0.88    c0.21,0.23,0.5,0.34,0.85,0.34S50.75,250.63,50.97,250.4z"/>
		<path class="st9" d="M53.46,248.34v1.91c0,0.28,0.14,0.43,0.41,0.43h0.17v0.47h-0.27c-0.26,0-0.46-0.07-0.6-0.2    s-0.22-0.33-0.22-0.6v-2.01h-0.62v-0.43h0.62v-1.29h0.5v1.29h0.71v0.43H53.46z"/>
		<path class="st9" d="M55.6,248.34v1.91c0,0.28,0.14,0.43,0.41,0.43h0.17v0.47h-0.27c-0.26,0-0.46-0.07-0.6-0.2    c-0.15-0.14-0.22-0.33-0.22-0.6v-2.01h-0.62v-0.43h0.62v-1.29h0.5v1.29h0.71v0.43H55.6z"/>
		<path class="st9" d="M59.32,248.27c0.26,0.32,0.4,0.72,0.4,1.23v0.09h-2.69c0,0.35,0.11,0.64,0.33,0.85s0.49,0.32,0.83,0.32    c0.27,0,0.48-0.06,0.65-0.17c0.17-0.11,0.32-0.26,0.46-0.44l0.36,0.33c-0.16,0.22-0.35,0.4-0.58,0.55    c-0.23,0.15-0.52,0.22-0.88,0.22c-0.34,0-0.63-0.07-0.89-0.21c-0.25-0.14-0.45-0.34-0.59-0.6c-0.14-0.26-0.21-0.56-0.21-0.9    c0-0.34,0.07-0.64,0.21-0.9c0.14-0.26,0.33-0.46,0.58-0.61c0.25-0.14,0.54-0.22,0.86-0.22C58.67,247.8,59.06,247.96,59.32,248.27z     M57.41,248.51c-0.2,0.16-0.32,0.39-0.35,0.69h2.12c-0.02-0.3-0.12-0.53-0.3-0.69c-0.18-0.16-0.42-0.25-0.73-0.25    C57.85,248.27,57.6,248.35,57.41,248.51z"/>
		<path class="st9" d="M62.07,248.39h-0.1c-0.34,0-0.61,0.11-0.79,0.32c-0.18,0.21-0.28,0.52-0.28,0.91v1.52h-0.5v-3.23h0.5v0.73    h0.01c0.07-0.25,0.2-0.45,0.39-0.6c0.19-0.15,0.42-0.23,0.68-0.23h0.08V248.39z"/>
		<path class="st9" d="M67.53,249.83h-2.3l-0.52,1.31h-0.59l2-4.9h0.51l2,4.9h-0.58L67.53,249.83z M67.34,249.33l-0.95-2.41    l-0.96,2.41H67.34z"/>
		<path class="st9" d="M69.66,251.03c-0.27-0.15-0.47-0.35-0.62-0.61c-0.15-0.26-0.22-0.56-0.22-0.9c0-0.34,0.08-0.64,0.22-0.9    c0.15-0.26,0.36-0.46,0.62-0.61c0.27-0.14,0.57-0.22,0.91-0.22c0.39,0,0.76,0.11,1.11,0.32l-0.25,0.43    c-0.3-0.18-0.59-0.27-0.88-0.27c-0.24,0-0.45,0.06-0.63,0.16c-0.18,0.11-0.33,0.26-0.43,0.44c-0.1,0.19-0.15,0.39-0.15,0.62    c0,0.23,0.05,0.44,0.15,0.62c0.1,0.19,0.24,0.33,0.43,0.44c0.18,0.11,0.4,0.16,0.63,0.16c0.28,0,0.58-0.09,0.88-0.27l0.25,0.43    c-0.35,0.21-0.72,0.32-1.11,0.32C70.23,251.24,69.93,251.17,69.66,251.03z"/>
		<path class="st9" d="M72.72,251.03c-0.27-0.15-0.47-0.35-0.62-0.61c-0.15-0.26-0.22-0.56-0.22-0.9c0-0.34,0.07-0.64,0.22-0.9    c0.15-0.26,0.36-0.46,0.62-0.61s0.57-0.22,0.91-0.22c0.39,0,0.76,0.11,1.11,0.32l-0.25,0.43c-0.3-0.18-0.59-0.27-0.88-0.27    c-0.24,0-0.45,0.06-0.63,0.16c-0.18,0.11-0.33,0.26-0.43,0.44c-0.1,0.19-0.15,0.39-0.15,0.62c0,0.23,0.05,0.44,0.15,0.62    c0.1,0.19,0.24,0.33,0.43,0.44c0.18,0.11,0.4,0.16,0.63,0.16c0.29,0,0.58-0.09,0.88-0.27l0.25,0.43    c-0.35,0.21-0.72,0.32-1.11,0.32C73.29,251.24,72.98,251.17,72.72,251.03z"/>
		<path class="st9" d="M77.73,248.27c0.26,0.32,0.4,0.72,0.4,1.23v0.09h-2.69c0,0.35,0.11,0.64,0.33,0.85s0.49,0.32,0.83,0.32    c0.27,0,0.48-0.06,0.65-0.17c0.17-0.11,0.32-0.26,0.46-0.44l0.36,0.33c-0.16,0.22-0.35,0.4-0.58,0.55    c-0.23,0.15-0.52,0.22-0.88,0.22c-0.34,0-0.63-0.07-0.89-0.21c-0.25-0.14-0.45-0.34-0.59-0.6c-0.14-0.26-0.21-0.56-0.21-0.9    c0-0.34,0.07-0.64,0.21-0.9c0.14-0.26,0.33-0.46,0.58-0.61c0.25-0.14,0.54-0.22,0.86-0.22C77.08,247.8,77.47,247.96,77.73,248.27z     M75.82,248.51c-0.2,0.16-0.32,0.39-0.35,0.69h2.12c-0.02-0.3-0.12-0.53-0.3-0.69c-0.18-0.16-0.42-0.25-0.73-0.25    C76.26,248.27,76.01,248.35,75.82,248.51z"/>
		<path class="st9" d="M79.06,251.14c-0.23-0.07-0.44-0.16-0.63-0.28l0.25-0.45c0.36,0.23,0.73,0.35,1.11,0.35    c0.21,0,0.38-0.04,0.48-0.12c0.11-0.08,0.16-0.18,0.16-0.31c0-0.1-0.04-0.19-0.11-0.27s-0.18-0.15-0.33-0.22l-0.6-0.29    c-0.47-0.21-0.7-0.52-0.7-0.9c0-0.28,0.1-0.49,0.3-0.64c0.2-0.15,0.47-0.22,0.81-0.22c0.36,0,0.72,0.08,1.09,0.25l-0.22,0.45    c-0.32-0.15-0.61-0.22-0.89-0.22c-0.18,0-0.32,0.03-0.42,0.09s-0.14,0.16-0.14,0.28c0,0.1,0.04,0.19,0.11,0.27    s0.19,0.15,0.35,0.22l0.59,0.27c0.22,0.11,0.4,0.23,0.51,0.37s0.18,0.32,0.18,0.54c0,0.3-0.11,0.53-0.32,0.69    s-0.51,0.23-0.88,0.23C79.53,251.24,79.29,251.21,79.06,251.14z"/>
		<path class="st9" d="M81.9,251.14c-0.23-0.07-0.44-0.16-0.63-0.28l0.25-0.45c0.36,0.23,0.73,0.35,1.11,0.35    c0.21,0,0.38-0.04,0.48-0.12c0.11-0.08,0.16-0.18,0.16-0.31c0-0.1-0.04-0.19-0.11-0.27s-0.18-0.15-0.33-0.22l-0.6-0.29    c-0.47-0.21-0.7-0.52-0.7-0.9c0-0.28,0.1-0.49,0.3-0.64c0.2-0.15,0.47-0.22,0.81-0.22c0.36,0,0.72,0.08,1.09,0.25l-0.22,0.45    c-0.32-0.15-0.61-0.22-0.89-0.22c-0.18,0-0.32,0.03-0.42,0.09s-0.14,0.16-0.14,0.28c0,0.1,0.04,0.19,0.11,0.27    s0.19,0.15,0.35,0.22l0.59,0.27c0.22,0.11,0.4,0.23,0.51,0.37s0.18,0.32,0.18,0.54c0,0.3-0.11,0.53-0.32,0.69    s-0.51,0.23-0.88,0.23C82.37,251.24,82.13,251.21,81.9,251.14z"/>
		<path class="st9" d="M86.86,248.02c0.27,0.15,0.47,0.35,0.62,0.61s0.22,0.56,0.22,0.89c0,0.33-0.07,0.63-0.22,0.89    s-0.36,0.47-0.62,0.61c-0.27,0.15-0.57,0.22-0.9,0.22c-0.33,0-0.63-0.07-0.9-0.22c-0.27-0.15-0.48-0.35-0.63-0.62    s-0.23-0.56-0.23-0.89c0-0.33,0.08-0.62,0.23-0.89s0.36-0.47,0.63-0.62c0.27-0.15,0.56-0.22,0.9-0.22    C86.29,247.8,86.59,247.87,86.86,248.02z M85.33,248.45c-0.18,0.1-0.33,0.24-0.43,0.43c-0.1,0.19-0.16,0.4-0.16,0.64    c0,0.24,0.05,0.46,0.16,0.64c0.11,0.19,0.25,0.33,0.43,0.43c0.18,0.1,0.39,0.15,0.63,0.15s0.44-0.05,0.63-0.15    c0.18-0.1,0.33-0.24,0.43-0.43c0.11-0.19,0.16-0.4,0.16-0.64c0-0.24-0.05-0.46-0.16-0.64c-0.1-0.19-0.25-0.33-0.43-0.43    c-0.18-0.1-0.39-0.15-0.63-0.15S85.51,248.35,85.33,248.45z"/>
		<path class="st9" d="M90.05,248.39h-0.1c-0.35,0-0.61,0.11-0.79,0.32s-0.28,0.52-0.28,0.91v1.52h-0.5v-3.23h0.5v0.73h0.01    c0.07-0.25,0.2-0.45,0.39-0.6c0.19-0.15,0.42-0.23,0.68-0.23h0.08V248.39z"/>
		<path class="st9" d="M93.37,247.9l-2.11,4.63h-0.54l0.83-1.74l-1.34-2.89h0.6l1.01,2.32l1.01-2.32H93.37z"/>
	</g>
	<g>
		<path class="st9" d="M163.73,248.92c0.19,0.22,0.29,0.5,0.29,0.84c0,0.29-0.07,0.54-0.21,0.75s-0.32,0.36-0.56,0.47    s-0.49,0.16-0.78,0.16h-1.92v-4.9h1.74c0.44,0,0.79,0.11,1.05,0.33c0.26,0.22,0.39,0.52,0.39,0.9c0,0.26-0.07,0.49-0.2,0.68    c-0.14,0.19-0.33,0.32-0.57,0.38v0.01C163.28,248.58,163.54,248.71,163.73,248.92z M161.09,246.75v1.59h1.05c0.67,0,1-0.26,1-0.78    c0-0.54-0.32-0.81-0.97-0.81H161.09z M163.16,250.38c0.19-0.16,0.28-0.38,0.28-0.66c0-0.27-0.1-0.49-0.29-0.65    c-0.19-0.16-0.46-0.24-0.82-0.24h-1.24v1.79h1.29C162.72,250.63,162.97,250.55,163.16,250.38z"/>
		<path class="st9" d="M165.25,251.14h-0.5v-4.9h0.5V251.14z"/>
		<path class="st9" d="M166.46,250.9c-0.22-0.23-0.33-0.58-0.33-1.05v-1.95h0.51v1.92c0,0.31,0.07,0.54,0.22,0.7    c0.15,0.15,0.35,0.23,0.6,0.23c0.3,0,0.54-0.11,0.72-0.33s0.27-0.57,0.27-1.06v-1.46h0.5v3.23h-0.5v-0.6h-0.01    c-0.09,0.21-0.22,0.38-0.4,0.51c-0.18,0.13-0.41,0.2-0.7,0.2C166.97,251.24,166.68,251.13,166.46,250.9z"/>
		<path class="st9" d="M172.42,248.27c0.26,0.32,0.4,0.72,0.4,1.23v0.09h-2.69c0,0.35,0.11,0.64,0.33,0.85s0.49,0.32,0.83,0.32    c0.27,0,0.48-0.06,0.65-0.17c0.17-0.11,0.32-0.26,0.46-0.44l0.36,0.33c-0.16,0.22-0.35,0.4-0.58,0.55    c-0.23,0.15-0.52,0.22-0.88,0.22c-0.34,0-0.63-0.07-0.89-0.21c-0.25-0.14-0.45-0.34-0.59-0.6c-0.14-0.26-0.21-0.56-0.21-0.9    c0-0.34,0.07-0.64,0.21-0.9c0.14-0.26,0.33-0.46,0.58-0.61c0.25-0.14,0.54-0.22,0.86-0.22    C171.77,247.8,172.16,247.96,172.42,248.27z M170.5,248.51c-0.2,0.16-0.32,0.39-0.35,0.69h2.12c-0.02-0.3-0.12-0.53-0.3-0.69    c-0.18-0.16-0.42-0.25-0.73-0.25C170.95,248.27,170.7,248.35,170.5,248.51z"/>
		<path class="st9" d="M174.11,248.34v1.91c0,0.28,0.14,0.43,0.41,0.43h0.17v0.47h-0.27c-0.26,0-0.46-0.07-0.6-0.2    c-0.15-0.14-0.22-0.33-0.22-0.6v-2.01h-0.62v-0.43h0.62v-1.29h0.5v1.29h0.71v0.43H174.11z"/>
		<path class="st9" d="M177.68,248.02c0.27,0.15,0.47,0.35,0.62,0.61s0.22,0.56,0.22,0.89c0,0.33-0.08,0.63-0.22,0.89    s-0.36,0.47-0.62,0.61c-0.27,0.15-0.57,0.22-0.9,0.22c-0.33,0-0.63-0.07-0.9-0.22c-0.27-0.15-0.47-0.35-0.63-0.62    c-0.15-0.26-0.23-0.56-0.23-0.89c0-0.33,0.08-0.62,0.23-0.89c0.15-0.26,0.36-0.47,0.63-0.62c0.27-0.15,0.56-0.22,0.9-0.22    C177.12,247.8,177.42,247.87,177.68,248.02z M176.15,248.45c-0.18,0.1-0.33,0.24-0.43,0.43c-0.11,0.19-0.16,0.4-0.16,0.64    c0,0.24,0.05,0.46,0.16,0.64c0.1,0.19,0.25,0.33,0.43,0.43c0.18,0.1,0.39,0.15,0.63,0.15s0.44-0.05,0.63-0.15    c0.18-0.1,0.33-0.24,0.43-0.43c0.1-0.19,0.16-0.4,0.16-0.64c0-0.24-0.05-0.46-0.16-0.64c-0.11-0.19-0.25-0.33-0.43-0.43    c-0.18-0.1-0.39-0.15-0.63-0.15S176.34,248.35,176.15,248.45z"/>
		<path class="st9" d="M181.63,248.02c0.27,0.15,0.47,0.35,0.62,0.61s0.22,0.56,0.22,0.89c0,0.33-0.07,0.63-0.22,0.89    s-0.36,0.47-0.62,0.61c-0.27,0.15-0.57,0.22-0.9,0.22c-0.33,0-0.63-0.07-0.9-0.22c-0.27-0.15-0.48-0.35-0.63-0.62    s-0.23-0.56-0.23-0.89c0-0.33,0.08-0.62,0.23-0.89s0.36-0.47,0.63-0.62c0.27-0.15,0.56-0.22,0.9-0.22    C181.06,247.8,181.37,247.87,181.63,248.02z M180.1,248.45c-0.18,0.1-0.33,0.24-0.43,0.43c-0.1,0.19-0.16,0.4-0.16,0.64    c0,0.24,0.05,0.46,0.16,0.64c0.11,0.19,0.25,0.33,0.43,0.43c0.18,0.1,0.39,0.15,0.63,0.15s0.44-0.05,0.63-0.15    c0.18-0.1,0.33-0.24,0.43-0.43c0.11-0.19,0.16-0.4,0.16-0.64c0-0.24-0.05-0.46-0.16-0.64c-0.1-0.19-0.25-0.33-0.43-0.43    c-0.18-0.1-0.39-0.15-0.63-0.15S180.29,248.35,180.1,248.45z"/>
		<path class="st9" d="M183.77,248.34v1.91c0,0.28,0.14,0.43,0.41,0.43h0.17v0.47h-0.27c-0.26,0-0.46-0.07-0.6-0.2    s-0.22-0.33-0.22-0.6v-2.01h-0.62v-0.43h0.62v-1.29h0.5v1.29h0.71v0.43H183.77z"/>
		<path class="st9" d="M185.63,248.53h0.01c0.1-0.23,0.25-0.41,0.46-0.54c0.2-0.13,0.43-0.19,0.7-0.19c0.38,0,0.68,0.11,0.9,0.34    c0.22,0.22,0.34,0.57,0.34,1.04v1.97h-0.5v-1.9c0-0.32-0.08-0.55-0.23-0.71c-0.15-0.15-0.36-0.23-0.63-0.23    c-0.31,0-0.56,0.11-0.75,0.32s-0.29,0.55-0.29,1.03v1.49h-0.5v-4.9h0.5V248.53z"/>
		<path class="st9" d="M191.59,250.62h2.27v0.52h-2.81v-4.9h0.54V250.62z"/>
		<path class="st9" d="M197.23,250.63v0.51h-2.78v-4.9h2.74v0.51h-2.21v1.41h2.03v0.5h-2.03v1.97H197.23z"/>
		<path class="st9" d="M200.9,247.36v0.55h0.74v0.43h-0.74v2.8h-0.5v-2.8h-0.59v-0.43h0.59v-0.54c0-0.4,0.1-0.7,0.3-0.9    s0.48-0.3,0.84-0.3h0.11v0.48h-0.09C201.13,246.64,200.9,246.88,200.9,247.36z"/>
		<path class="st9" d="M204.42,248.02c0.27,0.15,0.47,0.35,0.62,0.61s0.22,0.56,0.22,0.89c0,0.33-0.08,0.63-0.22,0.89    s-0.36,0.47-0.62,0.61c-0.27,0.15-0.57,0.22-0.9,0.22c-0.33,0-0.63-0.07-0.9-0.22c-0.27-0.15-0.47-0.35-0.63-0.62    c-0.15-0.26-0.23-0.56-0.23-0.89c0-0.33,0.08-0.62,0.23-0.89c0.15-0.26,0.36-0.47,0.63-0.62c0.27-0.15,0.56-0.22,0.9-0.22    C203.85,247.8,204.15,247.87,204.42,248.02z M202.89,248.45c-0.18,0.1-0.33,0.24-0.43,0.43c-0.11,0.19-0.16,0.4-0.16,0.64    c0,0.24,0.05,0.46,0.16,0.64c0.1,0.19,0.25,0.33,0.43,0.43c0.18,0.1,0.39,0.15,0.63,0.15s0.44-0.05,0.63-0.15    c0.18-0.1,0.33-0.24,0.43-0.43c0.1-0.19,0.16-0.4,0.16-0.64c0-0.24-0.05-0.46-0.16-0.64c-0.11-0.19-0.25-0.33-0.43-0.43    c-0.18-0.1-0.39-0.15-0.63-0.15S203.07,248.35,202.89,248.45z"/>
		<path class="st9" d="M207.61,248.39h-0.1c-0.34,0-0.61,0.11-0.79,0.32c-0.18,0.21-0.28,0.52-0.28,0.91v1.52h-0.5v-3.23h0.5v0.73    h0.01c0.07-0.25,0.2-0.45,0.39-0.6c0.19-0.15,0.42-0.23,0.68-0.23h0.08V248.39z"/>
		<path class="st9" d="M162.83,259.32c-0.39-0.21-0.7-0.52-0.92-0.9c-0.22-0.39-0.33-0.83-0.33-1.33c0-0.5,0.11-0.94,0.33-1.33    c0.22-0.39,0.53-0.69,0.92-0.9c0.39-0.21,0.85-0.32,1.37-0.32c0.35,0,0.66,0.05,0.93,0.14c0.28,0.09,0.53,0.23,0.78,0.41    l-0.33,0.47c-0.42-0.32-0.88-0.48-1.39-0.48c-0.39,0-0.74,0.08-1.05,0.25s-0.54,0.4-0.71,0.71c-0.17,0.31-0.25,0.65-0.25,1.05    c0,0.39,0.08,0.74,0.25,1.05c0.17,0.31,0.41,0.54,0.71,0.71s0.66,0.25,1.05,0.25c0.51,0,0.97-0.16,1.39-0.48l0.33,0.47    c-0.24,0.18-0.5,0.32-0.78,0.41s-0.59,0.14-0.93,0.14C163.68,259.64,163.22,259.54,162.83,259.32z"/>
		<path class="st9" d="M168.79,256.42c0.27,0.15,0.47,0.35,0.62,0.61s0.22,0.56,0.22,0.89c0,0.33-0.08,0.63-0.22,0.89    s-0.36,0.47-0.62,0.61c-0.27,0.15-0.57,0.22-0.9,0.22c-0.33,0-0.63-0.07-0.9-0.22c-0.27-0.15-0.47-0.35-0.63-0.62    c-0.15-0.26-0.23-0.56-0.23-0.89c0-0.33,0.08-0.62,0.23-0.89c0.15-0.26,0.36-0.47,0.63-0.62c0.27-0.15,0.56-0.22,0.9-0.22    C168.22,256.2,168.52,256.27,168.79,256.42z M167.26,256.85c-0.18,0.1-0.33,0.24-0.43,0.43c-0.11,0.19-0.16,0.4-0.16,0.64    c0,0.24,0.05,0.46,0.16,0.64c0.1,0.19,0.25,0.33,0.43,0.43c0.18,0.1,0.39,0.15,0.63,0.15s0.44-0.05,0.63-0.15    c0.18-0.1,0.33-0.24,0.43-0.43c0.1-0.19,0.16-0.4,0.16-0.64c0-0.24-0.05-0.46-0.16-0.64c-0.11-0.19-0.25-0.33-0.43-0.43    c-0.18-0.1-0.39-0.15-0.63-0.15S167.45,256.75,167.26,256.85z"/>
		<path class="st9" d="M170.31,256.3h0.5v0.58h0.01c0.17-0.46,0.51-0.69,1.01-0.69c0.25,0,0.46,0.06,0.63,0.17s0.3,0.3,0.4,0.55    h0.01c0.09-0.24,0.23-0.42,0.42-0.54c0.19-0.12,0.41-0.18,0.65-0.18c0.33,0,0.6,0.11,0.8,0.32s0.3,0.54,0.3,1v2.02h-0.5v-2.01    c0-0.27-0.06-0.48-0.19-0.62s-0.31-0.21-0.55-0.21c-0.27,0-0.48,0.09-0.64,0.28c-0.16,0.18-0.23,0.48-0.23,0.87v1.69h-0.5v-1.91    c0-0.62-0.25-0.92-0.76-0.92c-0.27,0-0.48,0.1-0.64,0.3c-0.15,0.2-0.23,0.51-0.23,0.92v1.62h-0.5V256.3z"/>
		<path class="st9" d="M175.92,256.3h0.5v0.58h0.01c0.17-0.46,0.51-0.69,1.02-0.69c0.25,0,0.46,0.06,0.63,0.17    c0.17,0.12,0.3,0.3,0.4,0.55h0.01c0.09-0.24,0.23-0.42,0.42-0.54c0.19-0.12,0.41-0.18,0.65-0.18c0.33,0,0.6,0.11,0.8,0.32    s0.3,0.54,0.3,1v2.02h-0.5v-2.01c0-0.27-0.06-0.48-0.19-0.62s-0.31-0.21-0.55-0.21c-0.27,0-0.48,0.09-0.64,0.28    c-0.16,0.18-0.23,0.48-0.23,0.87v1.69h-0.5v-1.91c0-0.62-0.25-0.92-0.76-0.92c-0.27,0-0.48,0.1-0.64,0.3    c-0.15,0.2-0.23,0.51-0.23,0.92v1.62h-0.5V256.3z"/>
		<path class="st9" d="M182.11,255.55h-0.64v-0.84h0.64V255.55z M181.54,256.3h0.5v3.23h-0.5V256.3z"/>
		<path class="st9" d="M183.17,259.54c-0.23-0.07-0.44-0.16-0.63-0.28l0.25-0.45c0.36,0.23,0.73,0.35,1.11,0.35    c0.21,0,0.38-0.04,0.48-0.12c0.11-0.08,0.16-0.18,0.16-0.31c0-0.1-0.04-0.19-0.11-0.27s-0.18-0.15-0.33-0.22l-0.6-0.29    c-0.47-0.21-0.7-0.52-0.7-0.9c0-0.28,0.1-0.49,0.3-0.64c0.2-0.15,0.47-0.22,0.81-0.22c0.36,0,0.72,0.08,1.09,0.25l-0.22,0.45    c-0.32-0.15-0.61-0.22-0.89-0.22c-0.18,0-0.32,0.03-0.42,0.09s-0.14,0.16-0.14,0.28c0,0.1,0.04,0.19,0.11,0.27    s0.19,0.15,0.35,0.22l0.59,0.27c0.22,0.11,0.4,0.23,0.51,0.37s0.18,0.32,0.18,0.54c0,0.3-0.11,0.53-0.32,0.69    s-0.51,0.23-0.88,0.23C183.64,259.64,183.4,259.61,183.17,259.54z"/>
		<path class="st9" d="M186.01,259.54c-0.23-0.07-0.44-0.16-0.63-0.28l0.25-0.45c0.36,0.23,0.73,0.35,1.11,0.35    c0.21,0,0.38-0.04,0.48-0.12c0.11-0.08,0.16-0.18,0.16-0.31c0-0.1-0.04-0.19-0.11-0.27s-0.18-0.15-0.33-0.22l-0.6-0.29    c-0.47-0.21-0.7-0.52-0.7-0.9c0-0.28,0.1-0.49,0.3-0.64c0.2-0.15,0.47-0.22,0.81-0.22c0.36,0,0.72,0.08,1.09,0.25l-0.22,0.45    c-0.32-0.15-0.61-0.22-0.89-0.22c-0.18,0-0.32,0.03-0.42,0.09s-0.14,0.16-0.14,0.28c0,0.1,0.04,0.19,0.11,0.27    s0.19,0.15,0.35,0.22l0.59,0.27c0.22,0.11,0.4,0.23,0.51,0.37s0.18,0.32,0.18,0.54c0,0.3-0.11,0.53-0.32,0.69    s-0.51,0.23-0.88,0.23C186.48,259.64,186.24,259.61,186.01,259.54z"/>
		<path class="st9" d="M189.12,255.55h-0.64v-0.84h0.64V255.55z M188.55,256.3h0.5v3.23h-0.5V256.3z"/>
		<path class="st9" d="M192.39,256.42c0.27,0.15,0.47,0.35,0.62,0.61s0.22,0.56,0.22,0.89c0,0.33-0.07,0.63-0.22,0.89    s-0.36,0.47-0.62,0.61c-0.27,0.15-0.57,0.22-0.9,0.22c-0.33,0-0.63-0.07-0.9-0.22c-0.27-0.15-0.48-0.35-0.63-0.62    s-0.23-0.56-0.23-0.89c0-0.33,0.08-0.62,0.23-0.89s0.36-0.47,0.63-0.62c0.27-0.15,0.56-0.22,0.9-0.22    C191.82,256.2,192.12,256.27,192.39,256.42z M190.86,256.85c-0.18,0.1-0.33,0.24-0.43,0.43c-0.1,0.19-0.16,0.4-0.16,0.64    c0,0.24,0.05,0.46,0.16,0.64c0.11,0.19,0.25,0.33,0.43,0.43c0.18,0.1,0.39,0.15,0.63,0.15s0.44-0.05,0.63-0.15    c0.18-0.1,0.33-0.24,0.43-0.43c0.11-0.19,0.16-0.4,0.16-0.64c0-0.24-0.05-0.46-0.16-0.64c-0.1-0.19-0.25-0.33-0.43-0.43    c-0.18-0.1-0.39-0.15-0.63-0.15S191.04,256.75,190.86,256.85z"/>
		<path class="st9" d="M196.48,256.54c0.22,0.22,0.33,0.57,0.33,1.04v1.97h-0.5v-1.9c0-0.32-0.08-0.55-0.23-0.71    c-0.15-0.15-0.37-0.23-0.64-0.23c-0.31,0-0.56,0.11-0.75,0.32s-0.29,0.55-0.29,1.03v1.49h-0.5v-3.23h0.5v0.62h0.01    c0.11-0.24,0.26-0.42,0.45-0.54c0.19-0.12,0.43-0.19,0.7-0.19C195.96,256.2,196.26,256.31,196.48,256.54z"/>
		<path class="st9" d="M198.25,255.55h-0.64v-0.84h0.64V255.55z M197.69,256.3h0.5v3.23h-0.5V256.3z"/>
		<path class="st9" d="M201.67,256.54c0.22,0.22,0.33,0.57,0.33,1.04v1.97h-0.5v-1.9c0-0.32-0.08-0.55-0.23-0.71    c-0.15-0.15-0.37-0.23-0.64-0.23c-0.31,0-0.56,0.11-0.75,0.32s-0.29,0.55-0.29,1.03v1.49h-0.5v-3.23h0.5v0.62h0.01    c0.11-0.24,0.26-0.42,0.45-0.54c0.19-0.12,0.43-0.19,0.7-0.19C201.15,256.2,201.45,256.31,201.67,256.54z"/>
		<path class="st9" d="M203.24,260.9l0.1-0.49c0.44,0.1,0.83,0.15,1.15,0.15c0.35,0,0.6-0.08,0.76-0.25    c0.16-0.16,0.23-0.43,0.23-0.81v-0.54h-0.01c-0.12,0.21-0.28,0.38-0.49,0.5c-0.21,0.12-0.45,0.18-0.74,0.18    c-0.3,0-0.57-0.07-0.81-0.21c-0.24-0.14-0.44-0.34-0.58-0.6s-0.21-0.56-0.21-0.91c0-0.35,0.07-0.65,0.21-0.91s0.33-0.46,0.58-0.6    c0.24-0.14,0.51-0.21,0.81-0.21c0.29,0,0.53,0.06,0.74,0.18c0.21,0.12,0.37,0.29,0.49,0.5h0.01v-0.57h0.5v3.23    c-0.01,0.58-0.14,0.97-0.41,1.19c-0.26,0.21-0.62,0.32-1.09,0.32C204.12,261.04,203.7,260.99,203.24,260.9z M205.19,258.8    c0.21-0.23,0.32-0.52,0.32-0.88c0-0.36-0.11-0.65-0.32-0.88s-0.5-0.34-0.85-0.34c-0.35,0-0.63,0.11-0.85,0.34    s-0.32,0.52-0.32,0.88c0,0.36,0.11,0.65,0.32,0.88s0.5,0.34,0.85,0.34C204.69,259.15,204.97,259.03,205.19,258.8z"/>
	</g>
	<g>
		<path class="st9" d="M154.29,157.73h-1.67v5.02h-0.62v-5.02h-1.67v-0.58h3.96V157.73z"/>
		<path class="st9" d="M155.49,159.76h0.02c0.12-0.27,0.29-0.47,0.52-0.62s0.5-0.22,0.8-0.22c0.43,0,0.78,0.13,1.03,0.38    c0.26,0.26,0.38,0.65,0.38,1.18v2.25h-0.58v-2.17c0-0.36-0.09-0.63-0.26-0.81c-0.17-0.18-0.42-0.26-0.72-0.26    c-0.35,0-0.64,0.12-0.86,0.36c-0.22,0.24-0.33,0.63-0.33,1.17v1.7h-0.58v-5.6h0.58V159.76z"/>
		<path class="st9" d="M161.13,159.6h-0.11c-0.39,0-0.7,0.12-0.91,0.36s-0.32,0.59-0.32,1.04v1.74h-0.58v-3.7h0.58v0.83h0.02    c0.08-0.28,0.23-0.51,0.44-0.68c0.22-0.17,0.48-0.26,0.78-0.26h0.1V159.6z"/>
		<path class="st9" d="M164.44,159.47c0.3,0.36,0.45,0.83,0.45,1.4v0.1h-3.07c0,0.41,0.13,0.73,0.38,0.97    c0.25,0.24,0.56,0.36,0.95,0.36c0.3,0,0.55-0.07,0.74-0.2c0.19-0.13,0.37-0.3,0.52-0.51l0.42,0.38c-0.18,0.25-0.4,0.46-0.66,0.63    c-0.26,0.17-0.6,0.26-1.01,0.26c-0.38,0-0.72-0.08-1.01-0.24c-0.29-0.16-0.51-0.39-0.67-0.69c-0.16-0.3-0.24-0.64-0.24-1.03    c0-0.39,0.08-0.73,0.24-1.03c0.16-0.3,0.38-0.53,0.66-0.7c0.28-0.17,0.61-0.25,0.98-0.25    C163.7,158.93,164.14,159.11,164.44,159.47z M162.25,159.75c-0.23,0.19-0.36,0.45-0.4,0.79h2.42c-0.03-0.34-0.14-0.61-0.35-0.79    s-0.48-0.28-0.84-0.28C162.76,159.47,162.48,159.56,162.25,159.75z"/>
		<path class="st9" d="M166.31,162.63c-0.28-0.16-0.5-0.39-0.66-0.69c-0.16-0.3-0.24-0.65-0.24-1.04c0-0.39,0.08-0.74,0.24-1.04    c0.16-0.3,0.38-0.53,0.66-0.69c0.28-0.16,0.59-0.24,0.93-0.24c0.33,0,0.61,0.07,0.84,0.21s0.42,0.33,0.56,0.57h0.02v-0.66h0.58    v3.7h-0.58v-0.66h-0.02c-0.13,0.24-0.32,0.43-0.56,0.57s-0.52,0.21-0.84,0.21C166.9,162.87,166.59,162.79,166.31,162.63z     M168.32,161.91c0.25-0.26,0.37-0.6,0.37-1.01c0-0.41-0.12-0.75-0.37-1.01s-0.57-0.39-0.97-0.39c-0.4,0-0.72,0.13-0.97,0.39    s-0.37,0.6-0.37,1.01c0,0.41,0.12,0.75,0.37,1.01s0.57,0.39,0.97,0.39C167.75,162.3,168.07,162.17,168.32,161.91z"/>
		<path class="st9" d="M170.89,162.63c-0.28-0.16-0.5-0.39-0.66-0.69c-0.16-0.3-0.24-0.65-0.24-1.04c0-0.39,0.08-0.74,0.24-1.04    c0.16-0.3,0.38-0.53,0.66-0.69c0.28-0.16,0.59-0.24,0.93-0.24c0.33,0,0.61,0.07,0.84,0.21s0.42,0.33,0.56,0.57h0.02v-2.56h0.58    v5.6h-0.58v-0.66h-0.02c-0.13,0.24-0.32,0.43-0.56,0.57s-0.52,0.21-0.84,0.21C171.47,162.87,171.16,162.79,170.89,162.63z     M172.9,161.91c0.25-0.26,0.37-0.6,0.37-1.01c0-0.41-0.12-0.75-0.37-1.01s-0.57-0.39-0.97-0.39c-0.4,0-0.72,0.13-0.97,0.39    s-0.37,0.6-0.37,1.01c0,0.41,0.12,0.75,0.37,1.01s0.57,0.39,0.97,0.39C172.33,162.3,172.65,162.17,172.9,161.91z"/>
		<path class="st9" d="M142.84,169.81c0.22,0.25,0.33,0.57,0.33,0.96c0,0.34-0.08,0.62-0.24,0.86s-0.37,0.42-0.64,0.54    c-0.27,0.12-0.56,0.18-0.89,0.18h-2.2v-5.6h1.98c0.5,0,0.9,0.12,1.2,0.37s0.45,0.59,0.45,1.03c0,0.3-0.08,0.56-0.23,0.77    c-0.15,0.22-0.37,0.36-0.66,0.44v0.02C142.33,169.42,142.63,169.57,142.84,169.81z M139.83,167.33v1.82h1.2    c0.76,0,1.14-0.3,1.14-0.9c0-0.61-0.37-0.92-1.11-0.92H139.83z M142.19,171.48c0.21-0.19,0.32-0.44,0.32-0.75    c0-0.31-0.11-0.56-0.33-0.74s-0.53-0.28-0.94-0.28h-1.42v2.05h1.48C141.68,171.76,141.97,171.67,142.19,171.48z"/>
		<path class="st9" d="M146.8,168.78c0.3,0.17,0.54,0.4,0.71,0.7c0.17,0.3,0.26,0.64,0.26,1.02c0,0.38-0.09,0.72-0.26,1.02    c-0.17,0.3-0.41,0.53-0.71,0.7c-0.3,0.17-0.65,0.25-1.03,0.25c-0.38,0-0.72-0.08-1.02-0.25c-0.3-0.17-0.54-0.4-0.72-0.7    c-0.17-0.3-0.26-0.64-0.26-1.01c0-0.37,0.09-0.71,0.26-1.01c0.17-0.3,0.41-0.54,0.72-0.7c0.3-0.17,0.65-0.25,1.02-0.25    C146.15,168.53,146.49,168.61,146.8,168.78z M145.05,169.27c-0.21,0.11-0.38,0.28-0.5,0.49s-0.18,0.46-0.18,0.74    s0.06,0.52,0.18,0.74s0.29,0.38,0.5,0.49c0.21,0.11,0.45,0.17,0.72,0.17s0.5-0.06,0.72-0.17s0.38-0.28,0.5-0.49    s0.18-0.46,0.18-0.74s-0.06-0.52-0.18-0.74s-0.29-0.38-0.5-0.49c-0.21-0.11-0.45-0.17-0.72-0.17S145.26,169.16,145.05,169.27z"/>
		<path class="st9" d="M150.44,169.2h-0.11c-0.39,0-0.7,0.12-0.91,0.36c-0.21,0.24-0.32,0.59-0.32,1.04v1.74h-0.58v-3.7h0.58v0.83    h0.02c0.08-0.28,0.23-0.51,0.44-0.68s0.48-0.26,0.78-0.26h0.1V169.2z"/>
		<path class="st9" d="M151.45,172.23c-0.28-0.16-0.5-0.39-0.66-0.69c-0.16-0.3-0.24-0.65-0.24-1.04c0-0.39,0.08-0.74,0.24-1.04    c0.16-0.3,0.38-0.53,0.66-0.69c0.28-0.16,0.59-0.24,0.93-0.24c0.33,0,0.61,0.07,0.84,0.21s0.42,0.33,0.56,0.57h0.02v-2.56h0.58    v5.6h-0.58v-0.66h-0.02c-0.13,0.24-0.32,0.43-0.56,0.57s-0.52,0.21-0.84,0.21C152.04,172.47,151.73,172.39,151.45,172.23z     M153.46,171.51c0.25-0.26,0.37-0.6,0.37-1.01c0-0.41-0.12-0.75-0.37-1.01s-0.57-0.39-0.97-0.39c-0.4,0-0.72,0.13-0.97,0.39    s-0.37,0.6-0.37,1.01c0,0.41,0.12,0.75,0.37,1.01s0.57,0.39,0.97,0.39C152.89,171.9,153.21,171.77,153.46,171.51z"/>
		<path class="st9" d="M158.37,169.07c0.3,0.36,0.45,0.83,0.45,1.4v0.1h-3.07c0,0.41,0.13,0.73,0.38,0.97    c0.25,0.24,0.56,0.36,0.95,0.36c0.3,0,0.55-0.07,0.74-0.2c0.19-0.13,0.37-0.3,0.52-0.51l0.42,0.38c-0.18,0.25-0.4,0.46-0.66,0.63    c-0.26,0.17-0.6,0.26-1.01,0.26c-0.38,0-0.72-0.08-1.01-0.24c-0.29-0.16-0.51-0.39-0.67-0.69c-0.16-0.3-0.24-0.64-0.24-1.03    c0-0.39,0.08-0.73,0.24-1.03c0.16-0.3,0.38-0.53,0.66-0.7c0.28-0.17,0.61-0.25,0.98-0.25    C157.63,168.53,158.07,168.71,158.37,169.07z M156.18,169.35c-0.23,0.19-0.36,0.45-0.4,0.79h2.42c-0.03-0.34-0.14-0.61-0.35-0.79    s-0.48-0.28-0.84-0.28C156.68,169.07,156.4,169.16,156.18,169.35z"/>
		<path class="st9" d="M161.5,169.2h-0.11c-0.39,0-0.7,0.12-0.91,0.36c-0.21,0.24-0.32,0.59-0.32,1.04v1.74h-0.58v-3.7h0.58v0.83    h0.02c0.08-0.28,0.23-0.51,0.44-0.68s0.48-0.26,0.78-0.26h0.1V169.2z"/>
		<path class="st9" d="M166,169.94h-0.79v2.41h-0.62v-5.6h1.86c0.5,0,0.91,0.14,1.23,0.42s0.48,0.67,0.48,1.18    c0,0.44-0.13,0.8-0.39,1.08c-0.26,0.28-0.61,0.44-1.03,0.49l1.7,2.42h-0.78L166,169.94z M165.2,169.35h1.17    c0.36,0,0.64-0.09,0.83-0.27c0.19-0.18,0.29-0.43,0.29-0.74c0-0.31-0.1-0.56-0.29-0.74c-0.19-0.18-0.47-0.27-0.83-0.27h-1.17    V169.35z"/>
		<path class="st9" d="M171.61,168.78c0.3,0.17,0.54,0.4,0.71,0.7c0.17,0.3,0.26,0.64,0.26,1.02c0,0.38-0.08,0.72-0.26,1.02    s-0.41,0.53-0.71,0.7s-0.65,0.25-1.03,0.25c-0.38,0-0.72-0.08-1.02-0.25s-0.54-0.4-0.72-0.7c-0.17-0.3-0.26-0.64-0.26-1.01    c0-0.37,0.09-0.71,0.26-1.01c0.17-0.3,0.41-0.54,0.72-0.7s0.65-0.25,1.02-0.25C170.96,168.53,171.31,168.61,171.61,168.78z     M169.86,169.27c-0.21,0.11-0.38,0.28-0.5,0.49s-0.18,0.46-0.18,0.74s0.06,0.52,0.18,0.74s0.29,0.38,0.5,0.49s0.45,0.17,0.72,0.17    s0.51-0.06,0.72-0.17c0.21-0.11,0.38-0.28,0.5-0.49c0.12-0.21,0.18-0.46,0.18-0.74s-0.06-0.52-0.18-0.74    c-0.12-0.21-0.29-0.38-0.5-0.49c-0.21-0.11-0.45-0.17-0.72-0.17S170.07,169.16,169.86,169.27z"/>
		<path class="st9" d="M173.69,172.08c-0.25-0.26-0.38-0.66-0.38-1.2v-2.23h0.58v2.2c0,0.36,0.08,0.62,0.25,0.8    c0.17,0.17,0.4,0.26,0.68,0.26c0.34,0,0.61-0.13,0.82-0.38s0.31-0.65,0.31-1.21v-1.67h0.58v3.7h-0.58v-0.69h-0.02    c-0.1,0.24-0.25,0.43-0.46,0.58s-0.47,0.22-0.8,0.22C174.27,172.47,173.94,172.34,173.69,172.08z"/>
		<path class="st9" d="M178.48,169.15v2.18c0,0.33,0.16,0.49,0.46,0.49h0.2v0.54h-0.3c-0.29,0-0.52-0.08-0.69-0.23    c-0.17-0.15-0.25-0.38-0.25-0.68v-2.3h-0.71v-0.5h0.71v-1.48h0.58v1.48h0.82v0.5H178.48z"/>
		<path class="st9" d="M182.74,169.07c0.3,0.36,0.45,0.83,0.45,1.4v0.1h-3.07c0,0.41,0.13,0.73,0.38,0.97    c0.25,0.24,0.56,0.36,0.95,0.36c0.3,0,0.55-0.07,0.74-0.2c0.19-0.13,0.37-0.3,0.52-0.51l0.42,0.38c-0.18,0.25-0.4,0.46-0.66,0.63    c-0.26,0.17-0.6,0.26-1.01,0.26c-0.38,0-0.72-0.08-1.01-0.24c-0.29-0.16-0.51-0.39-0.67-0.69c-0.16-0.3-0.24-0.64-0.24-1.03    c0-0.39,0.08-0.73,0.24-1.03c0.16-0.3,0.38-0.53,0.66-0.7c0.28-0.17,0.61-0.25,0.98-0.25    C181.99,168.53,182.43,168.71,182.74,169.07z M180.54,169.35c-0.23,0.19-0.36,0.45-0.4,0.79h2.42c-0.03-0.34-0.14-0.61-0.35-0.79    s-0.48-0.28-0.84-0.28C181.05,169.07,180.77,169.16,180.54,169.35z"/>
		<path class="st9" d="M185.87,169.2h-0.11c-0.39,0-0.7,0.12-0.91,0.36c-0.21,0.24-0.32,0.59-0.32,1.04v1.74h-0.58v-3.7h0.58v0.83    h0.02c0.08-0.28,0.23-0.51,0.44-0.68s0.48-0.26,0.78-0.26h0.1V169.2z"/>
	</g>
	<g>
		<path class="st9" d="M276.46,251.14h-0.57l-0.91-3.86h-0.01l-1.2,3.07h-0.42l-1.2-3.07h-0.01l-0.91,3.86h-0.57l1.2-4.9h0.45    l1.25,3.28h0.01l1.25-3.28h0.45L276.46,251.14z"/>
		<path class="st9" d="M277.53,251.03c-0.24-0.14-0.44-0.34-0.58-0.6s-0.21-0.56-0.21-0.91c0-0.35,0.07-0.65,0.21-0.91    s0.33-0.46,0.58-0.6c0.24-0.14,0.51-0.21,0.81-0.21c0.29,0,0.53,0.06,0.74,0.18c0.21,0.12,0.37,0.29,0.49,0.5h0.01v-0.57h0.5v3.23    h-0.5v-0.57h-0.01c-0.12,0.21-0.28,0.38-0.49,0.5c-0.21,0.12-0.45,0.18-0.74,0.18C278.04,251.24,277.77,251.17,277.53,251.03z     M279.29,250.4c0.21-0.23,0.32-0.52,0.32-0.88c0-0.36-0.11-0.65-0.32-0.88s-0.5-0.34-0.85-0.34c-0.35,0-0.63,0.11-0.85,0.34    s-0.32,0.52-0.32,0.88c0,0.36,0.11,0.65,0.32,0.88s0.5,0.34,0.85,0.34C278.79,250.75,279.07,250.63,279.29,250.4z"/>
		<path class="st9" d="M281.78,248.34v1.91c0,0.28,0.14,0.43,0.41,0.43h0.17v0.47h-0.27c-0.26,0-0.46-0.07-0.6-0.2    c-0.15-0.14-0.22-0.33-0.22-0.6v-2.01h-0.62v-0.43h0.62v-1.29h0.5v1.29h0.71v0.43H281.78z"/>
		<path class="st9" d="M283.92,248.34v1.91c0,0.28,0.14,0.43,0.41,0.43h0.17v0.47h-0.27c-0.26,0-0.46-0.07-0.6-0.2    s-0.22-0.33-0.22-0.6v-2.01h-0.62v-0.43h0.62v-1.29h0.5v1.29h0.71v0.43H283.92z"/>
		<path class="st9" d="M287.64,248.27c0.26,0.32,0.4,0.72,0.4,1.23v0.09h-2.69c0,0.35,0.11,0.64,0.33,0.85s0.49,0.32,0.83,0.32    c0.27,0,0.48-0.06,0.65-0.17c0.17-0.11,0.32-0.26,0.46-0.44l0.36,0.33c-0.16,0.22-0.35,0.4-0.58,0.55    c-0.23,0.15-0.52,0.22-0.88,0.22c-0.34,0-0.63-0.07-0.88-0.21c-0.25-0.14-0.45-0.34-0.59-0.6c-0.14-0.26-0.21-0.56-0.21-0.9    c0-0.34,0.07-0.64,0.21-0.9c0.14-0.26,0.33-0.46,0.58-0.61s0.53-0.22,0.86-0.22C286.99,247.8,287.38,247.96,287.64,248.27z     M285.72,248.51c-0.2,0.16-0.32,0.39-0.35,0.69h2.12c-0.02-0.3-0.12-0.53-0.3-0.69c-0.18-0.16-0.42-0.25-0.73-0.25    C286.16,248.27,285.92,248.35,285.72,248.51z"/>
		<path class="st9" d="M290.38,248.39h-0.1c-0.35,0-0.61,0.11-0.79,0.32s-0.28,0.52-0.28,0.91v1.52h-0.5v-3.23h0.5v0.73h0.01    c0.07-0.25,0.2-0.45,0.39-0.6c0.19-0.15,0.42-0.23,0.68-0.23h0.08V248.39z"/>
		<path class="st9" d="M294.07,250.92c-0.39-0.21-0.7-0.52-0.92-0.9c-0.22-0.39-0.33-0.83-0.33-1.33c0-0.5,0.11-0.94,0.33-1.33    c0.22-0.39,0.53-0.69,0.92-0.9c0.39-0.21,0.85-0.32,1.37-0.32c0.35,0,0.66,0.05,0.93,0.14c0.28,0.09,0.53,0.23,0.78,0.41    l-0.33,0.47c-0.42-0.32-0.88-0.48-1.39-0.48c-0.39,0-0.74,0.08-1.05,0.25s-0.54,0.4-0.71,0.71c-0.17,0.31-0.25,0.65-0.25,1.05    c0,0.39,0.08,0.74,0.25,1.05c0.17,0.31,0.41,0.54,0.71,0.71s0.66,0.25,1.05,0.25c0.51,0,0.97-0.16,1.39-0.48l0.33,0.47    c-0.24,0.18-0.5,0.32-0.78,0.41s-0.59,0.14-0.93,0.14C294.92,251.24,294.47,251.14,294.07,250.92z"/>
		<path class="st9" d="M300.03,248.02c0.27,0.15,0.47,0.35,0.62,0.61s0.22,0.56,0.22,0.89c0,0.33-0.08,0.63-0.22,0.89    s-0.36,0.47-0.62,0.61c-0.27,0.15-0.57,0.22-0.9,0.22c-0.33,0-0.63-0.07-0.9-0.22c-0.27-0.15-0.47-0.35-0.63-0.62    c-0.15-0.26-0.23-0.56-0.23-0.89c0-0.33,0.08-0.62,0.23-0.89c0.15-0.26,0.36-0.47,0.63-0.62c0.27-0.15,0.56-0.22,0.9-0.22    C299.47,247.8,299.77,247.87,300.03,248.02z M298.5,248.45c-0.18,0.1-0.33,0.24-0.43,0.43c-0.11,0.19-0.16,0.4-0.16,0.64    c0,0.24,0.05,0.46,0.16,0.64c0.1,0.19,0.25,0.33,0.43,0.43c0.18,0.1,0.39,0.15,0.63,0.15s0.44-0.05,0.63-0.15    c0.18-0.1,0.33-0.24,0.43-0.43c0.1-0.19,0.16-0.4,0.16-0.64c0-0.24-0.05-0.46-0.16-0.64c-0.11-0.19-0.25-0.33-0.43-0.43    c-0.18-0.1-0.39-0.15-0.63-0.15S298.69,248.35,298.5,248.45z"/>
		<path class="st9" d="M304.13,248.14c0.22,0.22,0.33,0.57,0.33,1.04v1.97h-0.5v-1.9c0-0.32-0.08-0.55-0.23-0.71    c-0.15-0.15-0.37-0.23-0.64-0.23c-0.31,0-0.56,0.11-0.75,0.32s-0.29,0.55-0.29,1.03v1.49h-0.5v-3.23h0.5v0.62h0.01    c0.11-0.24,0.26-0.42,0.45-0.54c0.19-0.12,0.43-0.19,0.7-0.19C303.61,247.8,303.91,247.91,304.13,248.14z"/>
		<path class="st9" d="M305.95,248.34v1.91c0,0.28,0.14,0.43,0.41,0.43h0.17v0.47h-0.27c-0.26,0-0.46-0.07-0.6-0.2    s-0.22-0.33-0.22-0.6v-2.01h-0.62v-0.43h0.62v-1.29h0.5v1.29h0.71v0.43H305.95z"/>
		<path class="st9" d="M308.95,248.39h-0.1c-0.35,0-0.61,0.11-0.79,0.32s-0.28,0.52-0.28,0.91v1.52h-0.5v-3.23h0.5v0.73h0.01    c0.07-0.25,0.2-0.45,0.39-0.6c0.19-0.15,0.42-0.23,0.68-0.23h0.08V248.39z"/>
		<path class="st9" d="M311.69,248.02c0.27,0.15,0.47,0.35,0.62,0.61s0.22,0.56,0.22,0.89c0,0.33-0.08,0.63-0.22,0.89    s-0.36,0.47-0.62,0.61c-0.27,0.15-0.57,0.22-0.9,0.22c-0.33,0-0.63-0.07-0.9-0.22c-0.27-0.15-0.47-0.35-0.63-0.62    c-0.15-0.26-0.23-0.56-0.23-0.89c0-0.33,0.08-0.62,0.23-0.89c0.15-0.26,0.36-0.47,0.63-0.62c0.27-0.15,0.56-0.22,0.9-0.22    C311.13,247.8,311.43,247.87,311.69,248.02z M310.17,248.45c-0.18,0.1-0.33,0.24-0.43,0.43c-0.11,0.19-0.16,0.4-0.16,0.64    c0,0.24,0.05,0.46,0.16,0.64c0.1,0.19,0.25,0.33,0.43,0.43c0.18,0.1,0.39,0.15,0.63,0.15s0.44-0.05,0.63-0.15    c0.18-0.1,0.33-0.24,0.43-0.43c0.1-0.19,0.16-0.4,0.16-0.64c0-0.24-0.05-0.46-0.16-0.64c-0.11-0.19-0.25-0.33-0.43-0.43    c-0.18-0.1-0.39-0.15-0.63-0.15S310.35,248.35,310.17,248.45z"/>
		<path class="st9" d="M313.74,251.14h-0.5v-4.9h0.5V251.14z"/>
		<path class="st9" d="M315.18,251.14h-0.5v-4.9h0.5V251.14z"/>
		<path class="st9" d="M318.68,248.27c0.26,0.32,0.4,0.72,0.4,1.23v0.09h-2.69c0,0.35,0.11,0.64,0.33,0.85s0.49,0.32,0.83,0.32    c0.27,0,0.48-0.06,0.65-0.17c0.17-0.11,0.32-0.26,0.46-0.44l0.36,0.33c-0.16,0.22-0.35,0.4-0.58,0.55    c-0.23,0.15-0.52,0.22-0.88,0.22c-0.34,0-0.63-0.07-0.89-0.21c-0.25-0.14-0.45-0.34-0.59-0.6c-0.14-0.26-0.21-0.56-0.21-0.9    c0-0.34,0.07-0.64,0.21-0.9c0.14-0.26,0.33-0.46,0.58-0.61c0.25-0.14,0.54-0.22,0.86-0.22    C318.03,247.8,318.41,247.96,318.68,248.27z M316.76,248.51c-0.2,0.16-0.32,0.39-0.35,0.69h2.12c-0.02-0.3-0.12-0.53-0.3-0.69    c-0.18-0.16-0.42-0.25-0.73-0.25C317.2,248.27,316.96,248.35,316.76,248.51z"/>
		<path class="st9" d="M321.42,248.39h-0.1c-0.35,0-0.61,0.11-0.79,0.32s-0.28,0.52-0.28,0.91v1.52h-0.5v-3.23h0.5v0.73h0.01    c0.07-0.25,0.2-0.45,0.39-0.6c0.19-0.15,0.42-0.23,0.68-0.23h0.08V248.39z"/>
		<path class="st9" d="M324.86,247.36v0.55h0.74v0.43h-0.74v2.8h-0.5v-2.8h-0.6v-0.43h0.6v-0.54c0-0.4,0.1-0.7,0.3-0.9    s0.48-0.3,0.84-0.3h0.11v0.48h-0.09C325.08,246.64,324.86,246.88,324.86,247.36z"/>
		<path class="st9" d="M328.37,248.02c0.27,0.15,0.47,0.35,0.62,0.61s0.22,0.56,0.22,0.89c0,0.33-0.08,0.63-0.22,0.89    s-0.36,0.47-0.62,0.61c-0.27,0.15-0.57,0.22-0.9,0.22c-0.33,0-0.63-0.07-0.9-0.22c-0.27-0.15-0.47-0.35-0.63-0.62    c-0.15-0.26-0.23-0.56-0.23-0.89c0-0.33,0.08-0.62,0.23-0.89c0.15-0.26,0.36-0.47,0.63-0.62c0.27-0.15,0.56-0.22,0.9-0.22    C327.81,247.8,328.11,247.87,328.37,248.02z M326.84,248.45c-0.18,0.1-0.33,0.24-0.43,0.43c-0.11,0.19-0.16,0.4-0.16,0.64    c0,0.24,0.05,0.46,0.16,0.64c0.1,0.19,0.25,0.33,0.43,0.43c0.18,0.1,0.39,0.15,0.63,0.15s0.44-0.05,0.63-0.15    c0.18-0.1,0.33-0.24,0.43-0.43c0.1-0.19,0.16-0.4,0.16-0.64c0-0.24-0.05-0.46-0.16-0.64c-0.11-0.19-0.25-0.33-0.43-0.43    c-0.18-0.1-0.39-0.15-0.63-0.15S327.03,248.35,326.84,248.45z"/>
		<path class="st9" d="M331.57,248.39h-0.1c-0.34,0-0.61,0.11-0.79,0.32c-0.18,0.21-0.28,0.52-0.28,0.91v1.52h-0.5v-3.23h0.5v0.73    h0.01c0.07-0.25,0.2-0.45,0.39-0.6c0.19-0.15,0.42-0.23,0.68-0.23h0.08V248.39z"/>
		<path class="st9" d="M296.8,259.54h-0.57l-0.91-3.86h-0.01l-1.2,3.07h-0.42l-1.2-3.07h-0.01l-0.91,3.86h-0.57l1.2-4.9h0.45    l1.25,3.28h0.01l1.25-3.28h0.45L296.8,259.54z"/>
		<path class="st9" d="M299.72,256.42c0.27,0.15,0.47,0.35,0.62,0.61s0.22,0.56,0.22,0.89c0,0.33-0.08,0.63-0.22,0.89    s-0.36,0.47-0.62,0.61c-0.27,0.15-0.57,0.22-0.9,0.22c-0.33,0-0.63-0.07-0.9-0.22c-0.27-0.15-0.47-0.35-0.63-0.62    c-0.15-0.26-0.23-0.56-0.23-0.89c0-0.33,0.08-0.62,0.23-0.89c0.15-0.26,0.36-0.47,0.63-0.62c0.27-0.15,0.56-0.22,0.9-0.22    C299.16,256.2,299.46,256.27,299.72,256.42z M298.19,256.85c-0.18,0.1-0.33,0.24-0.43,0.43c-0.11,0.19-0.16,0.4-0.16,0.64    c0,0.24,0.05,0.46,0.16,0.64c0.1,0.19,0.25,0.33,0.43,0.43c0.18,0.1,0.39,0.15,0.63,0.15s0.44-0.05,0.63-0.15    c0.18-0.1,0.33-0.24,0.43-0.43c0.1-0.19,0.16-0.4,0.16-0.64c0-0.24-0.05-0.46-0.16-0.64c-0.11-0.19-0.25-0.33-0.43-0.43    c-0.18-0.1-0.39-0.15-0.63-0.15S298.38,256.75,298.19,256.85z"/>
		<path class="st9" d="M302.27,259.46c-0.21-0.12-0.37-0.29-0.49-0.5h-0.01v0.57h-0.5v-4.9h0.5v2.24h0.01    c0.12-0.21,0.28-0.38,0.49-0.5c0.21-0.12,0.45-0.18,0.74-0.18c0.3,0,0.57,0.07,0.81,0.21c0.24,0.14,0.44,0.34,0.58,0.6    c0.14,0.26,0.21,0.56,0.21,0.91c0,0.35-0.07,0.65-0.21,0.91c-0.14,0.26-0.33,0.46-0.58,0.6c-0.24,0.14-0.51,0.21-0.81,0.21    C302.72,259.64,302.47,259.58,302.27,259.46z M303.75,258.8c0.21-0.23,0.32-0.52,0.32-0.88c0-0.36-0.11-0.65-0.32-0.88    s-0.5-0.34-0.85-0.34c-0.35,0-0.63,0.11-0.85,0.34s-0.32,0.52-0.32,0.88c0,0.36,0.11,0.65,0.32,0.88s0.5,0.34,0.85,0.34    C303.26,259.15,303.54,259.03,303.75,258.8z"/>
		<path class="st9" d="M305.85,255.55h-0.64v-0.84h0.64V255.55z M305.29,256.3h0.5v3.23h-0.5V256.3z"/>
		<path class="st9" d="M307.22,259.54h-0.5v-4.9h0.5V259.54z"/>
		<path class="st9" d="M310.71,256.67c0.26,0.32,0.4,0.72,0.4,1.23v0.09h-2.69c0,0.35,0.11,0.64,0.33,0.85s0.49,0.32,0.83,0.32    c0.27,0,0.48-0.06,0.65-0.17c0.17-0.11,0.32-0.26,0.46-0.44l0.36,0.33c-0.16,0.22-0.35,0.4-0.58,0.55    c-0.23,0.15-0.52,0.22-0.88,0.22c-0.34,0-0.63-0.07-0.89-0.21c-0.25-0.14-0.45-0.34-0.59-0.6c-0.14-0.26-0.21-0.56-0.21-0.9    c0-0.34,0.07-0.64,0.21-0.9c0.14-0.26,0.33-0.46,0.58-0.61c0.25-0.14,0.54-0.22,0.86-0.22    C310.07,256.2,310.45,256.36,310.71,256.67z M308.8,256.91c-0.2,0.16-0.32,0.39-0.35,0.69h2.12c-0.02-0.3-0.12-0.53-0.3-0.69    c-0.18-0.16-0.42-0.25-0.73-0.25C309.24,256.67,309,256.75,308.8,256.91z"/>
	</g>
	<g>
		<polygon class="st2" points="304.53,92.31 304.53,89.43 301.14,86.04 297.75,89.43 297.75,92.31 300.14,89.92 300.14,146.5     297.74,144.11 297.74,146.99 301.14,150.38 304.53,146.99 304.53,144.11 302.14,146.5 302.14,89.92   "/>
		<polygon class="st2" points="244.34,84.47 248.04,85.13 199.51,119.08 200.16,115.37 197.54,117.21 196.61,122.46 201.87,123.39     204.49,121.56 200.78,120.9 249.32,86.95 248.66,90.66 251.29,88.82 252.22,83.56 246.96,82.63   "/>
		<path class="st2" d="M14.77,142.22c0-17.05,7.36-33.29,20.19-44.54c0.45-0.4,0.5-1.08,0.1-1.54c-0.4-0.45-1.09-0.5-1.54-0.1    c-13.3,11.66-20.93,28.5-20.93,46.18c0,19.88,9.7,38.62,25.94,50.12c0.19,0.14,0.41,0.2,0.63,0.2c0.34,0,0.68-0.16,0.89-0.46    c0.35-0.49,0.23-1.17-0.26-1.52C24.12,179.46,14.77,161.39,14.77,142.22z"/>
		<path class="st2" d="M74.75,83.01c24.22,0.31,45.58,15.09,54.4,37.66c0.17,0.43,0.58,0.69,1.01,0.69c0.13,0,0.27-0.02,0.4-0.08    c0.56-0.22,0.84-0.85,0.62-1.41c-9.15-23.4-31.28-38.72-56.4-39.04c-0.58,0.01-1.1,0.47-1.1,1.08    C73.67,82.51,74.15,83,74.75,83.01z"/>
		<path class="st2" d="M132.68,156.09c-0.58-0.15-1.18,0.2-1.32,0.79c-4.53,17.8-17.36,32.71-34.31,39.89    c-0.55,0.23-0.81,0.87-0.58,1.43c0.18,0.42,0.58,0.66,1,0.66c0.14,0,0.29-0.03,0.42-0.09c17.57-7.44,30.87-22.9,35.57-41.36    C133.62,156.83,133.27,156.24,132.68,156.09z"/>
		<path class="st2" d="M184.97,127.52h-7.35v-10.48c0-0.83-0.67-1.5-1.5-1.5s-1.5,0.67-1.5,1.5v10.48h-39.04    c-1.89,0-3.43,1.54-3.43,3.43v10.05h-29.42l1.96-6.04l7.09-9.41c0.89,0.77,2.04,1.26,3.3,1.26c2.79,0,5.07-2.27,5.07-5.07    s-2.27-5.07-5.07-5.07s-5.06,2.27-5.06,5.07c0,1.16,0.41,2.21,1.06,3.07l-7.2,9.56l-5.13-3.73l-6.67-15.8V103.2H80.42v11.17    l-0.02-0.5l-21.39,0.78l-5.97-4.34l-6.01,4.37l2.3,7.06l-2.68,10.83l-5.12,3.72l-5.55-5.57c0.34-0.68,0.55-1.44,0.55-2.25    c0-2.79-2.27-5.07-5.07-5.07s-5.06,2.27-5.06,5.07s2.27,5.07,5.06,5.07c1.61,0,3.04-0.77,3.96-1.95l5.28,5.3l0,0l1.99,6.11    l-6.62,3.79c-0.89-1.45-2.48-2.43-4.31-2.43c-2.79,0-5.06,2.27-5.06,5.07s2.27,5.07,5.06,5.07s5.07-2.27,5.07-5.07    c0-0.61-0.13-1.19-0.32-1.73l6.53-3.74h6.43l5.55,16.69l-0.01,0l1.98,6.08l-11.51,0.78l0,0.03c-0.7-1.96-2.56-3.37-4.75-3.37    c-2.79,0-5.07,2.27-5.07,5.07s2.27,5.07,5.07,5.07s5.06-2.27,5.06-5.07c0-0.25-0.04-0.5-0.08-0.74l11.59-0.78l0,0.01h6.71v23.84    H52.36c-4,0-7.25,3.25-7.25,7.25v30.29c0,4,3.25,7.25,7.25,7.25h30.91c4,0,7.25-3.25,7.25-7.25v-30.29c0-4-3.25-7.25-7.25-7.25    H65.03v-24.73l1.65-5.08l14.72-3.04h6.25l2.56,9.27c-1.87,0.75-3.19,2.57-3.19,4.7c0,2.79,2.27,5.07,5.07,5.07    s5.06-2.27,5.06-5.07s-2.27-5.07-5.06-5.07c-0.31,0-0.62,0.04-0.91,0.09l-2.49-8.99h0.02l1.97-6.06l17.67,0.28    c0.16,2.65,2.34,4.77,5.04,4.77c2.79,0,5.06-2.27,5.06-5.07s-2.27-5.07-5.06-5.07c-2.55,0-4.65,1.9-4.99,4.36l-17.39-0.27l0-0.01    l0,0l5.1-9.6h6.31l0-0.01h29.75v2.94c0,1.89,1.54,3.43,3.43,3.43h49.39c1.89,0,3.43-1.54,3.43-3.43v-14    C188.4,129.06,186.86,127.52,184.97,127.52z M31.45,131.5c-1.67,0-3.03-1.36-3.03-3.03s1.36-3.03,3.03-3.03    c1.67,0,3.03,1.36,3.03,3.03S33.12,131.5,31.45,131.5z M31.76,152.45c-1.67,0-3.03-1.36-3.03-3.03s1.36-3.03,3.03-3.03    c1.67,0,3.03,1.36,3.03,3.03S33.43,152.45,31.76,152.45z M40.73,172.26c-1.67,0-3.03-1.36-3.03-3.03s1.36-3.03,3.03-3.03    c1.67,0,3.03,1.36,3.03,3.03S42.4,172.26,40.73,172.26z M87.78,198.81v30.29c0,2.49-2.03,4.52-4.52,4.52H52.36    c-2.49,0-4.52-2.03-4.52-4.52v-30.29c0-2.49,2.03-4.52,4.52-4.52h30.91C85.76,194.29,87.78,196.31,87.78,198.81z M95.11,172.66    c0,1.67-1.36,3.03-3.03,3.03c-1.67,0-3.03-1.36-3.03-3.03s1.36-3.03,3.03-3.03C93.75,169.63,95.11,170.99,95.11,172.66z     M113.38,149.58c1.67,0,3.03,1.36,3.03,3.03s-1.36,3.03-3.03,3.03c-1.67,0-3.03-1.36-3.03-3.03S111.7,149.58,113.38,149.58z     M115.09,118.71c1.67,0,3.03,1.36,3.03,3.03s-1.36,3.03-3.03,3.03c-1.67,0-3.03-1.36-3.03-3.03S113.42,118.71,115.09,118.71z     M93.24,134.54l-16.77-3.36l0.01-0.02l-5.18-3.76l10.37-12.53h9.35l6.87,16.29L93.24,134.54z M80.96,157.76l-13.93,2.88    l-5.19-3.77l5.98-18.64h6.35l9.99,9.62l-5.19,3.77L80.96,157.76z M65.17,130.64l-8.24-9.46l1.8-5.53l21.65-0.79l-9.89,11.95    l-0.02-0.02L65.17,130.64z M82.45,105.23h7.61v7.61h-7.61V105.23z M50.47,143.81l2.25-6.93l-5.19-3.77l2.81-11.38h5.74l8.46,9.7    l2.21,6.8h0.03l-5.8,18.08l-5.11,3.71L50.47,143.81z M85.01,147.28l-10.49-10.1l1.64-5.04l16.68,3.34l2.12,6.53l-4.79,9.02    L85.01,147.28z M185.4,144.95c0,0.24-0.19,0.43-0.43,0.43h-49.39c-0.24,0-0.43-0.19-0.43-0.43v-14c0-0.24,0.19-0.43,0.43-0.43    h49.39c0.24,0,0.43,0.19,0.43,0.43V144.95z"/>
		<path class="st2" d="M159.73,135.2c-1.42,0-2.57,1.15-2.57,2.57s1.15,2.57,2.57,2.57s2.57-1.15,2.57-2.57    S161.15,135.2,159.73,135.2z"/>
		<path class="st2" d="M167.92,135.2c-1.42,0-2.57,1.15-2.57,2.57s1.15,2.57,2.57,2.57s2.57-1.15,2.57-2.57    S169.34,135.2,167.92,135.2z"/>
		<path class="st2" d="M176.12,135.2c-1.42,0-2.57,1.15-2.57,2.57s1.15,2.57,2.57,2.57c1.42,0,2.57-1.15,2.57-2.57    S177.54,135.2,176.12,135.2z"/>
		<path class="st2" d="M169.26,109.63c1.81-2.04,4.21-3.17,6.74-3.17c2.65,0,5.11,1.21,6.94,3.4c0.3,0.36,0.72,0.54,1.15,0.54    c0.34,0,0.68-0.11,0.96-0.35c0.64-0.53,0.72-1.48,0.19-2.11c-2.38-2.85-5.75-4.48-9.25-4.48c-3.41,0-6.6,1.48-8.99,4.18    c-0.55,0.62-0.49,1.57,0.13,2.12C167.76,110.31,168.71,110.25,169.26,109.63z"/>
		<path class="st2" d="M176.02,96.08c-4.71,0-9.15,2.01-12.52,5.67c-0.56,0.61-0.52,1.56,0.09,2.12s1.56,0.52,2.12-0.09    c2.79-3.03,6.45-4.7,10.31-4.7c3.95,0,7.67,1.74,10.49,4.9c0.3,0.33,0.71,0.5,1.12,0.5c0.35,0,0.71-0.12,1-0.38    c0.62-0.55,0.67-1.5,0.12-2.12C185.36,98.18,180.84,96.08,176.02,96.08z"/>
		<circle class="st2" cx="53.33" cy="199.89" r="3.19"/>
		<g>
			<path class="st7" d="M74.67,210.02l-2.34-1.35c-0.92,0.74-2.02,1.26-3.23,1.48v-6.32l-1.29-0.74l-1.29,0.74v6.32     c-1.21-0.22-2.31-0.74-3.23-1.48l-2.34,1.35c1.76,1.74,4.19,2.82,6.86,2.82C70.49,212.84,72.91,211.77,74.67,210.02z"/>
			<path class="st7" d="M63.46,219.92c0.42,1.16,0.52,2.37,0.33,3.54l2.34,1.35c0.63-2.4,0.35-5.04-0.99-7.35     c-1.34-2.32-3.48-3.88-5.87-4.53v2.71c1.1,0.42,2.11,1.12,2.9,2.06l-5.47,3.16v1.49l1.29,0.74L63.46,219.92z"/>
			<path class="st7" d="M76.35,215.64v-2.71c-2.39,0.65-4.54,2.22-5.87,4.53c-1.34,2.32-1.62,4.95-0.99,7.35l2.34-1.35     c-0.18-1.17-0.08-2.38,0.33-3.54l5.47,3.16l1.29-0.74v-1.49l-5.47-3.16C74.25,216.75,75.25,216.06,76.35,215.64z"/>
		</g>
		<path class="st2" d="M321.59,160.14h-40.91c-0.98,0-1.78,0.8-1.78,1.78v73.3c0,0.98,0.8,1.78,1.78,1.78h40.91    c0.98,0,1.78-0.8,1.78-1.78v-73.3C323.37,160.94,322.57,160.14,321.59,160.14z M319.81,233.44h-37.35v-69.75h37.35V233.44z"/>
		<path class="st2" d="M293.07,172.8h9.78c0.86,0,1.56-0.7,1.56-1.56s-0.7-1.56-1.56-1.56h-9.78c-0.86,0-1.56,0.7-1.56,1.56    S292.21,172.8,293.07,172.8z"/>
		<path class="st2" d="M307.71,171.84c0.04,0.09,0.09,0.18,0.14,0.27c0.06,0.08,0.13,0.16,0.2,0.24c0.07,0.07,0.15,0.13,0.23,0.19    c0.09,0.05,0.18,0.1,0.27,0.14c0.1,0.04,0.19,0.07,0.29,0.09c0.1,0.02,0.21,0.03,0.31,0.03c0.1,0,0.2-0.01,0.3-0.03    c0.1-0.02,0.2-0.05,0.29-0.09c0.1-0.04,0.19-0.09,0.27-0.14c0.09-0.06,0.17-0.12,0.24-0.19c0.07-0.08,0.14-0.16,0.19-0.24    c0.06-0.09,0.11-0.18,0.15-0.27c0.04-0.1,0.07-0.19,0.09-0.29c0.02-0.1,0.03-0.2,0.03-0.31c0-0.41-0.17-0.81-0.46-1.1    c-0.36-0.36-0.9-0.53-1.41-0.42c-0.1,0.02-0.19,0.05-0.29,0.09c-0.09,0.04-0.18,0.08-0.27,0.14c-0.08,0.06-0.16,0.12-0.23,0.19    c-0.29,0.29-0.46,0.69-0.46,1.1c0,0.11,0.01,0.21,0.03,0.31C307.64,171.65,307.67,171.74,307.71,171.84z"/>
		<path class="st2" d="M288.04,187.69h4.76c0.77,0,1.4-0.63,1.4-1.4v-4.76c0-0.77-0.63-1.4-1.4-1.4h-4.76c-0.77,0-1.4,0.63-1.4,1.4    v4.76C286.64,187.06,287.27,187.69,288.04,187.69z"/>
		<path class="st2" d="M298.76,180.12c-0.77,0-1.4,0.63-1.4,1.4v4.76c0,0.77,0.63,1.4,1.4,1.4h4.76c0.77,0,1.4-0.63,1.4-1.4v-4.76    c0-0.77-0.63-1.4-1.4-1.4H298.76z"/>
		<path class="st2" d="M308.07,181.53v4.76c0,0.77,0.63,1.4,1.4,1.4h4.76c0.77,0,1.4-0.63,1.4-1.4v-4.76c0-0.77-0.63-1.4-1.4-1.4    h-4.76C308.7,180.12,308.07,180.75,308.07,181.53z"/>
		<path class="st2" d="M288.04,198.05h4.76c0.77,0,1.4-0.63,1.4-1.4v-4.76c0-0.77-0.63-1.4-1.4-1.4h-4.76c-0.77,0-1.4,0.63-1.4,1.4    v4.76C286.64,197.42,287.27,198.05,288.04,198.05z"/>
		<path class="st2" d="M303.51,190.49h-4.76c-0.77,0-1.4,0.63-1.4,1.4v4.76c0,0.77,0.63,1.4,1.4,1.4h4.76c0.77,0,1.4-0.63,1.4-1.4    v-4.76C304.92,191.12,304.29,190.49,303.51,190.49z"/>
		<path class="st2" d="M314.23,190.49h-4.76c-0.77,0-1.4,0.63-1.4,1.4v4.76c0,0.77,0.63,1.4,1.4,1.4h4.76c0.77,0,1.4-0.63,1.4-1.4    v-4.76C315.63,191.12,315,190.49,314.23,190.49z"/>
		<path class="st2" d="M288.04,208.41h4.76c0.77,0,1.4-0.63,1.4-1.4v-4.76c0-0.77-0.63-1.4-1.4-1.4h-4.76c-0.77,0-1.4,0.63-1.4,1.4    v4.76C286.64,207.78,287.27,208.41,288.04,208.41z"/>
		<path class="st2" d="M303.51,200.85h-4.76c-0.77,0-1.4,0.63-1.4,1.4v4.76c0,0.77,0.63,1.4,1.4,1.4h4.76c0.77,0,1.4-0.63,1.4-1.4    v-4.76C304.92,201.48,304.29,200.85,303.51,200.85z"/>
		<path class="st2" d="M288.04,227.64h4.76c0.77,0,1.4-0.63,1.4-1.4v-4.76c0-0.77-0.63-1.4-1.4-1.4h-4.76c-0.77,0-1.4,0.63-1.4,1.4    v4.76C286.64,227.01,287.27,227.64,288.04,227.64z"/>
		<path class="st2" d="M303.51,220.08h-4.76c-0.77,0-1.4,0.63-1.4,1.4v4.76c0,0.77,0.63,1.4,1.4,1.4h4.76c0.77,0,1.4-0.63,1.4-1.4    v-4.76C304.92,220.71,304.29,220.08,303.51,220.08z"/>
		<path class="st2" d="M314.23,220.08h-4.76c-0.77,0-1.4,0.63-1.4,1.4v4.76c0,0.77,0.63,1.4,1.4,1.4h4.76c0.77,0,1.4-0.63,1.4-1.4    v-4.76C315.63,220.71,315,220.08,314.23,220.08z"/>
		<path class="st2" d="M315.14,57.42v-14c0-1.89-1.54-3.43-3.43-3.43h-7.35V29.51c0-0.83-0.67-1.5-1.5-1.5s-1.5,0.67-1.5,1.5v10.48    h-39.04c-1.89,0-3.43,1.54-3.43,3.43v14c0,1.89,1.54,3.43,3.43,3.43h49.39C313.6,60.85,315.14,59.31,315.14,57.42z M261.89,57.42    v-14c0-0.24,0.19-0.43,0.43-0.43h49.39c0.24,0,0.43,0.19,0.43,0.43v14c0,0.24-0.19,0.43-0.43,0.43h-49.39    C262.08,57.85,261.89,57.66,261.89,57.42z"/>
		<path class="st2" d="M286.46,47.67c-1.42,0-2.57,1.15-2.57,2.57s1.15,2.57,2.57,2.57s2.57-1.15,2.57-2.57    S287.88,47.67,286.46,47.67z"/>
		<path class="st2" d="M294.66,47.67c-1.42,0-2.57,1.15-2.57,2.57s1.15,2.57,2.57,2.57c1.42,0,2.57-1.15,2.57-2.57    S296.08,47.67,294.66,47.67z"/>
		<path class="st2" d="M302.86,47.67c-1.42,0-2.57,1.15-2.57,2.57s1.15,2.57,2.57,2.57s2.57-1.15,2.57-2.57    S304.28,47.67,302.86,47.67z"/>
		<path class="st2" d="M302.74,15.93c-3.41,0-6.6,1.48-8.99,4.18c-0.55,0.62-0.49,1.57,0.13,2.12c0.62,0.55,1.57,0.49,2.12-0.13    c1.81-2.04,4.21-3.17,6.74-3.17c2.65,0,5.11,1.21,6.94,3.4c0.3,0.36,0.72,0.54,1.15,0.54c0.34,0,0.68-0.11,0.96-0.35    c0.64-0.53,0.72-1.48,0.19-2.11C309.61,17.56,306.24,15.93,302.74,15.93z"/>
		<path class="st2" d="M292.45,16.25c2.79-3.03,6.45-4.7,10.31-4.7c3.95,0,7.67,1.74,10.49,4.9c0.3,0.33,0.71,0.5,1.12,0.5    c0.35,0,0.71-0.12,1-0.38c0.62-0.55,0.67-1.5,0.12-2.12c-3.39-3.81-7.91-5.9-12.73-5.9c-4.71,0-9.15,2.01-12.52,5.67    c-0.56,0.61-0.52,1.56,0.09,2.12S291.89,16.86,292.45,16.25z"/>
	</g>
	<g>
		<path class="st9" d="M263.92,75.42h-0.62l-1.45-4.57h-0.02l-1.45,4.57h-0.62l-1.7-5.6h0.69l1.3,4.61h0.02l1.44-4.61h0.64    l1.45,4.61h0.02l1.3-4.61h0.7L263.92,75.42z"/>
		<path class="st9" d="M266.83,70.86h-0.73V69.9h0.73V70.86z M266.19,71.72h0.58v3.7h-0.58V71.72z"/>
		<path class="st9" d="M268.49,70.4v1.82h2.35v0.58h-2.35v2.62h-0.62v-5.6h3.18v0.58H268.49z"/>
		<path class="st9" d="M272.38,70.86h-0.73V69.9h0.73V70.86z M271.73,71.72h0.58v3.7h-0.58V71.72z"/>
		<path class="st9" d="M278.96,73.92h-2.63l-0.59,1.5h-0.67l2.29-5.6h0.58l2.28,5.6h-0.66L278.96,73.92z M278.74,73.35l-1.09-2.75    l-1.1,2.75H278.74z"/>
		<path class="st9" d="M281.4,75.29c-0.3-0.17-0.54-0.4-0.71-0.69c-0.17-0.3-0.26-0.64-0.26-1.03c0-0.39,0.08-0.73,0.26-1.03    s0.41-0.53,0.71-0.69c0.3-0.17,0.65-0.25,1.04-0.25c0.44,0,0.86,0.12,1.26,0.37l-0.28,0.5c-0.34-0.2-0.67-0.3-1-0.3    c-0.27,0-0.51,0.06-0.72,0.19c-0.21,0.13-0.37,0.29-0.49,0.51c-0.12,0.21-0.17,0.45-0.17,0.71c0,0.26,0.06,0.5,0.17,0.71    c0.11,0.21,0.28,0.38,0.49,0.51c0.21,0.13,0.45,0.19,0.72,0.19c0.33,0,0.66-0.1,1-0.3l0.28,0.5c-0.4,0.25-0.82,0.37-1.26,0.37    C282.05,75.54,281.7,75.45,281.4,75.29z"/>
		<path class="st9" d="M284.89,75.29c-0.3-0.17-0.54-0.4-0.71-0.69c-0.17-0.3-0.26-0.64-0.26-1.03c0-0.39,0.08-0.73,0.26-1.03    s0.41-0.53,0.71-0.69c0.3-0.17,0.65-0.25,1.04-0.25c0.44,0,0.86,0.12,1.26,0.37l-0.28,0.5c-0.34-0.2-0.67-0.3-1-0.3    c-0.27,0-0.51,0.06-0.72,0.19c-0.21,0.13-0.37,0.29-0.49,0.51c-0.12,0.21-0.17,0.45-0.17,0.71c0,0.26,0.06,0.5,0.17,0.71    c0.11,0.21,0.28,0.38,0.49,0.51c0.21,0.13,0.45,0.19,0.72,0.19c0.33,0,0.66-0.1,1-0.3l0.28,0.5c-0.4,0.25-0.82,0.37-1.26,0.37    C285.54,75.54,285.2,75.45,284.89,75.29z"/>
		<path class="st9" d="M290.62,72.14c0.3,0.36,0.45,0.83,0.45,1.4v0.1H288c0.01,0.41,0.13,0.73,0.38,0.97    c0.25,0.24,0.56,0.36,0.95,0.36c0.3,0,0.55-0.07,0.74-0.2c0.19-0.13,0.37-0.3,0.52-0.51l0.42,0.38c-0.18,0.25-0.4,0.46-0.66,0.63    c-0.26,0.17-0.6,0.26-1.01,0.26c-0.38,0-0.72-0.08-1.01-0.24s-0.51-0.39-0.67-0.69s-0.24-0.64-0.24-1.03    c0-0.39,0.08-0.73,0.24-1.03c0.16-0.3,0.38-0.53,0.66-0.7c0.28-0.17,0.61-0.25,0.98-0.25C289.88,71.6,290.32,71.78,290.62,72.14z     M288.43,72.42c-0.23,0.19-0.36,0.45-0.4,0.79h2.42c-0.03-0.34-0.14-0.61-0.35-0.79s-0.48-0.28-0.84-0.28    C288.94,72.14,288.66,72.23,288.43,72.42z"/>
		<path class="st9" d="M292.14,75.42c-0.26-0.08-0.5-0.18-0.72-0.32l0.28-0.51c0.41,0.27,0.83,0.4,1.27,0.4    c0.25,0,0.43-0.04,0.55-0.13c0.12-0.09,0.18-0.21,0.18-0.36c0-0.12-0.04-0.22-0.12-0.3c-0.08-0.09-0.21-0.17-0.38-0.25l-0.69-0.33    c-0.53-0.25-0.8-0.59-0.8-1.03c0-0.32,0.11-0.56,0.34-0.74c0.23-0.17,0.54-0.26,0.93-0.26c0.41,0,0.83,0.1,1.25,0.29l-0.25,0.51    c-0.36-0.17-0.7-0.26-1.02-0.26c-0.21,0-0.37,0.04-0.48,0.11c-0.11,0.07-0.16,0.18-0.16,0.32c0,0.12,0.04,0.22,0.12,0.3    c0.08,0.09,0.22,0.17,0.4,0.26l0.67,0.31c0.26,0.12,0.45,0.26,0.59,0.42c0.14,0.16,0.2,0.37,0.2,0.62c0,0.35-0.12,0.61-0.37,0.79    s-0.58,0.27-1.01,0.27C292.67,75.54,292.4,75.5,292.14,75.42z"/>
		<path class="st9" d="M295.38,75.42c-0.26-0.08-0.5-0.18-0.72-0.32l0.28-0.51c0.41,0.27,0.83,0.4,1.27,0.4    c0.25,0,0.43-0.04,0.55-0.13c0.12-0.09,0.18-0.21,0.18-0.36c0-0.12-0.04-0.22-0.12-0.3c-0.08-0.09-0.21-0.17-0.38-0.25l-0.69-0.33    c-0.53-0.25-0.8-0.59-0.8-1.03c0-0.32,0.11-0.56,0.34-0.74c0.23-0.17,0.54-0.26,0.93-0.26c0.41,0,0.83,0.1,1.25,0.29l-0.25,0.51    c-0.36-0.17-0.7-0.26-1.02-0.26c-0.21,0-0.37,0.04-0.48,0.11c-0.11,0.07-0.16,0.18-0.16,0.32c0,0.12,0.04,0.22,0.12,0.3    c0.08,0.09,0.22,0.17,0.4,0.26l0.67,0.31c0.26,0.12,0.45,0.26,0.59,0.42c0.14,0.16,0.2,0.37,0.2,0.62c0,0.35-0.12,0.61-0.37,0.79    s-0.58,0.27-1.01,0.27C295.92,75.54,295.65,75.5,295.38,75.42z"/>
		<path class="st9" d="M303.53,70.03c0.26,0.14,0.45,0.34,0.58,0.59c0.13,0.25,0.2,0.54,0.2,0.86c0,0.31-0.07,0.6-0.2,0.84    s-0.33,0.44-0.58,0.59c-0.25,0.14-0.55,0.22-0.9,0.22h-1.27v2.3h-0.62v-5.6h1.89C302.97,69.82,303.28,69.89,303.53,70.03z     M303.36,72.26c0.2-0.18,0.3-0.45,0.3-0.79c0-0.35-0.1-0.61-0.3-0.8c-0.2-0.18-0.46-0.28-0.79-0.28h-1.21v2.14h1.21    C302.89,72.54,303.16,72.44,303.36,72.26z"/>
		<path class="st9" d="M307.42,71.85c0.3,0.17,0.54,0.4,0.71,0.7c0.17,0.3,0.26,0.64,0.26,1.02c0,0.38-0.08,0.72-0.26,1.02    s-0.41,0.53-0.71,0.7s-0.65,0.25-1.03,0.25c-0.38,0-0.72-0.08-1.02-0.25s-0.54-0.4-0.72-0.7c-0.17-0.3-0.26-0.64-0.26-1.01    c0-0.37,0.09-0.71,0.26-1.01c0.17-0.3,0.41-0.54,0.72-0.7s0.65-0.25,1.02-0.25C306.77,71.6,307.12,71.68,307.42,71.85z     M305.67,72.34c-0.21,0.11-0.38,0.28-0.5,0.49S305,73.29,305,73.57s0.06,0.52,0.18,0.74s0.29,0.38,0.5,0.49s0.45,0.17,0.72,0.17    s0.51-0.06,0.72-0.17c0.21-0.11,0.38-0.28,0.5-0.49c0.12-0.21,0.18-0.46,0.18-0.74s-0.06-0.52-0.18-0.74    c-0.12-0.21-0.29-0.38-0.5-0.49c-0.21-0.11-0.45-0.17-0.72-0.17S305.88,72.22,305.67,72.34z"/>
		<path class="st9" d="M309.81,70.86h-0.73V69.9h0.73V70.86z M309.16,71.72h0.58v3.7h-0.58V71.72z"/>
		<path class="st9" d="M313.72,71.98c0.25,0.26,0.38,0.65,0.38,1.18v2.25h-0.58v-2.17c0-0.36-0.09-0.63-0.26-0.81    c-0.18-0.18-0.42-0.26-0.73-0.26c-0.35,0-0.64,0.12-0.86,0.36s-0.33,0.63-0.33,1.17v1.7h-0.58v-3.7h0.58v0.71h0.02    c0.12-0.27,0.29-0.48,0.52-0.62c0.22-0.14,0.49-0.21,0.8-0.21C313.12,71.6,313.47,71.73,313.72,71.98z"/>
		<path class="st9" d="M315.79,72.22v2.18c0,0.33,0.16,0.49,0.46,0.49h0.2v0.54h-0.3c-0.29,0-0.52-0.08-0.69-0.23    c-0.17-0.15-0.25-0.38-0.25-0.68v-2.3h-0.71v-0.5h0.71v-1.48h0.58v1.48h0.82v0.5H315.79z"/>
	</g>
</g>
<g id="grid_and_guides" class="st25">
	<circle class="st26" cx="191.87" cy="125.24" r="4.97"/>
	<circle class="st26" cx="255.75" cy="79.1" r="4.97"/>
	<circle class="st26" cx="301.14" cy="80.38" r="4.97"/>
	<circle class="st26" cx="301.32" cy="155.35" r="4.97"/>
	<circle class="st26" cx="273.23" cy="235.49" r="4.97"/>
	<circle class="st26" cx="95.61" cy="236.7" r="4.97"/>
</g>
<g id="Layer_3" class="st25">
</g>
</svg>