<?xml version="1.0" encoding="UTF-8"?>
<svg width="96px" height="33px" viewBox="0 0 382 132" version="1.1" xmlns="http://www.w3.org/2000/svg" xmlns:xlink="http://www.w3.org/1999/xlink">
    <!-- Generator: Sketch 59.1 (86144) - https://sketch.com -->
    <title>Zigbee-Alliance-logo-black</title>
    <desc>Created with Sketch.</desc>
    <defs>
        <polygon id="path-1" points="0 132 381.845 132 381.845 0.22 0 0.22"></polygon>
    </defs>
    <g id="💎-Symbols" stroke="none" stroke-width="1" fill="none" fill-rule="evenodd">
        <g id="Zigbee-Alliance-logo-black" transform="translate(0.000000, -1.000000)">
            <g>
                <polygon id="Fill-1" fill="#020617" points="1.4202 17.5341 1.4202 26.7981 18.9752 26.7981 0.0002 48.3881 0.0002 57.6511 34.9632 57.6511 34.9632 48.3131 14.3432 48.3131 33.8422 26.2751 33.8422 17.5341"></polygon>
                <polygon id="Fill-2" fill="#020617" points="39.894 57.651 51.289 57.651 51.289 17.534 39.894 17.534"></polygon>
                <g id="Group-23" transform="translate(0.000000, 0.780000)">
                    <path d="M52.2411,6.8702 C52.2411,10.5432 49.2631,13.5202 45.5911,13.5202 C41.9181,13.5202 38.9411,10.5432 38.9411,6.8702 C38.9411,3.1982 41.9181,0.2202 45.5911,0.2202 C49.2631,0.2202 52.2411,3.1982 52.2411,6.8702" id="Fill-3" fill="#020617"></path>
                    <path d="M125.3095,47.9625 C119.4435,47.9625 115.4345,42.9245 115.4345,36.3905 C115.4345,30.0045 119.4435,25.1895 125.3095,25.1895 C131.1755,25.1895 135.2595,29.9295 135.2595,36.3905 C135.2595,42.9985 131.1755,47.9625 125.3095,47.9625 M140.5935,21.7065 C136.9555,17.8945 132.6955,15.9885 127.8135,15.9885 C122.9295,15.9885 118.9445,17.7085 115.8555,21.1455 L115.8555,3.2475 L104.6445,3.2475 L104.6445,56.8715 L115.8555,56.8715 L115.8555,51.5635 C118.9945,55.4995 122.9425,57.4665 127.7015,57.4665 C132.4585,57.4665 136.7065,55.4495 140.4435,51.4135 C144.1805,47.3785 146.0485,42.3705 146.0485,36.3925 C146.0485,30.4125 144.2295,25.5175 140.5935,21.7065" id="Fill-5" fill="#020617"></path>
                    <path d="M167.5717,26.1324 C172.6837,24.3404 177.5747,26.1474 180.2517,30.3514 L160.3207,36.7444 C160.0467,32.0584 162.6677,27.8514 167.5717,26.1324 M169.8827,48.1404 C167.1407,47.9214 165.1437,46.8354 163.1637,44.5434 L191.2337,35.6104 C191.1957,35.6424 191.1807,28.8774 186.9307,23.5064 C183.3367,18.9634 178.5297,16.5604 172.4497,16.0734 C166.3677,15.5874 161.5417,17.1924 156.8177,20.8544 C152.3237,24.3384 150.0747,29.2694 149.6107,35.0764 C149.1447,40.8844 150.7637,45.9344 154.4667,50.2274 C158.1697,54.5214 163.0597,56.9094 169.1417,57.3964 C179.6967,58.2414 186.8537,51.2254 187.6577,50.2524 L181.1527,43.3894 C180.6747,44.1724 176.0887,48.6374 169.8827,48.1404" id="Fill-7" fill="#020617"></path>
                    <path d="M212.5902,26.1324 C217.7022,24.3404 222.5942,26.1474 225.2712,30.3514 L205.3392,36.7444 C205.0662,32.0584 207.6862,27.8514 212.5902,26.1324 M214.9022,48.1404 C212.1602,47.9214 210.1622,46.8354 208.1822,44.5434 L236.2532,35.6104 C236.2142,35.6424 236.1992,28.8774 231.9492,23.5064 C228.3562,18.9634 223.5482,16.5604 217.4682,16.0734 C211.3872,15.5874 206.5612,17.1924 201.8372,20.8544 C197.3422,24.3384 195.0942,29.2694 194.6292,35.0764 C194.1642,40.8844 195.7822,45.9344 199.4862,50.2274 C203.1882,54.5214 208.0782,56.9094 214.1602,57.3964 C224.7162,58.2414 231.8732,51.2254 232.6762,50.2524 L226.1712,43.3894 C225.6942,44.1724 221.1072,48.6374 214.9022,48.1404" id="Fill-9" fill="#020617"></path>
                    <path d="M77.2621,48.065 C71.3961,48.065 67.3871,43.027 67.3871,36.493 C67.3871,30.107 71.3961,25.292 77.2621,25.292 C83.1281,25.292 87.2121,30.032 87.2121,36.493 C87.2121,43.101 83.1281,48.065 77.2621,48.065 M87.6141,51.331 L87.6141,52.714 C87.5921,57.199 86.5941,62.609 82.0981,65.44 C72.5661,71.441 62.6141,61.136 62.6141,61.136 L55.4281,68.585 C55.4281,68.585 62.4001,77.46 75.8481,77.46 C81.6821,77.46 86.7411,75.794 90.6911,72.325 C95.4251,68.168 98.4991,61.219 98.4991,50.287 L98.4991,16.754 L87.2121,16.754 L87.2121,23.041 C84.5561,19.031 79.9531,15.989 74.5321,15.989 C63.3201,15.989 55.7181,24.537 55.7181,36.864 C55.7181,48.968 63.0321,57.569 74.2441,57.569 C79.8141,57.569 84.1161,55.342 87.6141,51.331" id="Fill-11" fill="#020617"></path>
                    <mask id="mask-2" fill="white">
                        <use xlink:href="#path-1"></use>
                    </mask>
                    <g id="Clip-14"></g>
                    <polygon id="Fill-13" fill="#020617" mask="url(#mask-2)" points="192.557 131.403 203.952 131.403 203.952 91.287 192.557 91.287"></polygon>
                    <path d="M204.9047,81.4034 C204.9047,85.0764 201.9267,88.0524 198.2547,88.0524 C194.5817,88.0524 191.6037,85.0764 191.6037,81.4034 C191.6037,77.7304 194.5817,74.7534 198.2547,74.7534 C201.9267,74.7534 204.9047,77.7304 204.9047,81.4034" id="Fill-15" fill="#020617" mask="url(#mask-2)"></path>
                    <path d="M268.4525,108.9825 L268.4525,131.4035 L257.2425,131.4035 L257.2425,91.2875 L268.4525,91.2875 L268.4525,95.6795 C271.8405,92.2425 275.6515,90.5235 279.8875,90.5235 C284.1215,90.5235 287.6715,92.0175 290.5375,95.0075 C293.4015,97.9975 294.8345,101.9835 294.8345,106.9645 L294.8345,131.4035 L283.6245,131.4035 L283.6245,108.6835 C283.6245,102.5065 281.3555,99.4175 276.8235,99.4175 C274.5805,99.4175 272.6255,100.2275 270.9565,101.8455 C269.2865,103.4655 268.4525,105.8435 268.4525,108.9825" id="Fill-16" fill="#020617" mask="url(#mask-2)"></path>
                    <path d="M358.183,100.6651 C363.295,98.8731 368.186,100.6801 370.864,104.8841 L350.932,111.2771 C350.658,106.5911 353.279,102.3851 358.183,100.6651 M360.494,122.6731 C357.752,122.4541 355.755,121.3681 353.775,119.0761 L381.845,110.1431 C381.807,110.1761 381.792,103.4101 377.542,98.0391 C373.948,93.4961 369.141,91.0941 363.061,90.6061 C356.979,90.1201 352.153,91.7261 347.429,95.3881 C342.935,98.8711 340.686,103.8021 340.221,109.6091 C339.756,115.4171 341.374,120.4681 345.079,124.7601 C348.781,129.0541 353.671,131.4421 359.753,131.9301 C370.309,132.7741 377.465,125.7581 378.269,124.7851 L371.763,117.9221 C371.286,118.7051 366.7,123.1701 360.494,122.6731" id="Fill-17" fill="#020617" mask="url(#mask-2)"></path>
                    <path d="M229.2231,122.502 C223.3571,122.502 219.3471,117.465 219.3471,110.93 C219.3471,104.544 223.3571,99.729 229.2231,99.729 C235.0881,99.729 239.1721,104.47 239.1721,110.93 C239.1721,117.538 235.0881,122.502 229.2231,122.502 L229.2231,122.502 Z M238.6771,91.287 L238.6771,94.558 C235.6881,91.867 232.1741,90.522 228.1391,90.522 C222.9561,90.522 218.3981,92.391 214.4621,96.127 C210.5261,99.863 208.5581,104.859 208.5581,111.111 C208.5581,117.365 210.4761,122.409 214.3131,126.246 C218.1491,130.083 222.6331,132 227.7651,132 C231.8501,132 235.4881,130.705 238.6771,128.114 L238.6771,131.403 L249.9611,131.403 L249.9611,91.287 L238.6771,91.287 Z" id="Fill-18" fill="#020617" mask="url(#mask-2)"></path>
                    <polygon id="Fill-19" fill="#020617" mask="url(#mask-2)" points="152.956 131.403 165.021 131.403 165.021 77.78 152.956 77.78"></polygon>
                    <polygon id="Fill-20" fill="#020617" mask="url(#mask-2)" points="172.536 131.403 184.601 131.403 184.601 77.78 172.536 77.78"></polygon>
                    <path d="M322.0277,122.0606 C325.7637,122.0606 329.1277,120.1926 332.1167,116.4556 L338.7677,123.9286 C333.5857,129.3096 327.9807,131.9996 321.9527,131.9996 C315.9237,131.9996 310.8287,130.0946 306.6697,126.2836 C302.5077,122.4716 300.4287,117.4896 300.4287,111.3356 C300.4287,105.1826 302.5337,100.1756 306.7437,96.3146 C310.9537,92.4536 315.9477,90.5216 321.7277,90.5216 C324.6177,90.5216 327.5447,91.1196 330.5097,92.3156 C333.4737,93.5116 336.0777,95.2806 338.3197,97.6226 L332.4907,105.2456 C331.1937,103.7016 329.6137,102.5046 327.7447,101.6576 C325.8767,100.8106 324.0187,100.3866 322.1767,100.3866 C319.2367,100.3866 316.7087,101.3466 314.5907,103.2646 C312.4727,105.1826 311.4157,107.8486 311.4157,111.2606 C311.4157,114.6736 312.4727,117.3276 314.5907,119.2196 C316.7087,121.1146 319.1867,122.0606 322.0277,122.0606" id="Fill-21" fill="#020617" mask="url(#mask-2)"></path>
                    <path d="M124.7035,122.502 C118.8375,122.502 114.8285,117.465 114.8285,110.93 C114.8285,104.544 118.8375,99.729 124.7035,99.729 C130.5695,99.729 134.6535,104.47 134.6535,110.93 C134.6535,117.538 130.5695,122.502 124.7035,122.502 L124.7035,122.502 Z M134.1575,91.287 L134.1575,94.558 C131.1675,91.867 127.6555,90.522 123.6195,90.522 C118.4365,90.522 113.8785,92.391 109.9435,96.127 C106.0065,99.863 104.0385,104.859 104.0385,111.111 C104.0385,117.365 105.9555,122.409 109.7935,126.246 C113.6295,130.083 118.1135,132 123.2455,132 C127.3305,132 130.9685,130.705 134.1575,128.114 L134.1575,131.403 L145.4425,131.403 L145.4425,91.287 L134.1575,91.287 Z" id="Fill-22" fill="#020617" mask="url(#mask-2)"></path>
                </g>
            </g>
        </g>
    </g>
</svg>
