<svg xmlns="http://www.w3.org/2000/svg" xmlns:xlink="http://www.w3.org/1999/xlink" xmlns:lucid="lucid" width="1471" height="1331"><g transform="translate(-9 0)" lucid:page-tab-id="0_0"><path d="M0 0h1870.4v1323.2H0z" fill="#fff"/><path d="M1160 280h300v400h-300z" stroke="#000" stroke-width="2" fill="#fff"/><use xlink:href="#a" transform="matrix(1,0,0,1,1165,285) translate(0 14.4)"/><path d="M300 20h160v120H300z" stroke="#000" stroke-width="2" fill="#ccc"/><use xlink:href="#b" transform="matrix(1,0,0,1,300,20) translate(58.555 63.15)"/><path d="M640 20h160v120H640z" stroke="#000" stroke-width="2" fill="#ccc"/><use xlink:href="#c" transform="matrix(1,0,0,1,640,20) translate(46.55499999999999 63.15)"/><path d="M980 20h160v120H980z" stroke="#000" stroke-width="2" fill="#ccc"/><use xlink:href="#d" transform="matrix(1,0,0,1,980,20) translate(60.529999999999994 63.15)"/><path d="M380 142v1177" stroke="#000" stroke-width="2" fill="none"/><path d="M381 142.03h-2V141h2z"/><path d="M380 1318.97v1.03M720 142v1177" stroke="#000" stroke-width="2" fill="none"/><path d="M721 142.03h-2V141h2z"/><path d="M720 1318.97v1.03M1060 142v1177" stroke="#000" stroke-width="2" fill="none"/><path d="M1061 142.03h-2V141h2z"/><path d="M1060 1318.97v1.03" stroke="#000" stroke-width="2" fill="none"/><path d="M360 180h40v40h-40z" stroke="#000" stroke-width="2" fill="#fff"/><path d="M21 200h319.5M21.03 200H20" stroke="#000" stroke-width="2" fill="none"/><path d="M355.76 200l-14.26 4.64v-9.28z" stroke="#000" stroke-width="2"/><use xlink:href="#e" transform="matrix(1,0,0,1,55.650000000000006,174.39999999999998) translate(0 14.4)"/><use xlink:href="#f" transform="matrix(1,0,0,1,55.650000000000006,174.39999999999998) translate(77.9 14.4)"/><use xlink:href="#g" transform="matrix(1,0,0,1,55.650000000000006,174.39999999999998) translate(106.9 14.4)"/><use xlink:href="#h" transform="matrix(1,0,0,1,55.650000000000006,174.39999999999998) translate(194.75 14.4)"/><path d="M360 260h40v40h-40z" stroke="#000" stroke-width="2" fill="#fff"/><path d="M402 200h39v82h-21.5" stroke="#000" stroke-width="2" fill="none"/><path d="M402.03 201H401v-2h1.03z"/><path d="M404.24 282l14.26-4.64v9.28z" stroke="#000" stroke-width="2"/><use xlink:href="#i" transform="matrix(1,0,0,1,448.99999999999994,208.6) translate(0 14.4)"/><use xlink:href="#j" transform="matrix(1,0,0,1,448.99999999999994,208.6) translate(28.95 14.4)"/><use xlink:href="#k" transform="matrix(1,0,0,1,448.99999999999994,208.6) translate(0 36)"/><use xlink:href="#l" transform="matrix(1,0,0,1,448.99999999999994,208.6) translate(96.9 36)"/><use xlink:href="#m" transform="matrix(1,0,0,1,448.99999999999994,208.6) translate(0 57.6)"/><use xlink:href="#n" transform="matrix(1,0,0,1,448.99999999999994,208.6) translate(41 57.6)"/><path d="M360 320h40v40h-40z" stroke="#000" stroke-width="2" fill="#fff"/><path d="M700 320h40v40h-40z" stroke="#000" stroke-width="2" fill="#5abaa7"/><path d="M402 340h278.5" stroke="#000" stroke-width="2" fill="none"/><path d="M402.03 341H401v-2h1.03z"/><path d="M695.76 340l-14.26 4.64v-9.28z" stroke="#000" stroke-width="2"/><use xlink:href="#o" transform="matrix(1,0,0,1,456.625,314.4) translate(0 14.4)"/><path d="M402 340h278.5M402.03 340H401" stroke="#000" stroke-width="2" fill="none"/><path d="M695.76 340l-14.26 4.64v-9.28z" stroke="#000" stroke-width="2"/><use xlink:href="#o" transform="matrix(1,0,0,1,456.625,314.4) translate(0 14.4)"/><path d="M700 380h40v40h-40z" stroke="#000" stroke-width="2" fill="#ffdba9"/><path d="M759.5 340.67H781V400h-21.5" stroke="#000" stroke-width="2" fill="none"/><path d="M744.24 340.67l14.26-4.64v9.27zM744.24 400l14.26-4.64v9.28z" stroke="#000" stroke-width="2"/><use xlink:href="#p" transform="matrix(1,0,0,1,789,337.9333333333334) translate(0 14.4)"/><use xlink:href="#q" transform="matrix(1,0,0,1,789,337.9333333333334) translate(34 14.4)"/><use xlink:href="#r" transform="matrix(1,0,0,1,789,337.9333333333334) translate(98.95 14.4)"/><use xlink:href="#s" transform="matrix(1,0,0,1,789,337.9333333333334) translate(141.95 14.4)"/><use xlink:href="#t" transform="matrix(1,0,0,1,789,337.9333333333334) translate(0 36)"/><use xlink:href="#u" transform="matrix(1,0,0,1,789,337.9333333333334) translate(83.9 36)"/><use xlink:href="#v" transform="matrix(1,0,0,1,789,337.9333333333334) translate(148.8 36)"/><use xlink:href="#w" transform="matrix(1,0,0,1,789,337.9333333333334) translate(174.75 36)"/><use xlink:href="#x" transform="matrix(1,0,0,1,789,337.9333333333334) translate(0 57.6)"/><path d="M700 740h40v40h-40z" stroke="#000" stroke-width="2" fill="#c7e8ac"/><path d="M759.5 703.33H781V760h-21.5" stroke="#000" stroke-width="2" fill="none"/><path d="M744.24 703.33l14.26-4.63v9.27zM744.24 760l14.26-4.64v9.28z" stroke="#000" stroke-width="2"/><use xlink:href="#y" transform="matrix(1,0,0,1,788.9999999999998,699.2666666666668) translate(0 14.4)"/><use xlink:href="#z" transform="matrix(1,0,0,1,788.9999999999998,699.2666666666668) translate(75.95 14.4)"/><use xlink:href="#A" transform="matrix(1,0,0,1,788.9999999999998,699.2666666666668) translate(147.9 14.4)"/><use xlink:href="#B" transform="matrix(1,0,0,1,788.9999999999998,699.2666666666668) translate(0 36)"/><use xlink:href="#C" transform="matrix(1,0,0,1,788.9999999999998,699.2666666666668) translate(47.95 36)"/><use xlink:href="#D" transform="matrix(1,0,0,1,788.9999999999998,699.2666666666668) translate(143.8 36)"/><use xlink:href="#E" transform="matrix(1,0,0,1,788.9999999999998,699.2666666666668) translate(0 57.6)"/><path d="M700 840h40v40h-40z" stroke="#000" stroke-width="2" fill="#d1bcd2"/><path d="M759.5 811.33H781V860h-21.5" stroke="#000" stroke-width="2" fill="none"/><path d="M744.24 811.33l14.26-4.63v9.27zM744.24 860l14.26-4.64v9.28z" stroke="#000" stroke-width="2"/><use xlink:href="#F" transform="matrix(1,0,0,1,789,824.8666666666668) translate(0 14.4)"/><path d="M700 440h40v40h-40z" stroke="#000" stroke-width="2" fill="#ffdba9"/><path d="M1040 440h40v40h-40z" stroke="#000" stroke-width="2" fill="#f5b5c8"/><path d="M759.5 460h9.67m9.66 0h19.34m9.66 0h19.34m9.66 0h19.34m9.66 0h19.34m9.66 0h19.34m9.66 0h19.34m9.66 0h19.34m9.66 0h19.34m9.66 0h9.67" stroke="#000" stroke-width="2" fill="none"/><path d="M744.24 460l14.26-4.64v9.28zM1035.76 460l-14.26 4.64v-9.28z" stroke="#000" stroke-width="2"/><use xlink:href="#G" transform="matrix(1,0,0,1,810.6,434.4) translate(0 14.4)"/><path d="M700 900h40v40h-40z" stroke="#000" stroke-width="2" fill="#ffdba9"/><path d="M680.5 860H650v59.33h30.5" stroke="#000" stroke-width="2" fill="none"/><path d="M695.76 860l-14.26 4.64v-9.28zM695.76 919.33l-14.26 4.64v-9.27z" stroke="#000" stroke-width="2"/><use xlink:href="#H" transform="matrix(1,0,0,1,493.20000000000005,868.0666666666667) translate(0 14.4)"/><use xlink:href="#I" transform="matrix(1,0,0,1,493.20000000000005,868.0666666666667) translate(62.95 14.4)"/><use xlink:href="#J" transform="matrix(1,0,0,1,493.20000000000005,868.0666666666667) translate(134.85000000000002 14.4)"/><use xlink:href="#x" transform="matrix(1,0,0,1,493.20000000000005,868.0666666666667) translate(0 36)"/><path d="M700 960h40v40h-40z" stroke="#000" stroke-width="2" fill="#ffdba9"/><path d="M1040 960h40v40h-40z" stroke="#000" stroke-width="2" fill="#f5b5c8"/><path d="M759.5 980h9.67m9.66 0h19.34m9.66 0h19.34m9.66 0h19.34m9.66 0h19.34m9.66 0h19.34m9.66 0h19.34m9.66 0h19.34m9.66 0h19.34m9.66 0h9.67" stroke="#000" stroke-width="2" fill="none"/><path d="M744.24 980l14.26-4.64v9.28zM1035.76 980l-14.26 4.64v-9.28z" stroke="#000" stroke-width="2"/><use xlink:href="#K" transform="matrix(1,0,0,1,828.575,954.4) translate(0 14.4)"/><path d="M700 1020h40v40h-40z" stroke="#000" stroke-width="2" fill="#ffdba9"/><path d="M360 1020h40v40h-40z" stroke="#000" stroke-width="2" fill="#fff"/><path d="M698 1040H419.5" stroke="#000" stroke-width="2" fill="none"/><path d="M699 1041h-1.03v-2H699z"/><path d="M404.24 1040l14.26-4.64v9.28z" stroke="#000" stroke-width="2"/><use xlink:href="#L" transform="matrix(1,0,0,1,432.65,1044.0000000000002) translate(0 14.4)"/><path d="M360 1100h40v40h-40z" stroke="#000" stroke-width="2" fill="#fff"/><path d="M358 1040h-48v82h30.5" stroke="#000" stroke-width="2" fill="none"/><path d="M359 1041h-1.03v-2H359z"/><path d="M355.76 1122l-14.26 4.64v-9.28z" stroke="#000" stroke-width="2"/><use xlink:href="#M" transform="matrix(1,0,0,1,192.79999999999998,1070.2) translate(0 14.4)"/><use xlink:href="#N" transform="matrix(1,0,0,1,192.79999999999998,1070.2) translate(41.25 14.4)"/><use xlink:href="#O" transform="matrix(1,0,0,1,192.79999999999998,1070.2) translate(85.2 14.4)"/><path d="M1180 370h40v40h-40z" stroke="#000" stroke-width="2" fill="#ffdba9"/><path d="M1220 360h240v60h-240z" stroke="#000" stroke-opacity="0" stroke-width="2" fill="#fff" fill-opacity="0"/><use xlink:href="#P" transform="matrix(1,0,0,1,1225,365) translate(0 30.025)"/><path d="M1180 420h40v40h-40z" stroke="#000" stroke-width="2" fill="#f5b5c8"/><path d="M1220 410h240v60h-240z" stroke="#000" stroke-opacity="0" stroke-width="2" fill="#fff" fill-opacity="0"/><use xlink:href="#G" transform="matrix(1,0,0,1,1225,415) translate(0 30.025)"/><path d="M1180 570h40v40h-40z" stroke="#000" stroke-width="2" fill="#c7e8ac"/><path d="M1220 560h240v60h-240z" stroke="#000" stroke-opacity="0" stroke-width="2" fill="#fff" fill-opacity="0"/><use xlink:href="#Q" transform="matrix(1,0,0,1,1225,565) translate(0 30.025)"/><path d="M1180 620h40v40h-40z" stroke="#000" stroke-width="2" fill="#d1bcd2"/><path d="M1220 610h240v60h-240z" stroke="#000" stroke-opacity="0" stroke-width="2" fill="#fff" fill-opacity="0"/><use xlink:href="#F" transform="matrix(1,0,0,1,1225,615) translate(0 30.025)"/><path d="M1180 320h40v40h-40z" stroke="#000" stroke-width="2" fill="#5abaa7"/><path d="M1220 310h240v60h-240z" stroke="#000" stroke-opacity="0" stroke-width="2" fill="#fff" fill-opacity="0"/><use xlink:href="#o" transform="matrix(1,0,0,1,1225,315) translate(0 30.025)"/><path d="M700 620h40v40h-40zM700 680h40v40h-40z" stroke="#000" stroke-width="2" fill="#5abaa7"/><path d="M680.5 640H659v62h21.5" stroke="#000" stroke-width="2" fill="none"/><path d="M695.76 640l-14.26 4.64v-9.28zM695.76 702l-14.26 4.64v-9.28z" stroke="#000" stroke-width="2"/><use xlink:href="#i" transform="matrix(1,0,0,1,481.3999999999999,638.6) translate(0 14.4)"/><use xlink:href="#R" transform="matrix(1,0,0,1,481.3999999999999,638.6) translate(28.95 14.4)"/><use xlink:href="#S" transform="matrix(1,0,0,1,481.3999999999999,638.6) translate(0 36)"/><use xlink:href="#T" transform="matrix(1,0,0,1,481.3999999999999,638.6) translate(0 57.6)"/><use xlink:href="#U" transform="matrix(1,0,0,1,481.3999999999999,638.6) translate(75.80000000000001 57.6)"/><path d="M700 790h40v40h-40zM700 1080h40v40h-40zM700 1140h40v40h-40z" stroke="#000" stroke-width="2" fill="#5abaa7"/><path d="M742 1100h39v58h-21.5" stroke="#000" stroke-width="2" fill="none"/><path d="M742.03 1101H741v-2h1.03z"/><path d="M744.24 1158l14.26-4.64v9.28z" stroke="#000" stroke-width="2"/><g><use xlink:href="#V" transform="matrix(1,0,0,1,789,1085.8) translate(0 14.4)"/><use xlink:href="#W" transform="matrix(1,0,0,1,789,1085.8) translate(55.95 14.4)"/><use xlink:href="#X" transform="matrix(1,0,0,1,789,1085.8) translate(0 36)"/><use xlink:href="#Y" transform="matrix(1,0,0,1,789,1085.8) translate(53 36)"/><use xlink:href="#Z" transform="matrix(1,0,0,1,789,1085.8) translate(66.95 36)"/><use xlink:href="#aa" transform="matrix(1,0,0,1,789,1085.8) translate(0 57.6)"/><use xlink:href="#ab" transform="matrix(1,0,0,1,789,1085.8) translate(66.9 57.6)"/><use xlink:href="#ac" transform="matrix(1,0,0,1,789,1085.8) translate(101.9 57.6)"/><use xlink:href="#ad" transform="matrix(1,0,0,1,789,1085.8) translate(0 79.20000000000002)"/></g><path d="M700 1200h40v40h-40z" stroke="#000" stroke-width="2" fill="#c7e8ac"/><path d="M680.5 1160H660v63.33h20.5" stroke="#000" stroke-width="2" fill="none"/><path d="M695.76 1160l-14.26 4.64v-9.28zM695.76 1223.33l-14.26 4.64v-9.27z" stroke="#000" stroke-width="2"/><g><use xlink:href="#y" transform="matrix(1,0,0,1,480.5,1148.4666666666665) translate(0 14.4)"/><use xlink:href="#ae" transform="matrix(1,0,0,1,480.5,1148.4666666666665) translate(75.95 14.4)"/><use xlink:href="#af" transform="matrix(1,0,0,1,480.5,1148.4666666666665) translate(0 36)"/><use xlink:href="#ag" transform="matrix(1,0,0,1,480.5,1148.4666666666665) translate(77.95 36)"/><use xlink:href="#ah" transform="matrix(1,0,0,1,480.5,1148.4666666666665) translate(128.55 36)"/><use xlink:href="#ai" transform="matrix(1,0,0,1,480.5,1148.4666666666665) translate(0 57.6)"/><use xlink:href="#D" transform="matrix(1,0,0,1,480.5,1148.4666666666665) translate(95.85000000000001 57.6)"/><use xlink:href="#aj" transform="matrix(1,0,0,1,480.5,1148.4666666666665) translate(0 79.20000000000002)"/></g><path d="M700 1260h40v40h-40z" stroke="#000" stroke-width="2" fill="#5abaa7"/><path d="M360 1260h40v40h-40z" stroke="#000" stroke-width="2" fill="#fff"/><path d="M698 1280H419.5" stroke="#000" stroke-width="2" fill="none"/><path d="M699 1281h-1.03v-2H699z"/><path d="M404.24 1280l14.26-4.64v9.28z" stroke="#000" stroke-width="2"/><g><use xlink:href="#ak" transform="matrix(1,0,0,1,467.75,1284) translate(0 14.4)"/><use xlink:href="#al" transform="matrix(1,0,0,1,467.75,1284) translate(47.55 14.4)"/><use xlink:href="#am" transform="matrix(1,0,0,1,467.75,1284) translate(125.5 14.4)"/></g><path d="M700 500h40v40h-40z" stroke="#000" stroke-width="2" fill="#ffdba9"/><path d="M1040 500h40v40h-40z" stroke="#000" stroke-width="2" fill="#ff8f80"/><path d="M759.5 520h9.67m9.66 0h19.34m9.66 0h19.34m9.66 0h19.34m9.66 0h19.34m9.66 0h19.34m9.66 0h19.34m9.66 0h19.34m9.66 0h19.34m9.66 0h9.67" stroke="#000" stroke-width="2" fill="none"/><path d="M744.24 520l14.26-4.64v9.28zM1035.76 520l-14.26 4.64v-9.28z" stroke="#000" stroke-width="2"/><g><use xlink:href="#an" transform="matrix(1,0,0,1,848.525,494.40000000000003) translate(0 14.4)"/></g><path d="M700 560h40v40h-40z" stroke="#000" stroke-width="2" fill="#ffdba9"/><path d="M1040 560h40v40h-40z" stroke="#000" stroke-width="2" fill="#de5f85"/><path d="M759.5 580h9.67m9.66 0h19.34m9.66 0h19.34m9.66 0h19.34m9.66 0h19.34m9.66 0h19.34m9.66 0h19.34m9.66 0h19.34m9.66 0h19.34m9.66 0h9.67" stroke="#000" stroke-width="2" fill="none"/><path d="M744.24 580l14.26-4.64v9.28zM1035.76 580l-14.26 4.64v-9.28z" stroke="#000" stroke-width="2"/><g><use xlink:href="#ao" transform="matrix(1,0,0,1,850.525,554.4) translate(0 14.4)"/></g><path d="M1180 470h40v40h-40z" stroke="#000" stroke-width="2" fill="#ff8f80"/><path d="M1220 460h240v60h-240z" stroke="#000" stroke-opacity="0" stroke-width="2" fill="#fff" fill-opacity="0"/><g><use xlink:href="#an" transform="matrix(1,0,0,1,1225,465) translate(0 30.025)"/></g><path d="M1180 520h40v40h-40z" stroke="#000" stroke-width="2" fill="#de5f85"/><path d="M1220 510h240v60h-240z" stroke="#000" stroke-opacity="0" stroke-width="2" fill="#fff" fill-opacity="0"/><g><use xlink:href="#ao" transform="matrix(1,0,0,1,1225,515) translate(0 30.025)"/></g><defs><path d="M194 0L95-120 63-95V0H30v-248h33v124l119-124h40L117-140 236 0h-42" id="ap"/><path d="M100-194c63 0 86 42 84 106H49c0 40 14 67 53 68 26 1 43-12 49-29l28 8c-11 28-37 45-77 45C44 4 14-33 15-96c1-61 26-98 85-98zm52 81c6-60-76-77-97-28-3 7-6 17-6 28h103" id="aq"/><path d="M179-190L93 31C79 59 56 82 12 73V49c39 6 53-20 64-50L1-190h34L92-34l54-156h33" id="ar"/><g id="a"><use transform="matrix(0.05,0,0,0.05,0,0)" xlink:href="#ap"/><use transform="matrix(0.05,0,0,0.05,12,0)" xlink:href="#aq"/><use transform="matrix(0.05,0,0,0.05,22,0)" xlink:href="#ar"/></g><path d="M212-179c-10-28-35-45-73-45-59 0-87 40-87 99 0 60 29 101 89 101 43 0 62-24 78-52l27 14C228-24 195 4 139 4 59 4 22-46 18-125c-6-104 99-153 187-111 19 9 31 26 39 46" id="as"/><path d="M197 0v-115H63V0H30v-248h33v105h134v-105h34V0h-34" id="at"/><path d="M33 0v-248h34V0H33" id="au"/><path d="M30-248c87 1 191-15 191 75 0 78-77 80-158 76V0H30v-248zm33 125c57 0 124 11 124-50 0-59-68-47-124-48v98" id="av"/><g id="b"><use transform="matrix(0.05,0,0,0.05,0,0)" xlink:href="#as"/><use transform="matrix(0.05,0,0,0.05,12.950000000000001,0)" xlink:href="#at"/><use transform="matrix(0.05,0,0,0.05,25.900000000000002,0)" xlink:href="#au"/><use transform="matrix(0.05,0,0,0.05,30.900000000000002,0)" xlink:href="#av"/><path d="M-.9 1.25h44.7v1.32H-.9z"/></g><path d="M30 0v-248h33v221h125V0H30" id="aw"/><path d="M232-93c-1 65-40 97-104 97C67 4 28-28 28-90v-158h33c8 89-33 224 67 224 102 0 64-133 71-224h33v155" id="ax"/><path d="M143 4C61 4 22-44 18-125c-5-107 100-154 193-111 17 8 29 25 37 43l-32 9c-13-25-37-40-76-40-61 0-88 39-88 99 0 61 29 100 91 101 35 0 62-11 79-27v-45h-74v-28h105v86C228-13 192 4 143 4" id="ay"/><path d="M190 0L58-211 59 0H30v-248h39L202-35l-2-213h31V0h-41" id="az"/><g id="c"><use transform="matrix(0.05,0,0,0.05,0,0)" xlink:href="#av"/><use transform="matrix(0.05,0,0,0.05,12,0)" xlink:href="#aw"/><use transform="matrix(0.05,0,0,0.05,22,0)" xlink:href="#ax"/><use transform="matrix(0.05,0,0,0.05,34.95,0)" xlink:href="#ay"/><use transform="matrix(0.05,0,0,0.05,48.95,0)" xlink:href="#au"/><use transform="matrix(0.05,0,0,0.05,53.95,0)" xlink:href="#az"/><path d="M-.9 1.25h68.7v1.32H-.9z"/></g><path d="M30 0v-248h187v28H63v79h144v27H63v87h162V0H30" id="aA"/><g id="d"><use transform="matrix(0.05,0,0,0.05,0,0)" xlink:href="#ay"/><use transform="matrix(0.05,0,0,0.05,14,0)" xlink:href="#aA"/><use transform="matrix(0.05,0,0,0.05,26,0)" xlink:href="#az"/><path d="M-.9 1.25h40.75v1.32H-.9z"/></g><path d="M117-194c89-4 53 116 60 194h-32v-121c0-31-8-49-39-48C34-167 62-67 57 0H25l-1-190h30c1 10-1 24 2 32 11-22 29-35 61-36" id="aB"/><path d="M96-169c-40 0-48 33-48 73s9 75 48 75c24 0 41-14 43-38l32 2c-6 37-31 61-74 61-59 0-76-41-82-99-10-93 101-131 147-64 4 7 5 14 7 22l-32 3c-4-21-16-35-41-35" id="aC"/><path d="M100-194c62-1 85 37 85 99 1 63-27 99-86 99S16-35 15-95c0-66 28-99 85-99zM99-20c44 1 53-31 53-75 0-43-8-75-51-75s-53 32-53 75 10 74 51 75" id="aD"/><path d="M210-169c-67 3-38 105-44 169h-31v-121c0-29-5-50-35-48C34-165 62-65 56 0H25l-1-190h30c1 10-1 24 2 32 10-44 99-50 107 0 11-21 27-35 58-36 85-2 47 119 55 194h-31v-121c0-29-5-49-35-48" id="aE"/><path d="M24-231v-30h32v30H24zM24 0v-190h32V0H24" id="aF"/><path d="M177-190C167-65 218 103 67 71c-23-6-38-20-44-43l32-5c15 47 100 32 89-28v-30C133-14 115 1 83 1 29 1 15-40 15-95c0-56 16-97 71-98 29-1 48 16 59 35 1-10 0-23 2-32h30zM94-22c36 0 50-32 50-73 0-42-14-75-50-75-39 0-46 34-46 75s6 73 46 73" id="aG"/><g id="e"><use transform="matrix(0.05,0,0,0.05,0,0)" xlink:href="#au"/><use transform="matrix(0.05,0,0,0.05,5,0)" xlink:href="#aB"/><use transform="matrix(0.05,0,0,0.05,15,0)" xlink:href="#aC"/><use transform="matrix(0.05,0,0,0.05,24,0)" xlink:href="#aD"/><use transform="matrix(0.05,0,0,0.05,34,0)" xlink:href="#aE"/><use transform="matrix(0.05,0,0,0.05,48.95,0)" xlink:href="#aF"/><use transform="matrix(0.05,0,0,0.05,52.900000000000006,0)" xlink:href="#aB"/><use transform="matrix(0.05,0,0,0.05,62.900000000000006,0)" xlink:href="#aG"/></g><path d="M140-251c81 0 123 46 123 126C263-46 219 4 140 4 59 4 17-45 17-125s42-126 123-126zm0 227c63 0 89-41 89-101s-29-99-89-99c-61 0-89 39-89 99S79-25 140-24" id="aH"/><g id="f"><use transform="matrix(0.05,0,0,0.05,0,0)" xlink:href="#aH"/><use transform="matrix(0.05,0,0,0.05,14,0)" xlink:href="#aB"/></g><path d="M141-36C126-15 110 5 73 4 37 3 15-17 15-53c-1-64 63-63 125-63 3-35-9-54-41-54-24 1-41 7-42 31l-33-3c5-37 33-52 76-52 45 0 72 20 72 64v82c-1 20 7 32 28 27v20c-31 9-61-2-59-35zM48-53c0 20 12 33 32 33 41-3 63-29 60-74-43 2-92-5-92 41" id="aI"/><path d="M85-194c31 0 48 13 60 33l-1-100h32l1 261h-30c-2-10 0-23-3-31C134-8 116 4 85 4 32 4 16-35 15-94c0-66 23-100 70-100zm9 24c-40 0-46 34-46 75 0 40 6 74 45 74 42 0 51-32 51-76 0-42-9-74-50-73" id="aJ"/><g id="g"><use transform="matrix(0.05,0,0,0.05,0,0)" xlink:href="#as"/><use transform="matrix(0.05,0,0,0.05,12.950000000000001,0)" xlink:href="#aD"/><use transform="matrix(0.05,0,0,0.05,22.950000000000003,0)" xlink:href="#aE"/><use transform="matrix(0.05,0,0,0.05,37.900000000000006,0)" xlink:href="#aE"/><use transform="matrix(0.05,0,0,0.05,52.85,0)" xlink:href="#aI"/><use transform="matrix(0.05,0,0,0.05,62.85,0)" xlink:href="#aB"/><use transform="matrix(0.05,0,0,0.05,72.85000000000001,0)" xlink:href="#aJ"/></g><path d="M240 0l2-218c-23 76-54 145-80 218h-23L58-218 59 0H30v-248h44l77 211c21-75 51-140 76-211h43V0h-30" id="aK"/><path d="M135-143c-3-34-86-38-87 0 15 53 115 12 119 90S17 21 10-45l28-5c4 36 97 45 98 0-10-56-113-15-118-90-4-57 82-63 122-42 12 7 21 19 24 35" id="aL"/><g id="h"><use transform="matrix(0.05,0,0,0.05,0,0)" xlink:href="#aK"/><use transform="matrix(0.05,0,0,0.05,14.950000000000001,0)" xlink:href="#aq"/><use transform="matrix(0.05,0,0,0.05,24.950000000000003,0)" xlink:href="#aL"/><use transform="matrix(0.05,0,0,0.05,33.95,0)" xlink:href="#aL"/><use transform="matrix(0.05,0,0,0.05,42.95,0)" xlink:href="#aI"/><use transform="matrix(0.05,0,0,0.05,52.95,0)" xlink:href="#aG"/><use transform="matrix(0.05,0,0,0.05,62.95,0)" xlink:href="#aq"/></g><path d="M59-47c-2 24 18 29 38 22v24C64 9 27 4 27-40v-127H5v-23h24l9-43h21v43h35v23H59v120" id="aM"/><g id="i"><use transform="matrix(0.05,0,0,0.05,0,0)" xlink:href="#au"/><use transform="matrix(0.05,0,0,0.05,5,0)" xlink:href="#aB"/><use transform="matrix(0.05,0,0,0.05,15,0)" xlink:href="#aF"/><use transform="matrix(0.05,0,0,0.05,18.95,0)" xlink:href="#aM"/></g><path d="M141 0L90-78 38 0H4l68-98-65-92h35l48 74 47-74h35l-64 92 68 98h-35" id="aN"/><path d="M68-38c1 34 0 65-14 84H32c9-13 17-26 17-46H33v-38h35" id="aO"/><g id="j"><use transform="matrix(0.05,0,0,0.05,0,0)" xlink:href="#as"/><use transform="matrix(0.05,0,0,0.05,12.950000000000001,0)" xlink:href="#aE"/><use transform="matrix(0.05,0,0,0.05,27.900000000000002,0)" xlink:href="#aJ"/><use transform="matrix(0.05,0,0,0.05,37.900000000000006,0)" xlink:href="#as"/><use transform="matrix(0.05,0,0,0.05,50.85000000000001,0)" xlink:href="#aD"/><use transform="matrix(0.05,0,0,0.05,60.85,0)" xlink:href="#aB"/><use transform="matrix(0.05,0,0,0.05,70.85000000000001,0)" xlink:href="#aM"/><use transform="matrix(0.05,0,0,0.05,75.85000000000001,0)" xlink:href="#aq"/><use transform="matrix(0.05,0,0,0.05,85.85000000000001,0)" xlink:href="#aN"/><use transform="matrix(0.05,0,0,0.05,94.85000000000001,0)" xlink:href="#aM"/><use transform="matrix(0.05,0,0,0.05,99.85000000000001,0)" xlink:href="#aO"/></g><path d="M84 4C-5 8 30-112 23-190h32v120c0 31 7 50 39 49 72-2 45-101 50-169h31l1 190h-30c-1-10 1-25-2-33-11 22-28 36-60 37" id="aP"/><path d="M115-194c55 1 70 41 70 98S169 2 115 4C84 4 66-9 55-30l1 105H24l-1-265h31l2 30c10-21 28-34 59-34zm-8 174c40 0 45-34 45-75s-6-73-45-74c-42 0-51 32-51 76 0 43 10 73 51 73" id="aQ"/><g id="k"><use transform="matrix(0.05,0,0,0.05,0,0)" xlink:href="#aI"/><use transform="matrix(0.05,0,0,0.05,10,0)" xlink:href="#aL"/><use transform="matrix(0.05,0,0,0.05,19,0)" xlink:href="#aL"/><use transform="matrix(0.05,0,0,0.05,28,0)" xlink:href="#aP"/><use transform="matrix(0.05,0,0,0.05,38,0)" xlink:href="#aE"/><use transform="matrix(0.05,0,0,0.05,52.95,0)" xlink:href="#aQ"/><use transform="matrix(0.05,0,0,0.05,62.95,0)" xlink:href="#aM"/><use transform="matrix(0.05,0,0,0.05,67.95,0)" xlink:href="#aF"/><use transform="matrix(0.05,0,0,0.05,71.9,0)" xlink:href="#aD"/><use transform="matrix(0.05,0,0,0.05,81.9,0)" xlink:href="#aB"/></g><path d="M114-163C36-179 61-72 57 0H25l-1-190h30c1 12-1 29 2 39 6-27 23-49 58-41v29" id="aR"/><g id="l"><use transform="matrix(0.05,0,0,0.05,0,0)" xlink:href="#aQ"/><use transform="matrix(0.05,0,0,0.05,10,0)" xlink:href="#aI"/><use transform="matrix(0.05,0,0,0.05,20,0)" xlink:href="#aR"/><use transform="matrix(0.05,0,0,0.05,25.950000000000003,0)" xlink:href="#aL"/><use transform="matrix(0.05,0,0,0.05,34.95,0)" xlink:href="#aq"/><use transform="matrix(0.05,0,0,0.05,44.95,0)" xlink:href="#aJ"/></g><path d="M205 0l-28-72H64L36 0H1l101-248h38L239 0h-34zm-38-99l-47-123c-12 45-31 82-46 123h93" id="aS"/><path d="M185-189c-5-48-123-54-124 2 14 75 158 14 163 119 3 78-121 87-175 55-17-10-28-26-33-46l33-7c5 56 141 63 141-1 0-78-155-14-162-118-5-82 145-84 179-34 5 7 8 16 11 25" id="aT"/><g id="m"><use transform="matrix(0.05,0,0,0.05,0,0)" xlink:href="#aS"/><use transform="matrix(0.05,0,0,0.05,12,0)" xlink:href="#av"/><use transform="matrix(0.05,0,0,0.05,24,0)" xlink:href="#aT"/></g><g id="n"><use transform="matrix(0.05,0,0,0.05,0,0)" xlink:href="#at"/><use transform="matrix(0.05,0,0,0.05,12.950000000000001,0)" xlink:href="#aq"/><use transform="matrix(0.05,0,0,0.05,22.950000000000003,0)" xlink:href="#aI"/><use transform="matrix(0.05,0,0,0.05,32.95,0)" xlink:href="#aJ"/><use transform="matrix(0.05,0,0,0.05,42.95,0)" xlink:href="#aq"/><use transform="matrix(0.05,0,0,0.05,52.95,0)" xlink:href="#aR"/></g><path d="M16-82v-28h88v28H16" id="aU"/><path d="M106-169C34-169 62-67 57 0H25v-261h32l-1 103c12-21 28-36 61-36 89 0 53 116 60 194h-32v-121c2-32-8-49-39-48" id="aV"/><g id="o"><use transform="matrix(0.05,0,0,0.05,0,0)" xlink:href="#aC"/><use transform="matrix(0.05,0,0,0.05,9,0)" xlink:href="#aD"/><use transform="matrix(0.05,0,0,0.05,19,0)" xlink:href="#aR"/><use transform="matrix(0.05,0,0,0.05,24.95,0)" xlink:href="#aq"/><use transform="matrix(0.05,0,0,0.05,34.95,0)" xlink:href="#aU"/><use transform="matrix(0.05,0,0,0.05,40.900000000000006,0)" xlink:href="#aE"/><use transform="matrix(0.05,0,0,0.05,55.85,0)" xlink:href="#aq"/><use transform="matrix(0.05,0,0,0.05,65.85000000000001,0)" xlink:href="#aL"/><use transform="matrix(0.05,0,0,0.05,74.85000000000001,0)" xlink:href="#aL"/><use transform="matrix(0.05,0,0,0.05,83.85000000000001,0)" xlink:href="#aI"/><use transform="matrix(0.05,0,0,0.05,93.85000000000001,0)" xlink:href="#aG"/><use transform="matrix(0.05,0,0,0.05,103.85000000000001,0)" xlink:href="#aq"/><use transform="matrix(0.05,0,0,0.05,113.85000000000001,0)" xlink:href="#aU"/><use transform="matrix(0.05,0,0,0.05,119.80000000000001,0)" xlink:href="#aJ"/><use transform="matrix(0.05,0,0,0.05,129.8,0)" xlink:href="#aF"/><use transform="matrix(0.05,0,0,0.05,133.75,0)" xlink:href="#aL"/><use transform="matrix(0.05,0,0,0.05,142.75,0)" xlink:href="#aQ"/><use transform="matrix(0.05,0,0,0.05,152.75,0)" xlink:href="#aI"/><use transform="matrix(0.05,0,0,0.05,162.75,0)" xlink:href="#aM"/><use transform="matrix(0.05,0,0,0.05,167.75,0)" xlink:href="#aC"/><use transform="matrix(0.05,0,0,0.05,176.75,0)" xlink:href="#aV"/></g><g id="p"><use transform="matrix(0.05,0,0,0.05,0,0)" xlink:href="#ay"/><use transform="matrix(0.05,0,0,0.05,14,0)" xlink:href="#aq"/><use transform="matrix(0.05,0,0,0.05,24,0)" xlink:href="#aM"/></g><path d="M145-31C134-9 116 4 85 4 32 4 16-35 15-94c0-59 17-99 70-100 32-1 48 14 60 33 0-11-1-24 2-32h30l-1 268h-32zM93-21c41 0 51-33 51-76s-8-73-50-73c-40 0-46 35-46 75s5 74 45 74" id="aW"/><g id="q"><use transform="matrix(0.05,0,0,0.05,0,0)" xlink:href="#aR"/><use transform="matrix(0.05,0,0,0.05,5.95,0)" xlink:href="#aq"/><use transform="matrix(0.05,0,0,0.05,15.949999999999998,0)" xlink:href="#aW"/><use transform="matrix(0.05,0,0,0.05,25.950000000000003,0)" xlink:href="#aP"/><use transform="matrix(0.05,0,0,0.05,35.95,0)" xlink:href="#aq"/><use transform="matrix(0.05,0,0,0.05,45.95,0)" xlink:href="#aL"/><use transform="matrix(0.05,0,0,0.05,54.95,0)" xlink:href="#aM"/></g><g id="r"><use transform="matrix(0.05,0,0,0.05,0,0)" xlink:href="#aL"/><use transform="matrix(0.05,0,0,0.05,9,0)" xlink:href="#aQ"/><use transform="matrix(0.05,0,0,0.05,19,0)" xlink:href="#aq"/><use transform="matrix(0.05,0,0,0.05,29,0)" xlink:href="#aC"/></g><g id="s"><use transform="matrix(0.05,0,0,0.05,0,0)" xlink:href="#aI"/><use transform="matrix(0.05,0,0,0.05,10,0)" xlink:href="#aB"/><use transform="matrix(0.05,0,0,0.05,20,0)" xlink:href="#aJ"/></g><g id="t"><use transform="matrix(0.05,0,0,0.05,0,0)" xlink:href="#aC"/><use transform="matrix(0.05,0,0,0.05,9,0)" xlink:href="#aD"/><use transform="matrix(0.05,0,0,0.05,19,0)" xlink:href="#aE"/><use transform="matrix(0.05,0,0,0.05,33.95,0)" xlink:href="#aE"/><use transform="matrix(0.05,0,0,0.05,48.900000000000006,0)" xlink:href="#aI"/><use transform="matrix(0.05,0,0,0.05,58.900000000000006,0)" xlink:href="#aB"/><use transform="matrix(0.05,0,0,0.05,68.9,0)" xlink:href="#aJ"/></g><path d="M24 0v-261h32V0H24" id="aX"/><g id="u"><use transform="matrix(0.05,0,0,0.05,0,0)" xlink:href="#aV"/><use transform="matrix(0.05,0,0,0.05,10,0)" xlink:href="#aI"/><use transform="matrix(0.05,0,0,0.05,20,0)" xlink:href="#aB"/><use transform="matrix(0.05,0,0,0.05,30,0)" xlink:href="#aJ"/><use transform="matrix(0.05,0,0,0.05,40,0)" xlink:href="#aX"/><use transform="matrix(0.05,0,0,0.05,43.95,0)" xlink:href="#aq"/><use transform="matrix(0.05,0,0,0.05,53.95,0)" xlink:href="#aR"/></g><g id="v"><use transform="matrix(0.05,0,0,0.05,0,0)" xlink:href="#aQ"/><use transform="matrix(0.05,0,0,0.05,10,0)" xlink:href="#aM"/><use transform="matrix(0.05,0,0,0.05,15,0)" xlink:href="#aR"/></g><path d="M101-234c-31-9-42 10-38 44h38v23H63V0H32v-167H5v-23h27c-7-52 17-82 69-68v24" id="aY"/><g id="w"><use transform="matrix(0.05,0,0,0.05,0,0)" xlink:href="#aY"/><use transform="matrix(0.05,0,0,0.05,5,0)" xlink:href="#aR"/><use transform="matrix(0.05,0,0,0.05,10.95,0)" xlink:href="#aD"/><use transform="matrix(0.05,0,0,0.05,20.95,0)" xlink:href="#aE"/></g><g id="x"><use transform="matrix(0.05,0,0,0.05,0,0)" xlink:href="#aC"/><use transform="matrix(0.05,0,0,0.05,9,0)" xlink:href="#aD"/><use transform="matrix(0.05,0,0,0.05,19,0)" xlink:href="#aR"/><use transform="matrix(0.05,0,0,0.05,24.95,0)" xlink:href="#aq"/><use transform="matrix(0.05,0,0,0.05,34.95,0)" xlink:href="#aU"/><use transform="matrix(0.05,0,0,0.05,40.900000000000006,0)" xlink:href="#aJ"/><use transform="matrix(0.05,0,0,0.05,50.900000000000006,0)" xlink:href="#aI"/><use transform="matrix(0.05,0,0,0.05,60.900000000000006,0)" xlink:href="#aM"/><use transform="matrix(0.05,0,0,0.05,65.9,0)" xlink:href="#aI"/><use transform="matrix(0.05,0,0,0.05,75.9,0)" xlink:href="#aU"/><use transform="matrix(0.05,0,0,0.05,81.85000000000001,0)" xlink:href="#aE"/><use transform="matrix(0.05,0,0,0.05,96.80000000000001,0)" xlink:href="#aD"/><use transform="matrix(0.05,0,0,0.05,106.80000000000001,0)" xlink:href="#aJ"/><use transform="matrix(0.05,0,0,0.05,116.80000000000001,0)" xlink:href="#aq"/><use transform="matrix(0.05,0,0,0.05,126.80000000000001,0)" xlink:href="#aX"/></g><g id="y"><use transform="matrix(0.05,0,0,0.05,0,0)" xlink:href="#av"/><use transform="matrix(0.05,0,0,0.05,12,0)" xlink:href="#aD"/><use transform="matrix(0.05,0,0,0.05,22,0)" xlink:href="#aQ"/><use transform="matrix(0.05,0,0,0.05,32,0)" xlink:href="#aP"/><use transform="matrix(0.05,0,0,0.05,42,0)" xlink:href="#aX"/><use transform="matrix(0.05,0,0,0.05,45.95,0)" xlink:href="#aI"/><use transform="matrix(0.05,0,0,0.05,55.95,0)" xlink:href="#aM"/><use transform="matrix(0.05,0,0,0.05,60.95,0)" xlink:href="#aq"/></g><path d="M233-177c-1 41-23 64-60 70L243 0h-38l-65-103H63V0H30v-248c88 3 205-21 203 71zM63-129c60-2 137 13 137-47 0-61-80-42-137-45v92" id="aZ"/><g id="z"><use transform="matrix(0.05,0,0,0.05,0,0)" xlink:href="#aZ"/><use transform="matrix(0.05,0,0,0.05,12.950000000000001,0)" xlink:href="#aq"/><use transform="matrix(0.05,0,0,0.05,22.950000000000003,0)" xlink:href="#aW"/><use transform="matrix(0.05,0,0,0.05,32.95,0)" xlink:href="#aP"/><use transform="matrix(0.05,0,0,0.05,42.95,0)" xlink:href="#aq"/><use transform="matrix(0.05,0,0,0.05,52.95,0)" xlink:href="#aL"/><use transform="matrix(0.05,0,0,0.05,61.95,0)" xlink:href="#aM"/></g><g id="A"><use transform="matrix(0.05,0,0,0.05,0,0)" xlink:href="#aT"/><use transform="matrix(0.05,0,0,0.05,12,0)" xlink:href="#aM"/><use transform="matrix(0.05,0,0,0.05,17,0)" xlink:href="#aR"/><use transform="matrix(0.05,0,0,0.05,22.95,0)" xlink:href="#aP"/><use transform="matrix(0.05,0,0,0.05,32.95,0)" xlink:href="#aC"/><use transform="matrix(0.05,0,0,0.05,41.95,0)" xlink:href="#aM"/></g><g id="B"><use transform="matrix(0.05,0,0,0.05,0,0)" xlink:href="#aP"/><use transform="matrix(0.05,0,0,0.05,10,0)" xlink:href="#aL"/><use transform="matrix(0.05,0,0,0.05,19,0)" xlink:href="#aF"/><use transform="matrix(0.05,0,0,0.05,22.95,0)" xlink:href="#aB"/><use transform="matrix(0.05,0,0,0.05,32.95,0)" xlink:href="#aG"/></g><g id="C"><use transform="matrix(0.05,0,0,0.05,0,0)" xlink:href="#aI"/><use transform="matrix(0.05,0,0,0.05,10,0)" xlink:href="#aQ"/><use transform="matrix(0.05,0,0,0.05,20,0)" xlink:href="#aQ"/><use transform="matrix(0.05,0,0,0.05,30,0)" xlink:href="#aR"/><use transform="matrix(0.05,0,0,0.05,35.95,0)" xlink:href="#aD"/><use transform="matrix(0.05,0,0,0.05,45.95,0)" xlink:href="#aQ"/><use transform="matrix(0.05,0,0,0.05,55.95,0)" xlink:href="#aR"/><use transform="matrix(0.05,0,0,0.05,61.900000000000006,0)" xlink:href="#aF"/><use transform="matrix(0.05,0,0,0.05,65.85000000000001,0)" xlink:href="#aI"/><use transform="matrix(0.05,0,0,0.05,75.85000000000001,0)" xlink:href="#aM"/><use transform="matrix(0.05,0,0,0.05,80.85000000000001,0)" xlink:href="#aq"/></g><g id="D"><use transform="matrix(0.05,0,0,0.05,0,0)" xlink:href="#aC"/><use transform="matrix(0.05,0,0,0.05,9,0)" xlink:href="#aD"/><use transform="matrix(0.05,0,0,0.05,19,0)" xlink:href="#aJ"/><use transform="matrix(0.05,0,0,0.05,29,0)" xlink:href="#aq"/><use transform="matrix(0.05,0,0,0.05,39,0)" xlink:href="#aC"/></g><g id="E"><use transform="matrix(0.05,0,0,0.05,0,0)" xlink:href="#aJ"/><use transform="matrix(0.05,0,0,0.05,10,0)" xlink:href="#aq"/><use transform="matrix(0.05,0,0,0.05,20,0)" xlink:href="#aC"/><use transform="matrix(0.05,0,0,0.05,29,0)" xlink:href="#aD"/><use transform="matrix(0.05,0,0,0.05,39,0)" xlink:href="#aJ"/><use transform="matrix(0.05,0,0,0.05,49,0)" xlink:href="#aq"/><use transform="matrix(0.05,0,0,0.05,59,0)" xlink:href="#aR"/></g><path d="M108 0H70L1-190h34L89-25l56-165h34" id="ba"/><g id="F"><use transform="matrix(0.05,0,0,0.05,0,0)" xlink:href="#aC"/><use transform="matrix(0.05,0,0,0.05,9,0)" xlink:href="#aX"/><use transform="matrix(0.05,0,0,0.05,12.949999999999998,0)" xlink:href="#aP"/><use transform="matrix(0.05,0,0,0.05,22.95,0)" xlink:href="#aL"/><use transform="matrix(0.05,0,0,0.05,31.950000000000003,0)" xlink:href="#aM"/><use transform="matrix(0.05,0,0,0.05,36.95,0)" xlink:href="#aq"/><use transform="matrix(0.05,0,0,0.05,46.95,0)" xlink:href="#aR"/><use transform="matrix(0.05,0,0,0.05,52.900000000000006,0)" xlink:href="#aU"/><use transform="matrix(0.05,0,0,0.05,58.85,0)" xlink:href="#aL"/><use transform="matrix(0.05,0,0,0.05,67.85000000000001,0)" xlink:href="#aq"/><use transform="matrix(0.05,0,0,0.05,77.85000000000001,0)" xlink:href="#aR"/><use transform="matrix(0.05,0,0,0.05,83.80000000000001,0)" xlink:href="#ba"/><use transform="matrix(0.05,0,0,0.05,92.80000000000001,0)" xlink:href="#aq"/><use transform="matrix(0.05,0,0,0.05,102.80000000000001,0)" xlink:href="#aR"/><use transform="matrix(0.05,0,0,0.05,108.75,0)" xlink:href="#aU"/><use transform="matrix(0.05,0,0,0.05,114.7,0)" xlink:href="#aD"/><use transform="matrix(0.05,0,0,0.05,124.7,0)" xlink:href="#aB"/><use transform="matrix(0.05,0,0,0.05,134.70000000000002,0)" xlink:href="#aU"/><use transform="matrix(0.05,0,0,0.05,140.65,0)" xlink:href="#aD"/><use transform="matrix(0.05,0,0,0.05,150.65,0)" xlink:href="#aY"/><use transform="matrix(0.05,0,0,0.05,155.3,0)" xlink:href="#aY"/></g><g id="G"><use transform="matrix(0.05,0,0,0.05,0,0)" xlink:href="#aG"/><use transform="matrix(0.05,0,0,0.05,10,0)" xlink:href="#aq"/><use transform="matrix(0.05,0,0,0.05,20,0)" xlink:href="#aB"/><use transform="matrix(0.05,0,0,0.05,30,0)" xlink:href="#aU"/><use transform="matrix(0.05,0,0,0.05,35.95,0)" xlink:href="#aq"/><use transform="matrix(0.05,0,0,0.05,45.95,0)" xlink:href="#aB"/><use transform="matrix(0.05,0,0,0.05,55.95,0)" xlink:href="#aJ"/><use transform="matrix(0.05,0,0,0.05,65.95,0)" xlink:href="#aQ"/><use transform="matrix(0.05,0,0,0.05,75.95,0)" xlink:href="#aD"/><use transform="matrix(0.05,0,0,0.05,85.95,0)" xlink:href="#aF"/><use transform="matrix(0.05,0,0,0.05,89.9,0)" xlink:href="#aB"/><use transform="matrix(0.05,0,0,0.05,99.9,0)" xlink:href="#aM"/><use transform="matrix(0.05,0,0,0.05,104.9,0)" xlink:href="#aU"/><use transform="matrix(0.05,0,0,0.05,110.85000000000001,0)" xlink:href="#aC"/><use transform="matrix(0.05,0,0,0.05,119.85000000000001,0)" xlink:href="#aD"/><use transform="matrix(0.05,0,0,0.05,129.85000000000002,0)" xlink:href="#aB"/><use transform="matrix(0.05,0,0,0.05,139.85000000000002,0)" xlink:href="#aY"/><use transform="matrix(0.05,0,0,0.05,144.85000000000002,0)" xlink:href="#aF"/><use transform="matrix(0.05,0,0,0.05,148.8,0)" xlink:href="#aG"/></g><g id="H"><use transform="matrix(0.05,0,0,0.05,0,0)" xlink:href="#ax"/><use transform="matrix(0.05,0,0,0.05,12.950000000000001,0)" xlink:href="#aQ"/><use transform="matrix(0.05,0,0,0.05,22.950000000000003,0)" xlink:href="#aJ"/><use transform="matrix(0.05,0,0,0.05,32.95,0)" xlink:href="#aI"/><use transform="matrix(0.05,0,0,0.05,42.95,0)" xlink:href="#aM"/><use transform="matrix(0.05,0,0,0.05,47.95,0)" xlink:href="#aq"/></g><path d="M115-194c53 0 69 39 70 98 0 66-23 100-70 100C84 3 66-7 56-30L54 0H23l1-261h32v101c10-23 28-34 59-34zm-8 174c40 0 45-34 45-75 0-40-5-75-45-74-42 0-51 32-51 76 0 43 10 73 51 73" id="bb"/><g id="I"><use transform="matrix(0.05,0,0,0.05,0,0)" xlink:href="#aS"/><use transform="matrix(0.05,0,0,0.05,12,0)" xlink:href="#aM"/><use transform="matrix(0.05,0,0,0.05,17,0)" xlink:href="#aM"/><use transform="matrix(0.05,0,0,0.05,22,0)" xlink:href="#aR"/><use transform="matrix(0.05,0,0,0.05,27.950000000000003,0)" xlink:href="#aF"/><use transform="matrix(0.05,0,0,0.05,31.899999999999995,0)" xlink:href="#bb"/><use transform="matrix(0.05,0,0,0.05,41.9,0)" xlink:href="#aP"/><use transform="matrix(0.05,0,0,0.05,51.900000000000006,0)" xlink:href="#aM"/><use transform="matrix(0.05,0,0,0.05,56.900000000000006,0)" xlink:href="#aq"/></g><g id="J"><use transform="matrix(0.05,0,0,0.05,0,0)" xlink:href="#aF"/><use transform="matrix(0.05,0,0,0.05,3.95,0)" xlink:href="#aB"/></g><g id="K"><use transform="matrix(0.05,0,0,0.05,0,0)" xlink:href="#aq"/><use transform="matrix(0.05,0,0,0.05,10,0)" xlink:href="#aB"/><use transform="matrix(0.05,0,0,0.05,20,0)" xlink:href="#aJ"/><use transform="matrix(0.05,0,0,0.05,30,0)" xlink:href="#aQ"/><use transform="matrix(0.05,0,0,0.05,40,0)" xlink:href="#aD"/><use transform="matrix(0.05,0,0,0.05,50,0)" xlink:href="#aF"/><use transform="matrix(0.05,0,0,0.05,53.95,0)" xlink:href="#aB"/><use transform="matrix(0.05,0,0,0.05,63.95,0)" xlink:href="#aM"/><use transform="matrix(0.05,0,0,0.05,68.95,0)" xlink:href="#aU"/><use transform="matrix(0.05,0,0,0.05,74.9,0)" xlink:href="#aC"/><use transform="matrix(0.05,0,0,0.05,83.9,0)" xlink:href="#aD"/><use transform="matrix(0.05,0,0,0.05,93.9,0)" xlink:href="#aB"/><use transform="matrix(0.05,0,0,0.05,103.9,0)" xlink:href="#aY"/><use transform="matrix(0.05,0,0,0.05,108.9,0)" xlink:href="#aF"/><use transform="matrix(0.05,0,0,0.05,112.85000000000001,0)" xlink:href="#aG"/></g><path d="M143 0L79-87 56-68V0H24v-261h32v163l83-92h37l-77 82L181 0h-38" id="bc"/><g id="L"><use transform="matrix(0.05,0,0,0.05,0,0)" xlink:href="#av"/><use transform="matrix(0.05,0,0,0.05,12,0)" xlink:href="#aD"/><use transform="matrix(0.05,0,0,0.05,22,0)" xlink:href="#aL"/><use transform="matrix(0.05,0,0,0.05,31,0)" xlink:href="#aM"/><use transform="matrix(0.05,0,0,0.05,36,0)" xlink:href="#aS"/><use transform="matrix(0.05,0,0,0.05,48,0)" xlink:href="#aM"/><use transform="matrix(0.05,0,0,0.05,53,0)" xlink:href="#aM"/><use transform="matrix(0.05,0,0,0.05,58,0)" xlink:href="#aR"/><use transform="matrix(0.05,0,0,0.05,63.95,0)" xlink:href="#aF"/><use transform="matrix(0.05,0,0,0.05,67.9,0)" xlink:href="#bb"/><use transform="matrix(0.05,0,0,0.05,77.9,0)" xlink:href="#aP"/><use transform="matrix(0.05,0,0,0.05,87.9,0)" xlink:href="#aM"/><use transform="matrix(0.05,0,0,0.05,92.9,0)" xlink:href="#aq"/><use transform="matrix(0.05,0,0,0.05,102.9,0)" xlink:href="#as"/><use transform="matrix(0.05,0,0,0.05,115.85000000000001,0)" xlink:href="#aV"/><use transform="matrix(0.05,0,0,0.05,125.85000000000001,0)" xlink:href="#aI"/><use transform="matrix(0.05,0,0,0.05,135.85000000000002,0)" xlink:href="#aB"/><use transform="matrix(0.05,0,0,0.05,145.85000000000002,0)" xlink:href="#aG"/><use transform="matrix(0.05,0,0,0.05,155.85000000000002,0)" xlink:href="#aq"/><use transform="matrix(0.05,0,0,0.05,165.85000000000002,0)" xlink:href="#as"/><use transform="matrix(0.05,0,0,0.05,178.8,0)" xlink:href="#aI"/><use transform="matrix(0.05,0,0,0.05,188.8,0)" xlink:href="#aX"/><use transform="matrix(0.05,0,0,0.05,192.75,0)" xlink:href="#aX"/><use transform="matrix(0.05,0,0,0.05,196.7,0)" xlink:href="#bb"/><use transform="matrix(0.05,0,0,0.05,206.69999999999996,0)" xlink:href="#aI"/><use transform="matrix(0.05,0,0,0.05,216.69999999999996,0)" xlink:href="#aC"/><use transform="matrix(0.05,0,0,0.05,225.69999999999996,0)" xlink:href="#bc"/></g><path d="M127-220V0H93v-220H8v-28h204v28h-85" id="bd"/><g id="M"><use transform="matrix(0.05,0,0,0.05,0,0)" xlink:href="#bd"/><use transform="matrix(0.05,0,0,0.05,10.3,0)" xlink:href="#aP"/><use transform="matrix(0.05,0,0,0.05,20.3,0)" xlink:href="#aR"/><use transform="matrix(0.05,0,0,0.05,26.25,0)" xlink:href="#aB"/></g><g id="N"><use transform="matrix(0.05,0,0,0.05,0,0)" xlink:href="#aw"/><use transform="matrix(0.05,0,0,0.05,10,0)" xlink:href="#aF"/><use transform="matrix(0.05,0,0,0.05,13.949999999999998,0)" xlink:href="#aG"/><use transform="matrix(0.05,0,0,0.05,23.95,0)" xlink:href="#aV"/><use transform="matrix(0.05,0,0,0.05,33.95,0)" xlink:href="#aM"/></g><g id="O"><use transform="matrix(0.05,0,0,0.05,0,0)" xlink:href="#aH"/><use transform="matrix(0.05,0,0,0.05,14,0)" xlink:href="#aB"/></g><g id="P"><use transform="matrix(0.05,0,0,0.05,0,0)" xlink:href="#aC"/><use transform="matrix(0.05,0,0,0.05,9,0)" xlink:href="#aD"/><use transform="matrix(0.05,0,0,0.05,19,0)" xlink:href="#aR"/><use transform="matrix(0.05,0,0,0.05,24.95,0)" xlink:href="#aq"/><use transform="matrix(0.05,0,0,0.05,34.95,0)" xlink:href="#aU"/><use transform="matrix(0.05,0,0,0.05,40.900000000000006,0)" xlink:href="#aJ"/><use transform="matrix(0.05,0,0,0.05,50.900000000000006,0)" xlink:href="#aI"/><use transform="matrix(0.05,0,0,0.05,60.900000000000006,0)" xlink:href="#aM"/><use transform="matrix(0.05,0,0,0.05,65.9,0)" xlink:href="#aI"/><use transform="matrix(0.05,0,0,0.05,75.9,0)" xlink:href="#aU"/><use transform="matrix(0.05,0,0,0.05,81.85000000000001,0)" xlink:href="#aE"/><use transform="matrix(0.05,0,0,0.05,96.80000000000001,0)" xlink:href="#aD"/><use transform="matrix(0.05,0,0,0.05,106.80000000000001,0)" xlink:href="#aJ"/><use transform="matrix(0.05,0,0,0.05,116.80000000000001,0)" xlink:href="#aq"/><use transform="matrix(0.05,0,0,0.05,126.80000000000001,0)" xlink:href="#aX"/></g><g id="Q"><use transform="matrix(0.05,0,0,0.05,0,0)" xlink:href="#aC"/><use transform="matrix(0.05,0,0,0.05,9,0)" xlink:href="#aD"/><use transform="matrix(0.05,0,0,0.05,19,0)" xlink:href="#aJ"/><use transform="matrix(0.05,0,0,0.05,29,0)" xlink:href="#aq"/><use transform="matrix(0.05,0,0,0.05,39,0)" xlink:href="#aC"/></g><g id="R"><use transform="matrix(0.05,0,0,0.05,0,0)" xlink:href="#aZ"/><use transform="matrix(0.05,0,0,0.05,12.950000000000001,0)" xlink:href="#aq"/><use transform="matrix(0.05,0,0,0.05,22.950000000000003,0)" xlink:href="#aW"/><use transform="matrix(0.05,0,0,0.05,32.95,0)" xlink:href="#aP"/><use transform="matrix(0.05,0,0,0.05,42.95,0)" xlink:href="#aq"/><use transform="matrix(0.05,0,0,0.05,52.95,0)" xlink:href="#aL"/><use transform="matrix(0.05,0,0,0.05,61.95,0)" xlink:href="#aM"/></g><g id="S"><use transform="matrix(0.05,0,0,0.05,0,0)" xlink:href="#aT"/><use transform="matrix(0.05,0,0,0.05,12,0)" xlink:href="#aM"/><use transform="matrix(0.05,0,0,0.05,17,0)" xlink:href="#aR"/><use transform="matrix(0.05,0,0,0.05,22.95,0)" xlink:href="#aP"/><use transform="matrix(0.05,0,0,0.05,32.95,0)" xlink:href="#aC"/><use transform="matrix(0.05,0,0,0.05,41.95,0)" xlink:href="#aM"/></g><path d="M87 75C49 33 22-17 22-94c0-76 28-126 65-167h31c-38 41-64 92-64 168S80 34 118 75H87" id="be"/><g id="T"><use transform="matrix(0.05,0,0,0.05,0,0)" xlink:href="#be"/><use transform="matrix(0.05,0,0,0.05,5.95,0)" xlink:href="#aK"/><use transform="matrix(0.05,0,0,0.05,20.900000000000002,0)" xlink:href="#aq"/><use transform="matrix(0.05,0,0,0.05,30.900000000000002,0)" xlink:href="#aE"/><use transform="matrix(0.05,0,0,0.05,45.85,0)" xlink:href="#aD"/><use transform="matrix(0.05,0,0,0.05,55.85,0)" xlink:href="#aR"/><use transform="matrix(0.05,0,0,0.05,61.800000000000004,0)" xlink:href="#ar"/></g><path d="M103-251c84 0 111 97 45 133-19 10-37 24-39 52H78c0-63 77-55 77-114 0-30-21-42-52-43-32 0-53 17-56 46l-32-2c7-45 34-72 88-72zM77 0v-35h34V0H77" id="bf"/><path d="M33-261c38 41 65 92 65 168S71 34 33 75H2C39 34 66-17 66-93S39-220 2-261h31" id="bg"/><g id="U"><use transform="matrix(0.05,0,0,0.05,0,0)" xlink:href="#aS"/><use transform="matrix(0.05,0,0,0.05,12,0)" xlink:href="#aX"/><use transform="matrix(0.05,0,0,0.05,15.949999999999998,0)" xlink:href="#aX"/><use transform="matrix(0.05,0,0,0.05,19.9,0)" xlink:href="#aD"/><use transform="matrix(0.05,0,0,0.05,29.899999999999995,0)" xlink:href="#aC"/><use transform="matrix(0.05,0,0,0.05,38.9,0)" xlink:href="#aI"/><use transform="matrix(0.05,0,0,0.05,48.9,0)" xlink:href="#aM"/><use transform="matrix(0.05,0,0,0.05,53.900000000000006,0)" xlink:href="#aF"/><use transform="matrix(0.05,0,0,0.05,57.85,0)" xlink:href="#aD"/><use transform="matrix(0.05,0,0,0.05,67.85,0)" xlink:href="#aB"/><use transform="matrix(0.05,0,0,0.05,77.85,0)" xlink:href="#bf"/><use transform="matrix(0.05,0,0,0.05,87.85,0)" xlink:href="#bg"/></g><g id="V"><use transform="matrix(0.05,0,0,0.05,0,0)" xlink:href="#as"/><use transform="matrix(0.05,0,0,0.05,12.950000000000001,0)" xlink:href="#aV"/><use transform="matrix(0.05,0,0,0.05,22.950000000000003,0)" xlink:href="#aq"/><use transform="matrix(0.05,0,0,0.05,32.95,0)" xlink:href="#aC"/><use transform="matrix(0.05,0,0,0.05,41.95,0)" xlink:href="#bc"/></g><g id="W"><use transform="matrix(0.05,0,0,0.05,0,0)" xlink:href="#aR"/><use transform="matrix(0.05,0,0,0.05,5.95,0)" xlink:href="#aq"/><use transform="matrix(0.05,0,0,0.05,15.949999999999998,0)" xlink:href="#aM"/><use transform="matrix(0.05,0,0,0.05,20.95,0)" xlink:href="#aP"/><use transform="matrix(0.05,0,0,0.05,30.950000000000003,0)" xlink:href="#aR"/><use transform="matrix(0.05,0,0,0.05,36.9,0)" xlink:href="#aB"/><use transform="matrix(0.05,0,0,0.05,46.9,0)" xlink:href="#aq"/><use transform="matrix(0.05,0,0,0.05,56.900000000000006,0)" xlink:href="#aJ"/></g><g id="X"><use transform="matrix(0.05,0,0,0.05,0,0)" xlink:href="#aL"/><use transform="matrix(0.05,0,0,0.05,9,0)" xlink:href="#aM"/><use transform="matrix(0.05,0,0,0.05,14,0)" xlink:href="#aI"/><use transform="matrix(0.05,0,0,0.05,24,0)" xlink:href="#aM"/><use transform="matrix(0.05,0,0,0.05,29,0)" xlink:href="#aP"/><use transform="matrix(0.05,0,0,0.05,39,0)" xlink:href="#aL"/></g><g id="Y"><use transform="matrix(0.05,0,0,0.05,0,0)" xlink:href="#aF"/><use transform="matrix(0.05,0,0,0.05,3.95,0)" xlink:href="#aY"/></g><g id="Z"><use transform="matrix(0.05,0,0,0.05,0,0)" xlink:href="#aB"/><use transform="matrix(0.05,0,0,0.05,10,0)" xlink:href="#aq"/><use transform="matrix(0.05,0,0,0.05,20,0)" xlink:href="#aC"/><use transform="matrix(0.05,0,0,0.05,29,0)" xlink:href="#aq"/><use transform="matrix(0.05,0,0,0.05,39,0)" xlink:href="#aL"/><use transform="matrix(0.05,0,0,0.05,48,0)" xlink:href="#aL"/><use transform="matrix(0.05,0,0,0.05,57,0)" xlink:href="#aI"/><use transform="matrix(0.05,0,0,0.05,67,0)" xlink:href="#aR"/><use transform="matrix(0.05,0,0,0.05,72.95,0)" xlink:href="#ar"/></g><g id="aa"><use transform="matrix(0.05,0,0,0.05,0,0)" xlink:href="#aI"/><use transform="matrix(0.05,0,0,0.05,10,0)" xlink:href="#aX"/><use transform="matrix(0.05,0,0,0.05,13.949999999999998,0)" xlink:href="#aX"/><use transform="matrix(0.05,0,0,0.05,17.9,0)" xlink:href="#aD"/><use transform="matrix(0.05,0,0,0.05,27.899999999999995,0)" xlink:href="#aC"/><use transform="matrix(0.05,0,0,0.05,36.9,0)" xlink:href="#aI"/><use transform="matrix(0.05,0,0,0.05,46.9,0)" xlink:href="#aM"/><use transform="matrix(0.05,0,0,0.05,51.900000000000006,0)" xlink:href="#aq"/></g><g id="ab"><use transform="matrix(0.05,0,0,0.05,0,0)" xlink:href="#aI"/><use transform="matrix(0.05,0,0,0.05,10,0)" xlink:href="#aB"/><use transform="matrix(0.05,0,0,0.05,20,0)" xlink:href="#aJ"/></g><g id="ac"><use transform="matrix(0.05,0,0,0.05,0,0)" xlink:href="#aQ"/><use transform="matrix(0.05,0,0,0.05,10,0)" xlink:href="#aD"/><use transform="matrix(0.05,0,0,0.05,20,0)" xlink:href="#aQ"/><use transform="matrix(0.05,0,0,0.05,30,0)" xlink:href="#aP"/><use transform="matrix(0.05,0,0,0.05,40,0)" xlink:href="#aX"/><use transform="matrix(0.05,0,0,0.05,43.95,0)" xlink:href="#aI"/><use transform="matrix(0.05,0,0,0.05,53.95,0)" xlink:href="#aM"/><use transform="matrix(0.05,0,0,0.05,58.95,0)" xlink:href="#aq"/></g><path d="M30-248c118-7 216 8 213 122C240-48 200 0 122 0H30v-248zM63-27c89 8 146-16 146-99s-60-101-146-95v194" id="bh"/><g id="ad"><use transform="matrix(0.05,0,0,0.05,0,0)" xlink:href="#bh"/><use transform="matrix(0.05,0,0,0.05,12.950000000000001,0)" xlink:href="#aq"/><use transform="matrix(0.05,0,0,0.05,22.950000000000003,0)" xlink:href="#aY"/><use transform="matrix(0.05,0,0,0.05,27.950000000000003,0)" xlink:href="#aI"/><use transform="matrix(0.05,0,0,0.05,37.95,0)" xlink:href="#aP"/><use transform="matrix(0.05,0,0,0.05,47.95,0)" xlink:href="#aX"/><use transform="matrix(0.05,0,0,0.05,51.900000000000006,0)" xlink:href="#aM"/><use transform="matrix(0.05,0,0,0.05,56.900000000000006,0)" xlink:href="#aZ"/><use transform="matrix(0.05,0,0,0.05,69.85000000000001,0)" xlink:href="#aq"/><use transform="matrix(0.05,0,0,0.05,79.85000000000001,0)" xlink:href="#aL"/><use transform="matrix(0.05,0,0,0.05,88.85000000000001,0)" xlink:href="#aQ"/><use transform="matrix(0.05,0,0,0.05,98.85000000000001,0)" xlink:href="#aD"/><use transform="matrix(0.05,0,0,0.05,108.85000000000001,0)" xlink:href="#aB"/><use transform="matrix(0.05,0,0,0.05,118.85000000000001,0)" xlink:href="#aL"/><use transform="matrix(0.05,0,0,0.05,127.85000000000001,0)" xlink:href="#aq"/></g><g id="ae"><use transform="matrix(0.05,0,0,0.05,0,0)" xlink:href="#aR"/><use transform="matrix(0.05,0,0,0.05,5.95,0)" xlink:href="#aq"/><use transform="matrix(0.05,0,0,0.05,15.949999999999998,0)" xlink:href="#aL"/><use transform="matrix(0.05,0,0,0.05,24.95,0)" xlink:href="#aQ"/><use transform="matrix(0.05,0,0,0.05,34.95,0)" xlink:href="#aD"/><use transform="matrix(0.05,0,0,0.05,44.95,0)" xlink:href="#aB"/><use transform="matrix(0.05,0,0,0.05,54.95,0)" xlink:href="#aL"/><use transform="matrix(0.05,0,0,0.05,63.95,0)" xlink:href="#aq"/></g><g id="af"><use transform="matrix(0.05,0,0,0.05,0,0)" xlink:href="#aE"/><use transform="matrix(0.05,0,0,0.05,14.950000000000001,0)" xlink:href="#aq"/><use transform="matrix(0.05,0,0,0.05,24.950000000000003,0)" xlink:href="#aL"/><use transform="matrix(0.05,0,0,0.05,33.95,0)" xlink:href="#aL"/><use transform="matrix(0.05,0,0,0.05,42.95,0)" xlink:href="#aI"/><use transform="matrix(0.05,0,0,0.05,52.95,0)" xlink:href="#aG"/><use transform="matrix(0.05,0,0,0.05,62.95,0)" xlink:href="#aq"/></g><g id="ag"><use transform="matrix(0.05,0,0,0.05,0,0)" xlink:href="#bb"/><use transform="matrix(0.05,0,0,0.05,10,0)" xlink:href="#aP"/><use transform="matrix(0.05,0,0,0.05,20,0)" xlink:href="#aY"/><use transform="matrix(0.05,0,0,0.05,24.65,0)" xlink:href="#aY"/><use transform="matrix(0.05,0,0,0.05,29.649999999999995,0)" xlink:href="#aq"/><use transform="matrix(0.05,0,0,0.05,39.65,0)" xlink:href="#aR"/></g><g id="ah"><use transform="matrix(0.05,0,0,0.05,0,0)" xlink:href="#aP"/><use transform="matrix(0.05,0,0,0.05,10,0)" xlink:href="#aL"/><use transform="matrix(0.05,0,0,0.05,19,0)" xlink:href="#aF"/><use transform="matrix(0.05,0,0,0.05,22.95,0)" xlink:href="#aB"/><use transform="matrix(0.05,0,0,0.05,32.95,0)" xlink:href="#aG"/></g><g id="ai"><use transform="matrix(0.05,0,0,0.05,0,0)" xlink:href="#aI"/><use transform="matrix(0.05,0,0,0.05,10,0)" xlink:href="#aQ"/><use transform="matrix(0.05,0,0,0.05,20,0)" xlink:href="#aQ"/><use transform="matrix(0.05,0,0,0.05,30,0)" xlink:href="#aR"/><use transform="matrix(0.05,0,0,0.05,35.95,0)" xlink:href="#aD"/><use transform="matrix(0.05,0,0,0.05,45.95,0)" xlink:href="#aQ"/><use transform="matrix(0.05,0,0,0.05,55.95,0)" xlink:href="#aR"/><use transform="matrix(0.05,0,0,0.05,61.900000000000006,0)" xlink:href="#aF"/><use transform="matrix(0.05,0,0,0.05,65.85000000000001,0)" xlink:href="#aI"/><use transform="matrix(0.05,0,0,0.05,75.85000000000001,0)" xlink:href="#aM"/><use transform="matrix(0.05,0,0,0.05,80.85000000000001,0)" xlink:href="#aq"/></g><g id="aj"><use transform="matrix(0.05,0,0,0.05,0,0)" xlink:href="#aq"/><use transform="matrix(0.05,0,0,0.05,10,0)" xlink:href="#aB"/><use transform="matrix(0.05,0,0,0.05,20,0)" xlink:href="#aC"/><use transform="matrix(0.05,0,0,0.05,29,0)" xlink:href="#aD"/><use transform="matrix(0.05,0,0,0.05,39,0)" xlink:href="#aJ"/><use transform="matrix(0.05,0,0,0.05,49,0)" xlink:href="#aq"/><use transform="matrix(0.05,0,0,0.05,59,0)" xlink:href="#aR"/></g><g id="ak"><use transform="matrix(0.05,0,0,0.05,0,0)" xlink:href="#as"/><use transform="matrix(0.05,0,0,0.05,12.950000000000001,0)" xlink:href="#at"/><use transform="matrix(0.05,0,0,0.05,25.900000000000002,0)" xlink:href="#au"/><use transform="matrix(0.05,0,0,0.05,30.900000000000002,0)" xlink:href="#av"/></g><g id="al"><use transform="matrix(0.05,0,0,0.05,0,0)" xlink:href="#aE"/><use transform="matrix(0.05,0,0,0.05,14.950000000000001,0)" xlink:href="#aq"/><use transform="matrix(0.05,0,0,0.05,24.950000000000003,0)" xlink:href="#aL"/><use transform="matrix(0.05,0,0,0.05,33.95,0)" xlink:href="#aL"/><use transform="matrix(0.05,0,0,0.05,42.95,0)" xlink:href="#aI"/><use transform="matrix(0.05,0,0,0.05,52.95,0)" xlink:href="#aG"/><use transform="matrix(0.05,0,0,0.05,62.95,0)" xlink:href="#aq"/></g><g id="am"><use transform="matrix(0.05,0,0,0.05,0,0)" xlink:href="#aL"/><use transform="matrix(0.05,0,0,0.05,9,0)" xlink:href="#aq"/><use transform="matrix(0.05,0,0,0.05,19,0)" xlink:href="#aB"/><use transform="matrix(0.05,0,0,0.05,29,0)" xlink:href="#aJ"/></g><g id="an"><use transform="matrix(0.05,0,0,0.05,0,0)" xlink:href="#aG"/><use transform="matrix(0.05,0,0,0.05,10,0)" xlink:href="#aq"/><use transform="matrix(0.05,0,0,0.05,20,0)" xlink:href="#aB"/><use transform="matrix(0.05,0,0,0.05,30,0)" xlink:href="#aU"/><use transform="matrix(0.05,0,0,0.05,35.95,0)" xlink:href="#aL"/><use transform="matrix(0.05,0,0,0.05,44.95,0)" xlink:href="#aQ"/><use transform="matrix(0.05,0,0,0.05,54.95,0)" xlink:href="#aq"/><use transform="matrix(0.05,0,0,0.05,64.95,0)" xlink:href="#aC"/><use transform="matrix(0.05,0,0,0.05,73.95,0)" xlink:href="#aL"/></g><g id="ao"><use transform="matrix(0.05,0,0,0.05,0,0)" xlink:href="#aG"/><use transform="matrix(0.05,0,0,0.05,10,0)" xlink:href="#aq"/><use transform="matrix(0.05,0,0,0.05,20,0)" xlink:href="#aB"/><use transform="matrix(0.05,0,0,0.05,30,0)" xlink:href="#aU"/><use transform="matrix(0.05,0,0,0.05,35.95,0)" xlink:href="#aM"/><use transform="matrix(0.05,0,0,0.05,40.95,0)" xlink:href="#ar"/><use transform="matrix(0.05,0,0,0.05,49.95,0)" xlink:href="#aQ"/><use transform="matrix(0.05,0,0,0.05,59.95,0)" xlink:href="#aq"/><use transform="matrix(0.05,0,0,0.05,69.95,0)" xlink:href="#aL"/></g></defs></g></svg>