<?xml version="1.0" encoding="UTF-8" standalone="no"?>
<!DOCTYPE svg PUBLIC "-//W3C//DTD SVG 1.1//EN" "http://www.w3.org/Graphics/SVG/1.1/DTD/svg11.dtd">
<!-- Generated by Microsoft Visio, SVG Export chip_nrfconnect_overview_simplified.svg Page-1 -->
<svg xmlns="http://www.w3.org/2000/svg" xmlns:xlink="http://www.w3.org/1999/xlink" xmlns:ev="http://www.w3.org/2001/xml-events"
		xmlns:v="http://schemas.microsoft.com/visio/2003/SVGExtensions/" width="9.52076in" height="9.02451in"
		viewBox="0 0 685.495 649.765" xml:space="preserve" color-interpolation-filters="sRGB" class="st30">
	<v:documentProperties v:langID="1033" v:metric="true" v:viewMarkup="false">
		<v:userDefs>
			<v:ud v:nameU="msvNoAutoConnect" v:val="VT0(1):26"/>
		</v:userDefs>
	</v:documentProperties>

	<style type="text/css">
	<![CDATA[
		.st1 {fill:#0077c8;fill-opacity:0;stroke:#000000;stroke-linecap:round;stroke-linejoin:round;stroke-width:0.75}
		.st2 {stroke:none;stroke-linecap:round;stroke-linejoin:round;stroke-width:0.75}
		.st3 {fill:#000000;font-family:Gotham Light;font-size:1.81764em}
		.st4 {fill:#6b9ef4;fill-opacity:0.58;stroke:none;stroke-linecap:round;stroke-linejoin:round;stroke-width:2}
		.st5 {fill:#000000;font-family:Gotham Light;font-size:1.12521em}
		.st6 {fill:#4c5662;stroke:none;stroke-width:1}
		.st7 {fill:#ffffff;font-family:Gotham Light;font-size:1.29833em}
		.st8 {fill:#0033a0;stroke:none;stroke-width:1}
		.st9 {fill:#d9e1e2;stroke:#feffff;stroke-width:1}
		.st10 {fill:#000000;font-family:Gotham Light;font-size:1.16666em}
		.st11 {fill:#6ad1e3;stroke:none;stroke-width:1}
		.st12 {fill:#ffffff;font-family:Gotham Light;font-size:0.833336em}
		.st13 {font-size:1em}
		.st14 {fill:#6ad1e3;stroke:none;stroke-linecap:round;stroke-linejoin:round;stroke-width:0.75}
		.st15 {fill:#ffffff;font-family:Gotham Light;font-size:1.00001em}
		.st16 {fill:#768692;stroke:none;stroke-linecap:round;stroke-linejoin:round;stroke-width:0.75}
		.st17 {fill:#d9e1e2;stroke:#0075c8;stroke-linecap:round;stroke-linejoin:round;stroke-width:0.064891}
		.st18 {fill:#000000;font-family:Gotham Light;font-size:1.00001em}
		.st19 {fill:#6ad1e3;stroke:#feffff;stroke-width:1}
		.st20 {fill:#00a9ce;stroke:none;stroke-linecap:round;stroke-linejoin:round;stroke-width:0.75}
		.st21 {fill:#4c5662;stroke:#feffff;stroke-width:1}
		.st22 {fill:#d9e1e2;stroke:none;stroke-linecap:round;stroke-linejoin:round;stroke-width:0.75}
		.st23 {fill:#000000;font-family:Gotham Light;font-size:0.916672em}
		.st24 {fill:#0033a0;stroke:#feffff;stroke-width:1}
		.st25 {fill:#6b9ef4;fill-opacity:0.58;stroke:#000000;stroke-dasharray:1.5,3;stroke-linecap:round;stroke-linejoin:round;stroke-opacity:0.95;stroke-width:1.5}
		.st26 {fill:#6b9ef4;fill-opacity:0.58;stroke:#000000;stroke-dasharray:1.5,3;stroke-linecap:round;stroke-linejoin:round;stroke-width:1.5}
		.st27 {fill:#ffffff;font-family:Gotham Light;font-size:1.16666em}
		.st28 {fill:#6b9ef4;fill-opacity:0.58;stroke:none;stroke-linecap:round;stroke-linejoin:round;stroke-width:0.75}
		.st29 {fill:#000000;font-family:Gotham Light;font-size:1.33333em}
		.st30 {fill:none;fill-rule:evenodd;font-size:12px;overflow:visible;stroke-linecap:square;stroke-miterlimit:3}
	]]>
	</style>

	<g v:mID="0" v:index="1" v:groupContext="foregroundPage">
		<title>Page-1</title>
		<v:pageProperties v:drawingScale="0.0393701" v:pageScale="0.0393701" v:drawingUnits="24" v:shadowOffsetX="8.50394"
				v:shadowOffsetY="-8.50394"/>
		<v:layer v:name="Connector" v:index="0"/>
		<v:layer v:name="gap" v:index="1"/>
		<g id="shape55-1" v:mID="55" v:groupContext="shape" transform="translate(34.0157,-113.386)">
			<title>Sheet.55</title>
			<path d="M633.48 153.7 L0 153.7 L0 649.76 L633.48 649.76 L633.48 153.7 Z" class="st1"/>
		</g>
		<g id="shape56-3" v:mID="56" v:groupContext="shape" transform="translate(18,-82.0795)">
			<title>Sheet.56</title>
			<desc>nRF device</desc>
			<v:textBlock v:margins="rect(0,0,0,0)" v:tabSpace="42.5197"/>
			<v:textRect cx="327.614" cy="635.466" width="655.23" height="28.5969"/>
			<path d="M655.23 621.17 L0 621.17 L0 649.76 L655.23 649.76 L655.23 621.17" class="st2"/>
			<text x="267.39" y="642.01" class="st3" v:langID="1033"><v:paragraph v:horizAlign="1"/><v:tabList/>nRF device</text>		</g>
		<g id="shape59-7" v:mID="59" v:groupContext="shape" transform="translate(207.54,-562.991)">
			<title>Sheet.59</title>
			<path d="M0 614.65 L0 649.76 L451.55 649.76 L451.55 614.65 L0 614.65 L0 614.65 Z" class="st4"/>
		</g>
		<g id="shape60-9" v:mID="60" v:groupContext="shape" transform="translate(207.54,-574.324)">
			<title>Sheet.60</title>
			<desc>Application</desc>
			<v:textBlock v:margins="rect(0,0,0,0)" v:tabSpace="42.5197"/>
			<v:textRect cx="225.677" cy="643.538" width="451.36" height="12.4539"/>
			<path d="M451.35 637.31 L0 637.31 L0 649.76 L451.35 649.76 L451.35 637.31" class="st2"/>
			<text x="187.5" y="647.59" class="st5" v:langID="1033"><v:paragraph v:horizAlign="1"/><v:tabList/>Application</text>		</g>
		<g id="shape61-13" v:mID="61" v:groupContext="shape" transform="translate(207.54,-154.795)">
			<title>Sheet.61</title>
			<path d="M0 329.45 L0 649.76 L192.33 649.76 L192.33 329.45 L0 329.45 L0 329.45 Z" class="st6"/>
		</g>
		<g id="shape62-15" v:mID="62" v:groupContext="shape" transform="translate(207.532,-450.749)">
			<title>Sheet.62</title>
			<desc>Bluetooth LE stack</desc>
			<v:textBlock v:margins="rect(0,0,0,0)" v:tabSpace="42.5197"/>
			<v:textRect cx="96.1654" cy="639.864" width="192.34" height="19.8018"/>
			<path d="M192.33 629.96 L0 629.96 L0 649.76 L192.33 649.76 L192.33 629.96" class="st2"/>
			<text x="23.35" y="644.54" class="st7" v:langID="1033"><v:paragraph v:horizAlign="1"/><v:tabList/>Bluetooth LE stack</text>		</g>
		<g id="shape67-19" v:mID="67" v:groupContext="shape" transform="translate(404.929,-238.11)">
			<title>Sheet.67</title>
			<path d="M0 497.57 L0 649.76 L254.31 649.76 L254.31 497.57 L0 497.57 L0 497.57 Z" class="st8"/>
		</g>
		<g id="shape71-21" v:mID="71" v:groupContext="shape" transform="translate(405.365,-238.11)">
			<title>Sheet.71</title>
			<desc>Thread stack (OpenThread)</desc>
			<v:textBlock v:margins="rect(0,0,0,0)" v:tabSpace="42.5197"/>
			<v:textRect cx="126.935" cy="573.667" width="253.87" height="152.197"/>
			<path d="M253.87 497.57 L0 497.57 L0 649.76 L253.87 649.76 L253.87 497.57" class="st2"/>
			<text x="20.16" y="578.34" class="st7" v:langID="1033"><v:paragraph v:horizAlign="1"/><v:tabList/>Thread stack (OpenThread)</text>		</g>
		<g id="shape117-25" v:mID="117" v:groupContext="shape" transform="translate(214.959,-295.819)">
			<title>Sheet.117</title>
			<desc>Zephyr host</desc>
			<v:textBlock v:margins="rect(5.66929,0,0,0)" v:tabSpace="42.5197" v:verticalAlign="0"/>
			<v:textRect cx="89.2913" cy="582.442" width="178.59" height="134.646"/>
			<rect x="0" y="515.119" width="178.583" height="134.646" class="st9"/>
			<text x="47.41" y="533.39" class="st10" v:langID="1033"><v:paragraph v:horizAlign="1"/><v:tabList/>Zephyr host</text>		</g>
		<g id="group107-28" transform="translate(358.161,-119.055)" v:mID="107" v:groupContext="group">
			<v:userDefs/>
			<title>Sheet.107</title>
			<desc>Secure boot</desc>
			<g id="shape108-29" v:mID="108" v:groupContext="shape">
				<title>Sheet.108</title>
				<rect x="0" y="618.026" width="166.205" height="31.7385" class="st11"/>
			</g>
			<g id="shape107-31" v:mID="107" v:groupContext="groupContent">
				<v:textBlock v:margins="rect(0,0,0,0)" v:tabSpace="42.5197"/>
				<v:textRect cx="84.5418" cy="633.896" width="169.09" height="31.7385"/>
				<text x="16.8" y="630.9" class="st12" v:langID="1033"><v:paragraph v:horizAlign="1"/><v:tabList/>Multiprotocol Service Layer<v:newlineChar/><tspan
							x="66.29" dy="1.2em" class="st13">(MPSL)</tspan></text>			</g>
		</g>
		<g id="shape118-34" v:mID="118" v:groupContext="shape" transform="translate(215.291,-166.134)">
			<title>Sheet.118</title>
			<desc>SoftDevice Controller</desc>
			<v:textBlock v:margins="rect(4,4,4,4)" v:tabSpace="42.5197"/>
			<v:textRect cx="89.2913" cy="631.34" width="178.59" height="36.8504"/>
			<rect x="0" y="612.914" width="178.583" height="36.8504" class="st14"/>
			<text x="25.62" y="634.94" class="st15" v:langID="1033"><v:paragraph v:horizAlign="1"/><v:tabList/>SoftDevice Controller</text>		</g>
		<g id="shape82-37" v:mID="82" v:groupContext="shape" transform="translate(222.046,-304.781)">
			<title>Sheet.82</title>
			<desc>L2CAP</desc>
			<v:textBlock v:margins="rect(4,4,4,4)" v:tabSpace="42.5197"/>
			<v:textRect cx="68.0315" cy="635.466" width="136.07" height="28.5969"/>
			<path d="M136.06 621.17 L0 621.17 L0 649.76 L136.06 649.76 L136.06 621.17 Z" class="st16"/>
			<text x="47.6" y="639.07" class="st15" v:langID="1033"><v:paragraph v:horizAlign="1"/><v:tabList/>L2CAP</text>		</g>
		<g id="shape78-40" v:mID="78" v:groupContext="shape" transform="translate(221.771,-369.978)">
			<title>Sheet.78</title>
			<desc>GATT</desc>
			<v:textBlock v:margins="rect(4,4,4,4)" v:tabSpace="42.5197"/>
			<v:textRect cx="36.1417" cy="635.466" width="72.29" height="28.5969"/>
			<path d="M72.28 621.17 L0 621.17 L0 649.76 L72.28 649.76 L72.28 621.17 Z" class="st16"/>
			<text x="19.04" y="639.07" class="st15" v:langID="1033"><v:paragraph v:horizAlign="1"/><v:tabList/>GATT</text>		</g>
		<g id="shape80-43" v:mID="80" v:groupContext="shape" transform="translate(222.046,-337.379)">
			<title>Sheet.80</title>
			<desc>ATT</desc>
			<v:textBlock v:margins="rect(4,4,4,4)" v:tabSpace="42.5197"/>
			<v:textRect cx="36.1417" cy="635.466" width="72.29" height="28.5969"/>
			<path d="M72.28 621.17 L0 621.17 L0 649.76 L72.28 649.76 L72.28 621.17 Z" class="st16"/>
			<text x="23.75" y="639.07" class="st15" v:langID="1033"><v:paragraph v:horizAlign="1"/><v:tabList/>ATT</text>		</g>
		<g id="shape88-46" v:mID="88" v:groupContext="shape" transform="translate(298.274,-370.058)">
			<title>Sheet.88</title>
			<desc>GAP</desc>
			<v:textBlock v:margins="rect(4,4,4,4)" v:tabSpace="42.5197"/>
			<v:textRect cx="45.1395" cy="635.466" width="90.28" height="28.5969"/>
			<path d="M90.28 621.17 L0 621.17 L0 649.76 L90.28 649.76 L90.28 621.17 Z" class="st16"/>
			<text x="31.69" y="639.07" class="st15" v:langID="1033"><v:paragraph v:horizAlign="1"/><v:tabList/>GAP</text>		</g>
		<g id="shape119-49" v:mID="119" v:groupContext="shape" transform="translate(946.015,355.505) rotate(90)">
			<title>Sheet.119</title>
			<path d="M8.46 644.82 L80.21 644.82 L80.21 645.92 L8.46 645.92 L8.46 644.82 L8.46 644.82 ZM10.11 649.76 L0 645.37 L10.11
						 640.97 L10.11 649.76 L10.11 649.76 ZM78.47 640.97 L88.58 645.37 L78.47 649.76 L78.47 640.97 L78.47 640.97
						 Z" class="st17"/>
		</g>
		<g id="shape120-51" v:mID="120" v:groupContext="shape" transform="translate(303.595,-240.068)">
			<title>Sheet.120</title>
			<desc>HCI (RAM)</desc>
			<v:textBlock v:margins="rect(0,0,0,0)" v:tabSpace="42.5197"/>
			<v:textRect cx="45.1395" cy="639.864" width="90.28" height="19.8018"/>
			<path d="M90.28 629.96 L0 629.96 L0 649.76 L90.28 649.76 L90.28 629.96" class="st2"/>
			<text x="13.23" y="643.46" class="st15" v:langID="1033"><v:paragraph v:horizAlign="1"/><v:tabList/>HCI (RAM)</text>		</g>
		<g id="group187-55" transform="translate(488.162,-197.008)" v:mID="187" v:groupContext="group">
			<v:userDefs/>
			<title>Sheet.187</title>
			<desc>Secure boot</desc>
			<g id="shape188-56" v:mID="188" v:groupContext="shape">
				<title>Sheet.188</title>
				<rect x="0" y="614.332" width="171" height="35.4331" class="st6"/>
			</g>
			<g id="shape187-58" v:mID="187" v:groupContext="groupContent">
				<v:textBlock v:margins="rect(0,0,0,0)" v:tabSpace="42.5197"/>
				<v:textRect cx="82.0601" cy="632.048" width="165.48" height="35.4331"/>
				<text x="26.77" y="635.65" class="st15" v:langID="1033"><v:paragraph v:horizAlign="1"/><v:tabList/>Zephyr integration</text>			</g>
		</g>
		<g id="shape100-60" v:mID="100" v:groupContext="shape" transform="translate(488.162,-154.795)">
			<title>Sheet.100</title>
			<path d="M171 612.91 L0 612.91 L0 649.76 L171 649.76 L171 612.91 Z" class="st14"/>
		</g>
		<g id="shape102-62" v:mID="102" v:groupContext="shape" transform="translate(488.162,-153.962)">
			<title>Sheet.102</title>
			<desc>nRF IEEE 802.15.4 radio driver</desc>
			<v:textBlock v:margins="rect(0,0,0,0)" v:tabSpace="42.5197"/>
			<v:textRect cx="84.5418" cy="631.34" width="169.09" height="36.8504"/>
			<path d="M169.08 612.91 L0 612.91 L0 649.76 L169.08 649.76 L169.08 612.91" class="st2"/>
			<text x="14.38" y="627.74" class="st15" v:langID="1033"><v:paragraph v:horizAlign="1"/><v:tabList/>nRF IEEE 802.15.4 radio <tspan
						x="67.29" dy="1.2em" class="st13">driver</tspan></text>		</g>
		<g id="shape189-67" v:mID="189" v:groupContext="shape" transform="translate(404.929,-395.688)">
			<title>Sheet.189</title>
			<path d="M0 570.39 L0 649.76 L253.88 649.76 L253.88 570.39 L0 570.39 L0 570.39 Z" class="st6"/>
		</g>
		<g id="shape190-69" v:mID="190" v:groupContext="shape" transform="translate(405.358,-453.543)">
			<title>Sheet.190</title>
			<desc>Zephyr network layer</desc>
			<v:textBlock v:margins="rect(0,0,0,0)" v:tabSpace="42.5197"/>
			<v:textRect cx="126.938" cy="639.864" width="253.88" height="19.8018"/>
			<path d="M253.88 629.96 L0 629.96 L0 649.76 L253.88 649.76 L253.88 629.96" class="st2"/>
			<text x="44.47" y="644.54" class="st7" v:langID="1033"><v:paragraph v:horizAlign="1"/><v:tabList/>Zephyr network layer</text>		</g>
		<g id="shape191-73" v:mID="191" v:groupContext="shape" transform="translate(412.016,-429.756)">
			<title>Sheet.191</title>
			<path d="M119.01 627.09 L0 627.09 L0 649.76 L119.01 649.76 L119.01 627.09 Z" class="st9"/>
		</g>
		<g id="shape192-75" v:mID="192" v:groupContext="shape" transform="translate(412.016,-429.756)">
			<title>Sheet.192</title>
			<desc>UDP</desc>
			<v:textBlock v:margins="rect(0,0,0,0)" v:tabSpace="42.5197"/>
			<v:textRect cx="59.5031" cy="638.426" width="119.01" height="22.6772"/>
			<path d="M119.01 627.09 L0 627.09 L0 649.76 L119.01 649.76 L119.01 627.09" class="st2"/>
			<text x="46.24" y="642.03" class="st18" v:langID="1033"><v:paragraph v:horizAlign="1"/><v:tabList/>UDP</text>		</g>
		<g id="shape193-79" v:mID="193" v:groupContext="shape" transform="translate(536.691,-429.756)">
			<title>Sheet.193</title>
			<path d="M115.14 626.84 L0 626.84 L0 649.76 L115.14 649.76 L115.14 626.84 Z" class="st9"/>
		</g>
		<g id="shape194-81" v:mID="194" v:groupContext="shape" transform="translate(536.691,-430.006)">
			<title>Sheet.194</title>
			<desc>TCP</desc>
			<v:textBlock v:margins="rect(0,0,0,0)" v:tabSpace="42.5197"/>
			<v:textRect cx="57.5677" cy="638.426" width="115.14" height="22.6772"/>
			<path d="M115.14 627.09 L0 627.09 L0 649.76 L115.14 649.76 L115.14 627.09" class="st2"/>
			<text x="45.27" y="642.03" class="st18" v:langID="1033"><v:paragraph v:horizAlign="1"/><v:tabList/>TCP</text>		</g>
		<g id="shape195-85" v:mID="195" v:groupContext="shape" transform="translate(412.016,-401.409)">
			<title>Sheet.195</title>
			<path d="M239.53 627.09 L0 627.09 L0 649.76 L239.53 649.76 L239.53 627.09 Z" class="st9"/>
		</g>
		<g id="shape196-87" v:mID="196" v:groupContext="shape" transform="translate(412.016,-401.409)">
			<title>Sheet.196</title>
			<desc>IPv6</desc>
			<v:textBlock v:margins="rect(0,0,0,0)" v:tabSpace="42.5197"/>
			<v:textRect cx="119.764" cy="638.426" width="239.53" height="22.6772"/>
			<path d="M239.53 627.09 L0 627.09 L0 649.76 L239.53 649.76 L239.53 627.09" class="st2"/>
			<text x="106.77" y="642.03" class="st18" v:langID="1033"><v:paragraph v:horizAlign="1"/><v:tabList/>IPv6</text>		</g>
		<g id="shape197-91" v:mID="197" v:groupContext="shape" transform="translate(41.6974,-154.795)">
			<title>Sheet.197</title>
			<desc>Drivers and modules</desc>
			<v:textBlock v:margins="rect(5.66929,0,0,0)" v:tabSpace="42.5197" v:verticalAlign="0"/>
			<v:textRect cx="80.1924" cy="588.69" width="160.39" height="122.15"/>
			<rect x="0" y="527.615" width="160.385" height="122.15" class="st19"/>
			<text x="19.41" y="544.08" class="st15" v:langID="1033"><v:paragraph v:horizAlign="1"/><v:tabList/>Drivers and modules</text>		</g>
		<g id="shape206-94" v:mID="206" v:groupContext="shape" transform="translate(123.193,-166.984)">
			<title>Sheet.206</title>
			<desc>Crypto backends</desc>
			<v:textBlock v:margins="rect(4,4,4,4)" v:tabSpace="42.5197"/>
			<v:textRect cx="35.4758" cy="631.34" width="70.96" height="36.8504"/>
			<path d="M70.95 612.91 L0 612.91 L0 649.76 L70.95 649.76 L70.95 612.91 Z" class="st20"/>
			<text x="14.89" y="627.74" class="st15" v:langID="1033"><v:paragraph v:horizAlign="1"/><v:tabList/>Crypto <tspan
						x="7.16" dy="1.2em" class="st13">backends</tspan></text>		</g>
		<g id="shape209-98" v:mID="209" v:groupContext="shape" transform="translate(48.1604,-166.984)">
			<title>Sheet.209</title>
			<desc>NFC</desc>
			<v:textBlock v:margins="rect(4,4,4,4)" v:tabSpace="42.5197"/>
			<v:textRect cx="35.4758" cy="631.34" width="70.96" height="36.8504"/>
			<path d="M70.95 612.91 L0 612.91 L0 649.76 L70.95 649.76 L70.95 612.91 Z" class="st20"/>
			<text x="22.34" y="634.94" class="st15" v:langID="1033"><v:paragraph v:horizAlign="1"/><v:tabList/>NFC</text>		</g>
		<g id="shape210-101" v:mID="210" v:groupContext="shape" transform="translate(48.1604,-209.504)">
			<title>Sheet.210</title>
			<desc>DFU</desc>
			<v:textBlock v:margins="rect(4,4,4,4)" v:tabSpace="42.5197"/>
			<v:textRect cx="35.4758" cy="631.34" width="70.96" height="36.8504"/>
			<path d="M70.95 612.91 L0 612.91 L0 649.76 L70.95 649.76 L70.95 612.91 Z" class="st20"/>
			<text x="22.29" y="634.94" class="st15" v:langID="1033"><v:paragraph v:horizAlign="1"/><v:tabList/>DFU</text>		</g>
		<g id="shape211-104" v:mID="211" v:groupContext="shape" transform="translate(123.193,-209.504)">
			<title>Sheet.211</title>
			<desc>Partition Manager</desc>
			<v:textBlock v:margins="rect(4,4,4,4)" v:tabSpace="42.5197"/>
			<v:textRect cx="35.4758" cy="631.34" width="70.96" height="36.8504"/>
			<path d="M70.95 612.91 L0 612.91 L0 649.76 L70.95 649.76 L70.95 612.91 Z" class="st20"/>
			<text x="10.32" y="627.74" class="st15" v:langID="1033"><v:paragraph v:horizAlign="1"/><v:tabList/>Partition <tspan
						x="9.84" dy="1.2em" class="st13">Manager</tspan></text>		</g>
		<g id="shape212-108" v:mID="212" v:groupContext="shape" transform="translate(41.6974,-281.48)">
			<title>Sheet.212</title>
			<desc>Zephyr APIs</desc>
			<v:textBlock v:margins="rect(5.66929,0,0,0)" v:tabSpace="42.5197" v:verticalAlign="0"/>
			<v:textRect cx="80.1924" cy="606.253" width="160.39" height="87.0236"/>
			<rect x="0" y="562.741" width="160.385" height="87.0236" class="st21"/>
			<text x="43.82" y="579.21" class="st15" v:langID="1033"><v:paragraph v:horizAlign="1"/><v:tabList/>Zephyr APIs</text>		</g>
		<g id="shape213-111" v:mID="213" v:groupContext="shape" transform="translate(123.193,-290.858)">
			<title>Sheet.213</title>
			<desc>Driver API</desc>
			<v:textBlock v:margins="rect(4,4,4,4)" v:tabSpace="42.5197"/>
			<v:textRect cx="35.4758" cy="625.67" width="70.96" height="48.189"/>
			<path d="M70.95 601.58 L0 601.58 L0 649.76 L70.95 649.76 L70.95 601.58 Z" class="st22"/>
			<text x="5.3" y="629.27" class="st18" v:langID="1033"><v:paragraph v:horizAlign="1"/><v:tabList/>Driver API</text>		</g>
		<g id="shape214-114" v:mID="214" v:groupContext="shape" transform="translate(48.1604,-290.858)">
			<title>Sheet.214</title>
			<desc>Crypto API</desc>
			<v:textBlock v:margins="rect(4,4,4,4)" v:tabSpace="42.5197"/>
			<v:textRect cx="35.4758" cy="625.67" width="70.96" height="48.189"/>
			<path d="M70.95 601.58 L0 601.58 L0 649.76 L70.95 649.76 L70.95 601.58 Z" class="st22"/>
			<text x="5.43" y="628.97" class="st23" v:langID="1033"><v:paragraph v:horizAlign="1"/><v:tabList/>Crypto API</text>		</g>
		<g id="shape217-117" v:mID="217" v:groupContext="shape" transform="translate(41.6974,-373.15)">
			<title>Sheet.217</title>
			<desc>Zephyr RTOS kernel</desc>
			<v:textBlock v:margins="rect(0,0,0,0)" v:tabSpace="42.5197"/>
			<v:textRect cx="80.1924" cy="626.423" width="160.39" height="46.6845"/>
			<rect x="0" y="603.08" width="160.385" height="46.6845" class="st21"/>
			<text x="20.35" y="630.02" class="st15" v:langID="1033"><v:paragraph v:horizAlign="1"/><v:tabList/>Zephyr RTOS kernel</text>		</g>
		<g id="shape220-120" v:mID="220" v:groupContext="shape" transform="translate(41.6974,-425.197)">
			<title>Sheet.220</title>
			<desc>MCU bootloader</desc>
			<v:textBlock v:margins="rect(0,0,0,0)" v:tabSpace="42.5197"/>
			<v:textRect cx="38.0979" cy="625.458" width="76.2" height="48.6142"/>
			<rect x="0" y="601.151" width="76.1958" height="48.6142" class="st24"/>
			<text x="23.87" y="621.86" class="st15" v:langID="1033"><v:paragraph v:horizAlign="1"/><v:tabList/>MCU <tspan x="5.42"
						dy="1.2em" class="st13">bootloader</tspan></text>		</g>
		<g id="shape221-124" v:mID="221" v:groupContext="shape" transform="translate(122.712,-425.197)">
			<title>Sheet.221</title>
			<desc>mbedTLS</desc>
			<v:textBlock v:margins="rect(0,0,0,0)" v:tabSpace="42.5197"/>
			<v:textRect cx="39.685" cy="625.458" width="79.38" height="48.6142"/>
			<rect x="0" y="601.151" width="79.3701" height="48.6142" class="st24"/>
			<text x="11.23" y="629.06" class="st15" v:langID="1033"><v:paragraph v:horizAlign="1"/><v:tabList/>mbedTLS</text>		</g>
		<g id="shape222-127" v:mID="222" v:groupContext="shape" transform="translate(207.341,-521.851)">
			<title>Sheet.222</title>
			<path d="M0 614.65 L0 649.76 L451.55 649.76 L451.55 614.65 L0 614.65 L0 614.65 Z" class="st25"/>
		</g>
		<g id="shape223-129" v:mID="223" v:groupContext="shape" transform="translate(207.54,-533.183)">
			<title>Sheet.223</title>
			<desc>CHIP stack</desc>
			<v:textBlock v:margins="rect(0,0,0,0)" v:tabSpace="42.5197"/>
			<v:textRect cx="225.677" cy="643.538" width="451.36" height="12.4539"/>
			<path d="M451.35 637.31 L0 637.31 L0 649.76 L451.35 649.76 L451.35 637.31" class="st2"/>
			<text x="189.58" y="647.59" class="st5" v:langID="1033"><v:paragraph v:horizAlign="1"/><v:tabList/>CHIP stack</text>		</g>
		<g id="shape224-133" v:mID="224" v:groupContext="shape" transform="translate(207.341,-480.71)">
			<title>Sheet.224</title>
			<path d="M0 614.65 L0 649.76 L451.55 649.76 L451.55 614.65 L0 614.65 L0 614.65 Z" class="st26"/>
		</g>
		<g id="shape225-135" v:mID="225" v:groupContext="shape" transform="translate(207.341,-492.043)">
			<title>Sheet.225</title>
			<desc>Zephyr integration layer</desc>
			<v:textBlock v:margins="rect(0,0,0,0)" v:tabSpace="42.5197"/>
			<v:textRect cx="225.776" cy="643.538" width="451.56" height="12.4539"/>
			<path d="M451.55 637.31 L0 637.31 L0 649.76 L451.55 649.76 L451.55 637.31" class="st2"/>
			<text x="145.37" y="647.59" class="st5" v:langID="1033"><v:paragraph v:horizAlign="1"/><v:tabList/>Zephyr integration layer</text>		</g>
		<g id="shape227-139" v:mID="227" v:groupContext="shape" transform="translate(1011.88,279.706) rotate(90)">
			<title>Sheet.227</title>
			<path d="M65.54 623.32 L0 623.32 L0 649.76 L65.54 649.76 L65.54 623.32 Z" class="st16"/>
		</g>
		<g id="shape229-141" v:mID="229" v:groupContext="shape" transform="translate(298.581,-337.379)">
			<title>Sheet.229</title>
			<desc>SMP</desc>
			<v:textBlock v:margins="rect(4,4,4,4)" v:tabSpace="42.5197"/>
			<v:textRect cx="30.0472" cy="635.466" width="60.1" height="28.5969"/>
			<path d="M60.09 621.17 L0 621.17 L0 649.76 L60.09 649.76 L60.09 621.17 Z" class="st16"/>
			<text x="16.99" y="639.07" class="st15" v:langID="1033"><v:paragraph v:horizAlign="1"/><v:tabList/>SMP</text>		</g>
		<g id="shape231-144" v:mID="231" v:groupContext="shape" transform="translate(555.235,-19)">
			<title>Sheet.231</title>
			<desc>CHIP (built with GN)</desc>
			<v:textBlock v:margins="rect(4,4,4,4)" v:tabSpace="42.5197"/>
			<v:textRect cx="55.4533" cy="630.344" width="110.91" height="38.8425"/>
			<path d="M0 649.76 L110.91 649.76 L110.91 610.92 L0 610.92 L0 649.76 Z" class="st26"/>
			<text x="40.78" y="626.74" class="st18" v:langID="1033"><v:paragraph v:horizAlign="1"/><v:tabList/>CHIP<v:lf/><tspan
						x="11.49" dy="1.2em" class="st13">(built with GN)</tspan></text>		</g>
		<g id="shape232-148" v:mID="232" v:groupContext="shape" transform="translate(294.625,-19)">
			<title>Sheet.232</title>
			<desc>Third-party</desc>
			<v:textBlock v:margins="rect(0,0,0,0)" v:tabSpace="42.5197"/>
			<v:textRect cx="55.4533" cy="630.344" width="110.91" height="38.8425"/>
			<rect x="0" y="610.922" width="110.907" height="38.8425" class="st24"/>
			<text x="16.32" y="634.54" class="st27" v:langID="1033"><v:paragraph v:horizAlign="1"/><v:tabList/>Third-party</text>		</g>
		<g id="shape233-151" v:mID="233" v:groupContext="shape" transform="translate(423.247,-19)">
			<title>Sheet.233</title>
			<desc>CHIP</desc>
			<v:textBlock v:margins="rect(4,4,4,4)" v:tabSpace="42.5197"/>
			<v:textRect cx="55.4533" cy="630.344" width="110.91" height="38.8425"/>
			<rect x="0" y="610.922" width="110.907" height="38.8425" class="st28"/>
			<text x="35.89" y="635.14" class="st29" v:langID="1033"><v:paragraph v:horizAlign="1"/><v:tabList/>CHIP</text>		</g>
		<g id="shape234-154" v:mID="234" v:groupContext="shape" transform="translate(164.321,-19)">
			<title>Sheet.234</title>
			<desc>Zephyr</desc>
			<v:textBlock v:margins="rect(0,0,0,0)" v:tabSpace="42.5197"/>
			<v:textRect cx="55.4533" cy="630.344" width="110.91" height="38.8425"/>
			<rect x="0" y="610.922" width="110.907" height="38.8425" class="st6"/>
			<text x="30.72" y="634.54" class="st27" v:langID="1033"><v:paragraph v:horizAlign="1"/><v:tabList/>Zephyr</text>		</g>
		<g id="shape235-157" v:mID="235" v:groupContext="shape" transform="translate(34.0157,-19)">
			<title>Sheet.235</title>
			<desc>nRF Connect SDK</desc>
			<v:textBlock v:margins="rect(4,4,4,4)" v:tabSpace="42.5197"/>
			<v:textRect cx="55.4533" cy="630.344" width="110.91" height="38.8425"/>
			<rect x="0" y="610.922" width="110.907" height="38.8425" class="st14"/>
			<text x="10.26" y="626.14" class="st27" v:langID="1033"><v:paragraph v:horizAlign="1"/><v:tabList/>nRF Connect <tspan
						x="40.49" dy="1.2em" class="st13">SDK</tspan></text>		</g>
	</g>
</svg>
